<svg width="1724" height="1971" viewBox="0 0 1724 1971" fill="none" xmlns="http://www.w3.org/2000/svg">
<circle cx="862" cy="1125" r="803" transform="rotate(53 862 1125)" fill="#969696"/>
<path d="M1042.65 569.629C1048.48 544.907 1078 515.031 1078 515.031C1078 515.031 1113.15 479.988 1136.47 489C1150.24 494.324 1148.53 512.306 1162.78 516.143C1188.91 523.176 1177.41 469.128 1202.7 459.512C1245.73 443.15 1246.33 536.852 1276.47 551.454C1306.62 566.055 1296.23 586.809 1287.26 595.36C1278.3 603.912 1297.38 653.527 1272.18 667.206C1249.48 679.53 1233.14 643.311 1208.26 650.241C1181.9 657.581 1186.72 691.99 1161.38 702.308C1128.29 715.783 1098.02 706.975 1072.07 682.415C1052.64 664.029 1049.38 646.082 1044.21 619.837C1040.41 600.591 1038.15 588.722 1042.65 569.629Z" fill="#5A5A5A"/>
<path d="M876.618 790.618C868.919 740.735 888.763 696.209 934.618 675.118C1000.25 644.93 1079.12 790.618 1079.12 790.618C1079.12 790.618 1095.81 845.021 1079.12 872.118C1067.56 890.87 1055.04 899.236 1034.12 906.118C995.111 918.948 967.337 896.93 934.618 872.118C903.491 848.514 882.577 829.225 876.618 790.618Z" fill="#5A5A5A"/>
<path d="M933.571 580.367C945.516 543.036 931.903 517.196 915.346 481.67C867.601 379.225 753.978 381.697 641.186 388.941C541.311 395.355 484.757 428.907 405.924 490.562C346.017 537.415 280.074 561.774 278.474 637.809C277.654 676.777 284.318 702.735 309.136 732.788C329.861 757.885 347.294 772.399 379.429 777.568C424.158 784.764 450.521 758.977 485.109 729.717C519.806 700.365 526.886 640.141 549.933 633.071C572.979 626.001 657.234 653.452 726.86 655.986C767.447 657.463 791.922 665.775 830.844 654.171C878.182 640.057 918.517 627.415 933.571 580.367Z" fill="#5A5A5A"/>
<path d="M328.805 1211.98C304.667 1257.3 340.977 1305.74 303.691 1341.03C260.629 1381.8 180.157 1292.19 151.887 1344.32C138.316 1369.34 143.573 1388.79 147.013 1417.04C156.76 1497.08 208.615 1534.52 276.73 1577.66C355.452 1627.52 418.129 1623.38 511.29 1621.41C580.212 1619.96 692.316 1659.64 685.189 1591.08C681.92 1559.63 662.148 1546.73 640.915 1523.31C606.298 1485.13 577.349 1472.29 530.187 1451.5C494.349 1435.71 425.642 1460.7 434.192 1422.48C440.014 1396.46 487.812 1410.23 490.385 1383.69C492.594 1360.91 456.841 1358.84 456.371 1335.95C455.741 1305.21 499.284 1309.76 514.887 1283.27C534.316 1250.28 545.459 1221.04 529.36 1186.3C519.673 1165.4 507.847 1156.1 488.245 1143.99C461.005 1127.17 439.338 1120.47 408.023 1127.12C363.677 1136.54 350.119 1171.97 328.805 1211.98Z" fill="#5A5A5A"/>
<path d="M1210.13 1536.1C1207.25 1501.34 1253.63 1458.1 1253.63 1458.1C1253.63 1458.1 1264.08 1410.78 1288.13 1399.6C1322.11 1383.8 1372.63 1445.1 1372.63 1445.1C1372.63 1445.1 1463.66 1496.42 1465.63 1551.6C1467.68 1609.17 1422.66 1637.56 1372.63 1666.1C1331.31 1689.68 1289.46 1723.39 1253.63 1692.1C1224.11 1666.33 1240.63 1592.6 1240.63 1592.6C1240.63 1592.6 1212.2 1561.09 1210.13 1536.1Z" fill="#5A5A5A"/>
</svg>