<svg width="661" height="1177" viewBox="0 0 661 1177" fill="none" xmlns="http://www.w3.org/2000/svg">
<g filter="url(#filter0_df_402_24)">
<g filter="url(#filter1_df_402_24)">
<path d="M52.8259 1073.12L100.394 821.224M126.791 757.834L211.007 679.637M291.447 303.217L231.946 634.16M359.463 713.163L254.552 678.063M517.937 487.687L397.797 695.4M510.992 460.854L317.365 292.281M319.894 262.31L550.047 107.189M645.251 163.78L582.702 109.944M676.6 166.426L799.796 78.395M543.098 470.125L695.43 426.549M725.487 413.337L958.059 229.548M403.532 736.567L512.748 829.775" stroke="white" stroke-opacity="0.25" stroke-width="2" shape-rendering="crispEdges"/>
</g>
<g filter="url(#filter2_df_402_24)">
<circle cx="526.936" cy="847.062" r="7.57505" transform="rotate(-175.176 526.936 847.062)" fill="white"/>
<circle cx="526.936" cy="847.062" r="7.07505" transform="rotate(-175.176 526.936 847.062)" stroke="white" stroke-opacity="0.25"/>
</g>
<g filter="url(#filter3_df_402_24)">
<circle cx="43.1854" cy="1097.29" r="7.57505" transform="rotate(-175.176 43.1854 1097.29)" fill="white"/>
<circle cx="43.1854" cy="1097.29" r="7.07505" transform="rotate(-175.176 43.1854 1097.29)" stroke="white" stroke-opacity="0.25"/>
</g>
<g filter="url(#filter4_df_402_24)">
<ellipse cx="524.629" cy="475.455" rx="6.4929" ry="7.57505" transform="rotate(-175.176 524.629 475.455)" fill="white"/>
<path d="M518.657 474.951C518.992 470.983 521.995 468.133 525.224 468.405C528.452 468.678 530.935 471.991 530.6 475.959C530.265 479.927 527.263 482.778 524.034 482.505C520.805 482.233 518.322 478.92 518.657 474.951Z" stroke="white" stroke-opacity="0.25"/>
</g>
<g filter="url(#filter5_df_402_24)">
<ellipse cx="661.812" cy="175.351" rx="9.73935" ry="10.8215" transform="rotate(-175.176 661.812 175.351)" fill="white"/>
<path d="M652.605 174.575C653.089 168.844 657.643 164.641 662.68 165.067C667.716 165.492 671.502 170.398 671.018 176.128C670.535 181.859 665.981 186.061 660.944 185.636C655.907 185.211 652.122 180.305 652.605 174.575Z" stroke="white" stroke-opacity="0.25"/>
</g>
<g filter="url(#filter6_df_402_24)">
<ellipse cx="110.641" cy="786.952" rx="9.73935" ry="10.8215" transform="rotate(-175.176 110.641 786.952)" fill="white"/>
<path d="M101.435 786.175C101.918 780.444 106.473 776.242 111.509 776.667C116.546 777.092 120.331 781.998 119.848 787.729C119.364 793.46 114.81 797.662 109.773 797.237C104.737 796.812 100.951 791.906 101.435 786.175Z" stroke="white" stroke-opacity="0.25"/>
</g>
<g filter="url(#filter7_df_402_24)">
<ellipse cx="568.794" cy="93.6532" rx="9.73935" ry="10.8215" transform="rotate(-175.176 568.794 93.6532)" fill="white"/>
<path d="M559.587 92.8763C560.071 87.1454 564.625 82.9432 569.662 83.3683C574.698 83.7933 578.484 88.6993 578.001 94.4302C577.517 100.161 572.963 104.363 567.926 103.938C562.889 103.513 559.104 98.6072 559.587 92.8763Z" stroke="white" stroke-opacity="0.25"/>
</g>
<g filter="url(#filter8_df_402_24)">
<ellipse cx="293.878" cy="275.706" rx="12.9858" ry="14.0679" transform="rotate(-175.176 293.878 275.706)" fill="white"/>
<path d="M281.436 274.656C282.069 267.151 288.184 261.61 295.018 262.186C301.853 262.763 306.952 269.251 306.319 276.756C305.686 284.261 299.571 289.803 292.737 289.226C285.902 288.649 280.803 282.162 281.436 274.656Z" stroke="white" stroke-opacity="0.25"/>
</g>
<g filter="url(#filter9_df_402_24)">
<ellipse cx="232.9" cy="663.691" rx="12.9858" ry="14.0679" transform="rotate(-175.176 232.9 663.691)" fill="white"/>
<path d="M220.459 662.641C221.092 655.136 227.207 649.595 234.041 650.171C240.876 650.748 245.975 657.236 245.342 664.741C244.709 672.246 238.594 677.788 231.759 677.211C224.925 676.634 219.825 670.146 220.459 662.641Z" stroke="white" stroke-opacity="0.25"/>
</g>
<g filter="url(#filter10_df_402_24)">
<ellipse cx="384.538" cy="719.928" rx="12.9858" ry="14.0679" transform="rotate(-175.176 384.538 719.928)" fill="white"/>
<path d="M372.097 718.879C372.73 711.373 378.845 705.832 385.679 706.409C392.514 706.985 397.613 713.473 396.98 720.978C396.347 728.484 390.232 734.025 383.397 733.448C376.563 732.872 371.463 726.384 372.097 718.879Z" stroke="white" stroke-opacity="0.25"/>
</g>
</g>
<defs>
<filter id="filter0_df_402_24" x="0.609924" y="23.1201" width="1010.63" height="1116.74" filterUnits="userSpaceOnUse" color-interpolation-filters="sRGB">
<feFlood flood-opacity="0" result="BackgroundImageFix"/>
<feColorMatrix in="SourceAlpha" type="matrix" values="0 0 0 0 0 0 0 0 0 0 0 0 0 0 0 0 0 0 127 0" result="hardAlpha"/>
<feOffset/>
<feGaussianBlur stdDeviation="15"/>
<feComposite in2="hardAlpha" operator="out"/>
<feColorMatrix type="matrix" values="0 0 0 0 1 0 0 0 0 1 0 0 0 0 1 0 0 0 1 0"/>
<feBlend mode="normal" in2="BackgroundImageFix" result="effect1_dropShadow_402_24"/>
<feBlend mode="normal" in="SourceGraphic" in2="effect1_dropShadow_402_24" result="shape"/>
<feGaussianBlur stdDeviation="17.5" result="effect2_foregroundBlur_402_24"/>
</filter>
<filter id="filter1_df_402_24" x="31.8433" y="57.5815" width="946.836" height="1035.72" filterUnits="userSpaceOnUse" color-interpolation-filters="sRGB">
<feFlood flood-opacity="0" result="BackgroundImageFix"/>
<feColorMatrix in="SourceAlpha" type="matrix" values="0 0 0 0 0 0 0 0 0 0 0 0 0 0 0 0 0 0 127 0" result="hardAlpha"/>
<feOffset/>
<feGaussianBlur stdDeviation="10"/>
<feComposite in2="hardAlpha" operator="out"/>
<feColorMatrix type="matrix" values="0 0 0 0 1 0 0 0 0 1 0 0 0 0 1 0 0 0 0.5 0"/>
<feBlend mode="normal" in2="BackgroundImageFix" result="effect1_dropShadow_402_24"/>
<feBlend mode="normal" in="SourceGraphic" in2="effect1_dropShadow_402_24" result="shape"/>
<feGaussianBlur stdDeviation="2" result="effect2_foregroundBlur_402_24"/>
</filter>
<filter id="filter2_df_402_24" x="509.361" y="829.486" width="35.1509" height="35.1509" filterUnits="userSpaceOnUse" color-interpolation-filters="sRGB">
<feFlood flood-opacity="0" result="BackgroundImageFix"/>
<feColorMatrix in="SourceAlpha" type="matrix" values="0 0 0 0 0 0 0 0 0 0 0 0 0 0 0 0 0 0 127 0" result="hardAlpha"/>
<feOffset/>
<feGaussianBlur stdDeviation="5"/>
<feComposite in2="hardAlpha" operator="out"/>
<feColorMatrix type="matrix" values="0 0 0 0 1 0 0 0 0 1 0 0 0 0 1 0 0 0 0.5 0"/>
<feBlend mode="normal" in2="BackgroundImageFix" result="effect1_dropShadow_402_24"/>
<feBlend mode="normal" in="SourceGraphic" in2="effect1_dropShadow_402_24" result="shape"/>
<feGaussianBlur stdDeviation="1" result="effect2_foregroundBlur_402_24"/>
</filter>
<filter id="filter3_df_402_24" x="25.6099" y="1079.71" width="35.151" height="35.1509" filterUnits="userSpaceOnUse" color-interpolation-filters="sRGB">
<feFlood flood-opacity="0" result="BackgroundImageFix"/>
<feColorMatrix in="SourceAlpha" type="matrix" values="0 0 0 0 0 0 0 0 0 0 0 0 0 0 0 0 0 0 127 0" result="hardAlpha"/>
<feOffset/>
<feGaussianBlur stdDeviation="5"/>
<feComposite in2="hardAlpha" operator="out"/>
<feColorMatrix type="matrix" values="0 0 0 0 1 0 0 0 0 1 0 0 0 0 1 0 0 0 0.5 0"/>
<feBlend mode="normal" in2="BackgroundImageFix" result="effect1_dropShadow_402_24"/>
<feBlend mode="normal" in="SourceGraphic" in2="effect1_dropShadow_402_24" result="shape"/>
<feGaussianBlur stdDeviation="1" result="effect2_foregroundBlur_402_24"/>
</filter>
<filter id="filter4_df_402_24" x="508.127" y="457.887" width="33.0034" height="35.1367" filterUnits="userSpaceOnUse" color-interpolation-filters="sRGB">
<feFlood flood-opacity="0" result="BackgroundImageFix"/>
<feColorMatrix in="SourceAlpha" type="matrix" values="0 0 0 0 0 0 0 0 0 0 0 0 0 0 0 0 0 0 127 0" result="hardAlpha"/>
<feOffset/>
<feGaussianBlur stdDeviation="5"/>
<feComposite in2="hardAlpha" operator="out"/>
<feColorMatrix type="matrix" values="0 0 0 0 1 0 0 0 0 1 0 0 0 0 1 0 0 0 0.5 0"/>
<feBlend mode="normal" in2="BackgroundImageFix" result="effect1_dropShadow_402_24"/>
<feBlend mode="normal" in="SourceGraphic" in2="effect1_dropShadow_402_24" result="shape"/>
<feGaussianBlur stdDeviation="1" result="effect2_foregroundBlur_402_24"/>
</filter>
<filter id="filter5_df_402_24" x="642.064" y="154.537" width="39.4962" height="41.6294" filterUnits="userSpaceOnUse" color-interpolation-filters="sRGB">
<feFlood flood-opacity="0" result="BackgroundImageFix"/>
<feColorMatrix in="SourceAlpha" type="matrix" values="0 0 0 0 0 0 0 0 0 0 0 0 0 0 0 0 0 0 127 0" result="hardAlpha"/>
<feOffset/>
<feGaussianBlur stdDeviation="5"/>
<feComposite in2="hardAlpha" operator="out"/>
<feColorMatrix type="matrix" values="0 0 0 0 1 0 0 0 0 1 0 0 0 0 1 0 0 0 0.5 0"/>
<feBlend mode="normal" in2="BackgroundImageFix" result="effect1_dropShadow_402_24"/>
<feBlend mode="normal" in="SourceGraphic" in2="effect1_dropShadow_402_24" result="shape"/>
<feGaussianBlur stdDeviation="1" result="effect2_foregroundBlur_402_24"/>
</filter>
<filter id="filter6_df_402_24" x="90.8932" y="766.137" width="39.4962" height="41.6294" filterUnits="userSpaceOnUse" color-interpolation-filters="sRGB">
<feFlood flood-opacity="0" result="BackgroundImageFix"/>
<feColorMatrix in="SourceAlpha" type="matrix" values="0 0 0 0 0 0 0 0 0 0 0 0 0 0 0 0 0 0 127 0" result="hardAlpha"/>
<feOffset/>
<feGaussianBlur stdDeviation="5"/>
<feComposite in2="hardAlpha" operator="out"/>
<feColorMatrix type="matrix" values="0 0 0 0 1 0 0 0 0 1 0 0 0 0 1 0 0 0 0.5 0"/>
<feBlend mode="normal" in2="BackgroundImageFix" result="effect1_dropShadow_402_24"/>
<feBlend mode="normal" in="SourceGraphic" in2="effect1_dropShadow_402_24" result="shape"/>
<feGaussianBlur stdDeviation="1" result="effect2_foregroundBlur_402_24"/>
</filter>
<filter id="filter7_df_402_24" x="549.046" y="72.8384" width="39.4962" height="41.6294" filterUnits="userSpaceOnUse" color-interpolation-filters="sRGB">
<feFlood flood-opacity="0" result="BackgroundImageFix"/>
<feColorMatrix in="SourceAlpha" type="matrix" values="0 0 0 0 0 0 0 0 0 0 0 0 0 0 0 0 0 0 127 0" result="hardAlpha"/>
<feOffset/>
<feGaussianBlur stdDeviation="5"/>
<feComposite in2="hardAlpha" operator="out"/>
<feColorMatrix type="matrix" values="0 0 0 0 1 0 0 0 0 1 0 0 0 0 1 0 0 0 0.5 0"/>
<feBlend mode="normal" in2="BackgroundImageFix" result="effect1_dropShadow_402_24"/>
<feBlend mode="normal" in="SourceGraphic" in2="effect1_dropShadow_402_24" result="shape"/>
<feGaussianBlur stdDeviation="1" result="effect2_foregroundBlur_402_24"/>
</filter>
<filter id="filter8_df_402_24" x="270.883" y="251.645" width="45.9893" height="48.1226" filterUnits="userSpaceOnUse" color-interpolation-filters="sRGB">
<feFlood flood-opacity="0" result="BackgroundImageFix"/>
<feColorMatrix in="SourceAlpha" type="matrix" values="0 0 0 0 0 0 0 0 0 0 0 0 0 0 0 0 0 0 127 0" result="hardAlpha"/>
<feOffset/>
<feGaussianBlur stdDeviation="5"/>
<feComposite in2="hardAlpha" operator="out"/>
<feColorMatrix type="matrix" values="0 0 0 0 1 0 0 0 0 1 0 0 0 0 1 0 0 0 0.5 0"/>
<feBlend mode="normal" in2="BackgroundImageFix" result="effect1_dropShadow_402_24"/>
<feBlend mode="normal" in="SourceGraphic" in2="effect1_dropShadow_402_24" result="shape"/>
<feGaussianBlur stdDeviation="2.5" result="effect2_foregroundBlur_402_24"/>
</filter>
<filter id="filter9_df_402_24" x="209.906" y="639.63" width="45.9893" height="48.1226" filterUnits="userSpaceOnUse" color-interpolation-filters="sRGB">
<feFlood flood-opacity="0" result="BackgroundImageFix"/>
<feColorMatrix in="SourceAlpha" type="matrix" values="0 0 0 0 0 0 0 0 0 0 0 0 0 0 0 0 0 0 127 0" result="hardAlpha"/>
<feOffset/>
<feGaussianBlur stdDeviation="5"/>
<feComposite in2="hardAlpha" operator="out"/>
<feColorMatrix type="matrix" values="0 0 0 0 1 0 0 0 0 1 0 0 0 0 1 0 0 0 0.5 0"/>
<feBlend mode="normal" in2="BackgroundImageFix" result="effect1_dropShadow_402_24"/>
<feBlend mode="normal" in="SourceGraphic" in2="effect1_dropShadow_402_24" result="shape"/>
<feGaussianBlur stdDeviation="2.5" result="effect2_foregroundBlur_402_24"/>
</filter>
<filter id="filter10_df_402_24" x="361.544" y="695.867" width="45.9893" height="48.1226" filterUnits="userSpaceOnUse" color-interpolation-filters="sRGB">
<feFlood flood-opacity="0" result="BackgroundImageFix"/>
<feColorMatrix in="SourceAlpha" type="matrix" values="0 0 0 0 0 0 0 0 0 0 0 0 0 0 0 0 0 0 127 0" result="hardAlpha"/>
<feOffset/>
<feGaussianBlur stdDeviation="5"/>
<feComposite in2="hardAlpha" operator="out"/>
<feColorMatrix type="matrix" values="0 0 0 0 1 0 0 0 0 1 0 0 0 0 1 0 0 0 0.5 0"/>
<feBlend mode="normal" in2="BackgroundImageFix" result="effect1_dropShadow_402_24"/>
<feBlend mode="normal" in="SourceGraphic" in2="effect1_dropShadow_402_24" result="shape"/>
<feGaussianBlur stdDeviation="2.5" result="effect2_foregroundBlur_402_24"/>
</filter>
</defs>
</svg>
