<svg width="1658" height="2420" viewBox="0 0 1658 2420" fill="none" xmlns="http://www.w3.org/2000/svg">
<g filter="url(#filter0_f_1_4)">
<ellipse cx="130.674" cy="6.36356" rx="130.674" ry="6.36356" transform="matrix(0.871419 0.49054 -0.738504 0.674249 101.571 28.543)" fill="#BAB8FF"/>
<path d="M804.37 430.23L268.34 135.207L272.145 125.338L804.37 430.23Z" fill="#BAB8FF"/>
</g>
<path d="M11.7192 146.272C11.7442 146.023 11.8451 145.788 12.0083 145.599C12.1715 145.41 12.3891 145.275 12.6314 145.214C12.8737 145.152 13.1291 145.167 13.3628 145.256C13.5965 145.345 13.7971 145.503 13.9375 145.71L15.8465 148.506C17.3434 150.698 19.3002 152.537 21.5807 153.896C23.8611 155.254 26.4102 156.099 29.0506 156.372L32.4161 156.719C32.6648 156.744 32.8999 156.845 33.0892 157.008C33.2786 157.172 33.4131 157.389 33.4745 157.632C33.5359 157.874 33.5212 158.129 33.4324 158.363C33.3436 158.597 33.185 158.797 32.9782 158.938L30.1843 160.846C27.9923 162.343 26.153 164.3 24.7946 166.58C23.4362 168.861 22.5914 171.41 22.3189 174.05L21.9712 177.416C21.9462 177.664 21.8453 177.899 21.6821 178.089C21.5189 178.278 21.3013 178.413 21.059 178.474C20.8167 178.535 20.5613 178.521 20.3276 178.432C20.0939 178.343 19.8933 178.185 19.7529 177.978L17.8445 175.184C16.3476 172.992 14.3907 171.153 12.1103 169.794C9.82992 168.436 7.28075 167.591 4.64043 167.318L1.27254 166.971C1.0238 166.946 0.78877 166.845 0.599402 166.682C0.410033 166.519 0.275507 166.301 0.214103 166.059C0.152701 165.817 0.1674 165.561 0.256203 165.328C0.345006 165.094 0.503607 164.893 0.710451 164.753L3.50669 162.844C5.69868 161.347 7.53795 159.39 8.89635 157.11C10.2547 154.829 11.0996 152.28 11.3721 149.64L11.7192 146.272Z" fill="#FDFDFD"/>
<g filter="url(#filter1_f_1_4)">
<ellipse cx="97.8798" cy="6.36356" rx="97.8798" ry="6.36356" transform="matrix(0.871419 0.49054 -0.738504 0.674249 600.112 223.41)" fill="#FFF7E2"/>
<path d="M1125.5 525.232L722.854 305.291L727.746 296.034L1125.5 525.232Z" fill="#FFF7E2"/>
</g>
<g filter="url(#filter2_f_1_4)">
<ellipse cx="127.579" cy="6.36356" rx="127.579" ry="6.36356" transform="matrix(0.871419 0.49054 -0.738504 0.674249 687.638 425.43)" fill="white"/>
<path d="M1373.7 817.695L850.253 529.757L854.16 519.945L1373.7 817.695Z" fill="white"/>
</g>
<path d="M268.719 464.272C268.744 464.023 268.845 463.788 269.008 463.599C269.172 463.41 269.389 463.275 269.631 463.214C269.874 463.152 270.129 463.167 270.363 463.256C270.596 463.345 270.797 463.503 270.938 463.71L272.847 466.506C274.343 468.698 276.3 470.537 278.581 471.896C280.861 473.254 283.41 474.099 286.051 474.372L289.416 474.719C289.665 474.744 289.9 474.845 290.089 475.008C290.279 475.172 290.413 475.389 290.475 475.632C290.536 475.874 290.521 476.129 290.432 476.363C290.344 476.597 290.185 476.797 289.978 476.938L287.184 478.846C284.992 480.343 283.153 482.3 281.795 484.58C280.436 486.861 279.591 489.41 279.319 492.05L278.971 495.416C278.946 495.664 278.845 495.899 278.682 496.089C278.519 496.278 278.301 496.413 278.059 496.474C277.817 496.535 277.561 496.521 277.328 496.432C277.094 496.343 276.893 496.185 276.753 495.978L274.844 493.184C273.348 490.992 271.391 489.153 269.11 487.794C266.83 486.436 264.281 485.591 261.64 485.318L258.273 484.971C258.024 484.946 257.789 484.845 257.599 484.682C257.41 484.519 257.276 484.301 257.214 484.059C257.153 483.817 257.167 483.561 257.256 483.328C257.345 483.094 257.504 482.893 257.71 482.753L260.507 480.844C262.699 479.347 264.538 477.39 265.896 475.11C267.255 472.829 268.1 470.28 268.372 467.64L268.719 464.272Z" fill="#FDFDFD"/>
<path d="M1422.72 589.272C1422.74 589.023 1422.85 588.788 1423.01 588.599C1423.17 588.41 1423.39 588.275 1423.63 588.214C1423.87 588.152 1424.13 588.167 1424.36 588.256C1424.6 588.345 1424.8 588.503 1424.94 588.71L1426.85 591.506C1428.34 593.698 1430.3 595.537 1432.58 596.896C1434.86 598.254 1437.41 599.099 1440.05 599.372L1443.42 599.719C1443.66 599.744 1443.9 599.845 1444.09 600.008C1444.28 600.172 1444.41 600.389 1444.47 600.632C1444.54 600.874 1444.52 601.129 1444.43 601.363C1444.34 601.597 1444.19 601.797 1443.98 601.938L1441.18 603.846C1438.99 605.343 1437.15 607.3 1435.79 609.58C1434.44 611.861 1433.59 614.41 1433.32 617.05L1432.97 620.416C1432.95 620.664 1432.85 620.899 1432.68 621.089C1432.52 621.278 1432.3 621.413 1432.06 621.474C1431.82 621.535 1431.56 621.521 1431.33 621.432C1431.09 621.343 1430.89 621.185 1430.75 620.978L1428.84 618.184C1427.35 615.992 1425.39 614.153 1423.11 612.794C1420.83 611.436 1418.28 610.591 1415.64 610.318L1412.27 609.971C1412.02 609.946 1411.79 609.845 1411.6 609.682C1411.41 609.519 1411.28 609.301 1411.21 609.059C1411.15 608.817 1411.17 608.561 1411.26 608.328C1411.35 608.094 1411.5 607.893 1411.71 607.753L1414.51 605.844C1416.7 604.347 1418.54 602.39 1419.9 600.11C1421.25 597.829 1422.1 595.28 1422.37 592.64L1422.72 589.272Z" fill="#FDFDFD"/>
<g filter="url(#filter3_f_1_4)">
<path d="M1493.72 1056.27C1493.74 1056.02 1493.85 1055.79 1494.01 1055.6C1494.17 1055.41 1494.39 1055.28 1494.63 1055.21C1494.87 1055.15 1495.13 1055.17 1495.36 1055.26C1495.6 1055.34 1495.8 1055.5 1495.94 1055.71L1497.85 1058.51C1499.34 1060.7 1501.3 1062.54 1503.58 1063.9C1505.86 1065.25 1508.41 1066.1 1511.05 1066.37L1514.42 1066.72C1514.66 1066.74 1514.9 1066.85 1515.09 1067.01C1515.28 1067.17 1515.41 1067.39 1515.47 1067.63C1515.54 1067.87 1515.52 1068.13 1515.43 1068.36C1515.34 1068.6 1515.19 1068.8 1514.98 1068.94L1512.18 1070.85C1509.99 1072.34 1508.15 1074.3 1506.79 1076.58C1505.44 1078.86 1504.59 1081.41 1504.32 1084.05L1503.97 1087.42C1503.95 1087.66 1503.85 1087.9 1503.68 1088.09C1503.52 1088.28 1503.3 1088.41 1503.06 1088.47C1502.82 1088.54 1502.56 1088.52 1502.33 1088.43C1502.09 1088.34 1501.89 1088.18 1501.75 1087.98L1499.84 1085.18C1498.35 1082.99 1496.39 1081.15 1494.11 1079.79C1491.83 1078.44 1489.28 1077.59 1486.64 1077.32L1483.27 1076.97C1483.02 1076.95 1482.79 1076.85 1482.6 1076.68C1482.41 1076.52 1482.28 1076.3 1482.21 1076.06C1482.15 1075.82 1482.17 1075.56 1482.26 1075.33C1482.35 1075.09 1482.5 1074.89 1482.71 1074.75L1485.51 1072.84C1487.7 1071.35 1489.54 1069.39 1490.9 1067.11C1492.25 1064.83 1493.1 1062.28 1493.37 1059.64L1493.72 1056.27Z" fill="#FDFDFD"/>
</g>
<g filter="url(#filter4_df_1_4)">
<g filter="url(#filter5_df_1_4)">
<path d="M756.826 2316.12L804.394 2064.22M830.792 2000.83L915.007 1922.64M995.447 1546.22L935.946 1877.16M1063.46 1956.16L958.552 1921.06M1221.94 1730.69L1101.8 1938.4M1214.99 1703.85L1021.36 1535.28M1023.89 1505.31L1254.05 1350.19M1349.25 1406.78L1286.7 1352.94M1380.6 1409.43L1503.8 1321.4M1247.1 1713.13L1399.43 1669.55M1429.49 1656.34L1662.06 1472.55M1107.53 1979.57L1216.75 2072.77" stroke="white" stroke-opacity="0.25" stroke-width="2" shape-rendering="crispEdges"/>
</g>
<g filter="url(#filter6_d_1_4)">
<circle cx="1672.66" cy="1462.71" r="7.57505" transform="rotate(-175.176 1672.66 1462.71)" fill="white"/>
<circle cx="1672.66" cy="1462.71" r="7.07505" transform="rotate(-175.176 1672.66 1462.71)" stroke="white" stroke-opacity="0.25"/>
</g>
<g filter="url(#filter7_df_1_4)">
<circle cx="1520.59" cy="1308.7" r="7.57505" transform="rotate(-175.176 1520.59 1308.7)" fill="white"/>
<circle cx="1520.59" cy="1308.7" r="7.07505" transform="rotate(-175.176 1520.59 1308.7)" stroke="white" stroke-opacity="0.25"/>
</g>
<g filter="url(#filter8_df_1_4)">
<circle cx="1414.53" cy="1664.64" r="7.57505" transform="rotate(-175.176 1414.53 1664.64)" fill="white"/>
<circle cx="1414.53" cy="1664.64" r="7.07505" transform="rotate(-175.176 1414.53 1664.64)" stroke="white" stroke-opacity="0.25"/>
</g>
<g filter="url(#filter9_df_1_4)">
<circle cx="1230.94" cy="2090.06" r="7.57505" transform="rotate(-175.176 1230.94 2090.06)" fill="white"/>
<circle cx="1230.94" cy="2090.06" r="7.07505" transform="rotate(-175.176 1230.94 2090.06)" stroke="white" stroke-opacity="0.25"/>
</g>
<g filter="url(#filter10_df_1_4)">
<circle cx="747.186" cy="2340.29" r="7.57505" transform="rotate(-175.176 747.186 2340.29)" fill="white"/>
<circle cx="747.186" cy="2340.29" r="7.07505" transform="rotate(-175.176 747.186 2340.29)" stroke="white" stroke-opacity="0.25"/>
</g>
<g filter="url(#filter11_df_1_4)">
<ellipse cx="1228.63" cy="1718.45" rx="6.4929" ry="7.57505" transform="rotate(-175.176 1228.63 1718.45)" fill="white"/>
<path d="M1222.66 1717.95C1222.99 1713.98 1225.99 1711.13 1229.22 1711.4C1232.45 1711.68 1234.94 1714.99 1234.6 1718.96C1234.27 1722.93 1231.26 1725.78 1228.03 1725.5C1224.81 1725.23 1222.32 1721.92 1222.66 1717.95Z" stroke="white" stroke-opacity="0.25"/>
</g>
<g filter="url(#filter12_df_1_4)">
<ellipse cx="1365.81" cy="1418.35" rx="9.73935" ry="10.8215" transform="rotate(-175.176 1365.81 1418.35)" fill="white"/>
<path d="M1356.61 1417.57C1357.09 1411.84 1361.64 1407.64 1366.68 1408.07C1371.72 1408.49 1375.5 1413.4 1375.02 1419.13C1374.53 1424.86 1369.98 1429.06 1364.94 1428.64C1359.91 1428.21 1356.12 1423.3 1356.61 1417.57Z" stroke="white" stroke-opacity="0.25"/>
</g>
<g filter="url(#filter13_df_1_4)">
<ellipse cx="814.641" cy="2029.95" rx="9.73935" ry="10.8215" transform="rotate(-175.176 814.641 2029.95)" fill="white"/>
<path d="M805.435 2029.17C805.918 2023.44 810.473 2019.24 815.509 2019.67C820.546 2020.09 824.332 2025 823.848 2030.73C823.364 2036.46 818.81 2040.66 813.773 2040.24C808.737 2039.81 804.951 2034.91 805.435 2029.17Z" stroke="white" stroke-opacity="0.25"/>
</g>
<g filter="url(#filter14_df_1_4)">
<ellipse cx="1272.79" cy="1336.65" rx="9.73935" ry="10.8215" transform="rotate(-175.176 1272.79 1336.65)" fill="white"/>
<path d="M1263.59 1335.88C1264.07 1330.15 1268.63 1325.94 1273.66 1326.37C1278.7 1326.79 1282.48 1331.7 1282 1337.43C1281.52 1343.16 1276.96 1347.36 1271.93 1346.94C1266.89 1346.51 1263.1 1341.61 1263.59 1335.88Z" stroke="white" stroke-opacity="0.25"/>
</g>
<g filter="url(#filter15_df_1_4)">
<ellipse cx="997.878" cy="1518.71" rx="12.9858" ry="14.0679" transform="rotate(-175.176 997.878 1518.71)" fill="white"/>
<path d="M985.436 1517.66C986.069 1510.15 992.184 1504.61 999.019 1505.19C1005.85 1505.76 1010.95 1512.25 1010.32 1519.76C1009.69 1527.26 1003.57 1532.8 996.737 1532.23C989.902 1531.65 984.803 1525.16 985.436 1517.66Z" stroke="white" stroke-opacity="0.25"/>
</g>
<g filter="url(#filter16_df_1_4)">
<ellipse cx="936.9" cy="1906.69" rx="12.9858" ry="14.0679" transform="rotate(-175.176 936.9 1906.69)" fill="white"/>
<path d="M924.459 1905.64C925.092 1898.14 931.207 1892.6 938.041 1893.17C944.876 1893.75 949.975 1900.24 949.342 1907.74C948.709 1915.25 942.594 1920.79 935.76 1920.21C928.925 1919.63 923.826 1913.15 924.459 1905.64Z" stroke="white" stroke-opacity="0.25"/>
</g>
<g filter="url(#filter17_df_1_4)">
<ellipse cx="1088.54" cy="1962.93" rx="12.9858" ry="14.0679" transform="rotate(-175.176 1088.54 1962.93)" fill="white"/>
<path d="M1076.1 1961.88C1076.73 1954.37 1082.84 1948.83 1089.68 1949.41C1096.51 1949.98 1101.61 1956.47 1100.98 1963.98C1100.35 1971.48 1094.23 1977.02 1087.4 1976.45C1080.56 1975.87 1075.46 1969.38 1076.1 1961.88Z" stroke="white" stroke-opacity="0.25"/>
</g>
</g>
<g filter="url(#filter18_f_1_4)">
<path d="M111.719 1610.27C111.744 1610.02 111.845 1609.79 112.008 1609.6C112.172 1609.41 112.389 1609.28 112.631 1609.21C112.874 1609.15 113.129 1609.17 113.363 1609.26C113.596 1609.34 113.797 1609.5 113.938 1609.71L115.847 1612.51C117.343 1614.7 119.3 1616.54 121.581 1617.9C123.861 1619.25 126.41 1620.1 129.051 1620.37L132.416 1620.72C132.665 1620.74 132.9 1620.85 133.089 1621.01C133.279 1621.17 133.413 1621.39 133.475 1621.63C133.536 1621.87 133.521 1622.13 133.432 1622.36C133.344 1622.6 133.185 1622.8 132.978 1622.94L130.184 1624.85C127.992 1626.34 126.153 1628.3 124.795 1630.58C123.436 1632.86 122.591 1635.41 122.319 1638.05L121.971 1641.42C121.946 1641.66 121.845 1641.9 121.682 1642.09C121.519 1642.28 121.301 1642.41 121.059 1642.47C120.817 1642.54 120.561 1642.52 120.328 1642.43C120.094 1642.34 119.893 1642.18 119.753 1641.98L117.844 1639.18C116.348 1636.99 114.391 1635.15 112.11 1633.79C109.83 1632.44 107.281 1631.59 104.64 1631.32L101.273 1630.97C101.024 1630.95 100.789 1630.85 100.599 1630.68C100.41 1630.52 100.276 1630.3 100.214 1630.06C100.153 1629.82 100.167 1629.56 100.256 1629.33C100.345 1629.09 100.504 1628.89 100.71 1628.75L103.507 1626.84C105.699 1625.35 107.538 1623.39 108.896 1621.11C110.255 1618.83 111.1 1616.28 111.372 1613.64L111.719 1610.27Z" fill="#FDFDFD"/>
</g>
<defs>
<filter id="filter0_f_1_4" x="64.1723" y="0.0875015" width="772.798" height="462.743" filterUnits="userSpaceOnUse" color-interpolation-filters="sRGB">
<feFlood flood-opacity="0" result="BackgroundImageFix"/>
<feBlend mode="normal" in="SourceGraphic" in2="BackgroundImageFix" result="shape"/>
<feGaussianBlur stdDeviation="16.3" result="effect1_foregroundBlur_1_4"/>
</filter>
<filter id="filter1_f_1_4" x="562.68" y="194.907" width="595.425" height="362.926" filterUnits="userSpaceOnUse" color-interpolation-filters="sRGB">
<feFlood flood-opacity="0" result="BackgroundImageFix"/>
<feBlend mode="normal" in="SourceGraphic" in2="BackgroundImageFix" result="shape"/>
<feGaussianBlur stdDeviation="16.3" result="effect1_foregroundBlur_1_4"/>
</filter>
<filter id="filter2_f_1_4" x="650.238" y="396.971" width="756.059" height="453.323" filterUnits="userSpaceOnUse" color-interpolation-filters="sRGB">
<feFlood flood-opacity="0" result="BackgroundImageFix"/>
<feBlend mode="normal" in="SourceGraphic" in2="BackgroundImageFix" result="shape"/>
<feGaussianBlur stdDeviation="16.3" result="effect1_foregroundBlur_1_4"/>
</filter>
<filter id="filter3_f_1_4" x="1474.18" y="1047.18" width="49.335" height="49.335" filterUnits="userSpaceOnUse" color-interpolation-filters="sRGB">
<feFlood flood-opacity="0" result="BackgroundImageFix"/>
<feBlend mode="normal" in="SourceGraphic" in2="BackgroundImageFix" result="shape"/>
<feGaussianBlur stdDeviation="4" result="effect1_foregroundBlur_1_4"/>
</filter>
<filter id="filter4_df_1_4" x="704.61" y="1266.12" width="1010.63" height="1116.74" filterUnits="userSpaceOnUse" color-interpolation-filters="sRGB">
<feFlood flood-opacity="0" result="BackgroundImageFix"/>
<feColorMatrix in="SourceAlpha" type="matrix" values="0 0 0 0 0 0 0 0 0 0 0 0 0 0 0 0 0 0 127 0" result="hardAlpha"/>
<feOffset/>
<feGaussianBlur stdDeviation="15"/>
<feComposite in2="hardAlpha" operator="out"/>
<feColorMatrix type="matrix" values="0 0 0 0 1 0 0 0 0 1 0 0 0 0 1 0 0 0 1 0"/>
<feBlend mode="normal" in2="BackgroundImageFix" result="effect1_dropShadow_1_4"/>
<feBlend mode="normal" in="SourceGraphic" in2="effect1_dropShadow_1_4" result="shape"/>
<feGaussianBlur stdDeviation="17.5" result="effect2_foregroundBlur_1_4"/>
</filter>
<filter id="filter5_df_1_4" x="735.843" y="1300.58" width="946.836" height="1035.72" filterUnits="userSpaceOnUse" color-interpolation-filters="sRGB">
<feFlood flood-opacity="0" result="BackgroundImageFix"/>
<feColorMatrix in="SourceAlpha" type="matrix" values="0 0 0 0 0 0 0 0 0 0 0 0 0 0 0 0 0 0 127 0" result="hardAlpha"/>
<feOffset/>
<feGaussianBlur stdDeviation="10"/>
<feComposite in2="hardAlpha" operator="out"/>
<feColorMatrix type="matrix" values="0 0 0 0 1 0 0 0 0 1 0 0 0 0 1 0 0 0 0.5 0"/>
<feBlend mode="normal" in2="BackgroundImageFix" result="effect1_dropShadow_1_4"/>
<feBlend mode="normal" in="SourceGraphic" in2="effect1_dropShadow_1_4" result="shape"/>
<feGaussianBlur stdDeviation="2" result="effect2_foregroundBlur_1_4"/>
</filter>
<filter id="filter6_d_1_4" x="1655.09" y="1445.13" width="35.1509" height="35.1514" filterUnits="userSpaceOnUse" color-interpolation-filters="sRGB">
<feFlood flood-opacity="0" result="BackgroundImageFix"/>
<feColorMatrix in="SourceAlpha" type="matrix" values="0 0 0 0 0 0 0 0 0 0 0 0 0 0 0 0 0 0 127 0" result="hardAlpha"/>
<feOffset/>
<feGaussianBlur stdDeviation="5"/>
<feComposite in2="hardAlpha" operator="out"/>
<feColorMatrix type="matrix" values="0 0 0 0 1 0 0 0 0 1 0 0 0 0 1 0 0 0 0.5 0"/>
<feBlend mode="normal" in2="BackgroundImageFix" result="effect1_dropShadow_1_4"/>
<feBlend mode="normal" in="SourceGraphic" in2="effect1_dropShadow_1_4" result="shape"/>
</filter>
<filter id="filter7_df_1_4" x="1503.01" y="1291.12" width="35.1509" height="35.1514" filterUnits="userSpaceOnUse" color-interpolation-filters="sRGB">
<feFlood flood-opacity="0" result="BackgroundImageFix"/>
<feColorMatrix in="SourceAlpha" type="matrix" values="0 0 0 0 0 0 0 0 0 0 0 0 0 0 0 0 0 0 127 0" result="hardAlpha"/>
<feOffset/>
<feGaussianBlur stdDeviation="5"/>
<feComposite in2="hardAlpha" operator="out"/>
<feColorMatrix type="matrix" values="0 0 0 0 1 0 0 0 0 1 0 0 0 0 1 0 0 0 0.5 0"/>
<feBlend mode="normal" in2="BackgroundImageFix" result="effect1_dropShadow_1_4"/>
<feBlend mode="normal" in="SourceGraphic" in2="effect1_dropShadow_1_4" result="shape"/>
<feGaussianBlur stdDeviation="1" result="effect2_foregroundBlur_1_4"/>
</filter>
<filter id="filter8_df_1_4" x="1396.96" y="1647.06" width="35.1509" height="35.1514" filterUnits="userSpaceOnUse" color-interpolation-filters="sRGB">
<feFlood flood-opacity="0" result="BackgroundImageFix"/>
<feColorMatrix in="SourceAlpha" type="matrix" values="0 0 0 0 0 0 0 0 0 0 0 0 0 0 0 0 0 0 127 0" result="hardAlpha"/>
<feOffset/>
<feGaussianBlur stdDeviation="5"/>
<feComposite in2="hardAlpha" operator="out"/>
<feColorMatrix type="matrix" values="0 0 0 0 1 0 0 0 0 1 0 0 0 0 1 0 0 0 0.5 0"/>
<feBlend mode="normal" in2="BackgroundImageFix" result="effect1_dropShadow_1_4"/>
<feBlend mode="normal" in="SourceGraphic" in2="effect1_dropShadow_1_4" result="shape"/>
<feGaussianBlur stdDeviation="1" result="effect2_foregroundBlur_1_4"/>
</filter>
<filter id="filter9_df_1_4" x="1213.36" y="2072.49" width="35.1509" height="35.1514" filterUnits="userSpaceOnUse" color-interpolation-filters="sRGB">
<feFlood flood-opacity="0" result="BackgroundImageFix"/>
<feColorMatrix in="SourceAlpha" type="matrix" values="0 0 0 0 0 0 0 0 0 0 0 0 0 0 0 0 0 0 127 0" result="hardAlpha"/>
<feOffset/>
<feGaussianBlur stdDeviation="5"/>
<feComposite in2="hardAlpha" operator="out"/>
<feColorMatrix type="matrix" values="0 0 0 0 1 0 0 0 0 1 0 0 0 0 1 0 0 0 0.5 0"/>
<feBlend mode="normal" in2="BackgroundImageFix" result="effect1_dropShadow_1_4"/>
<feBlend mode="normal" in="SourceGraphic" in2="effect1_dropShadow_1_4" result="shape"/>
<feGaussianBlur stdDeviation="1" result="effect2_foregroundBlur_1_4"/>
</filter>
<filter id="filter10_df_1_4" x="729.61" y="2322.71" width="35.151" height="35.1514" filterUnits="userSpaceOnUse" color-interpolation-filters="sRGB">
<feFlood flood-opacity="0" result="BackgroundImageFix"/>
<feColorMatrix in="SourceAlpha" type="matrix" values="0 0 0 0 0 0 0 0 0 0 0 0 0 0 0 0 0 0 127 0" result="hardAlpha"/>
<feOffset/>
<feGaussianBlur stdDeviation="5"/>
<feComposite in2="hardAlpha" operator="out"/>
<feColorMatrix type="matrix" values="0 0 0 0 1 0 0 0 0 1 0 0 0 0 1 0 0 0 0.5 0"/>
<feBlend mode="normal" in2="BackgroundImageFix" result="effect1_dropShadow_1_4"/>
<feBlend mode="normal" in="SourceGraphic" in2="effect1_dropShadow_1_4" result="shape"/>
<feGaussianBlur stdDeviation="1" result="effect2_foregroundBlur_1_4"/>
</filter>
<filter id="filter11_df_1_4" x="1212.13" y="1700.89" width="33.0034" height="35.1357" filterUnits="userSpaceOnUse" color-interpolation-filters="sRGB">
<feFlood flood-opacity="0" result="BackgroundImageFix"/>
<feColorMatrix in="SourceAlpha" type="matrix" values="0 0 0 0 0 0 0 0 0 0 0 0 0 0 0 0 0 0 127 0" result="hardAlpha"/>
<feOffset/>
<feGaussianBlur stdDeviation="5"/>
<feComposite in2="hardAlpha" operator="out"/>
<feColorMatrix type="matrix" values="0 0 0 0 1 0 0 0 0 1 0 0 0 0 1 0 0 0 0.5 0"/>
<feBlend mode="normal" in2="BackgroundImageFix" result="effect1_dropShadow_1_4"/>
<feBlend mode="normal" in="SourceGraphic" in2="effect1_dropShadow_1_4" result="shape"/>
<feGaussianBlur stdDeviation="1" result="effect2_foregroundBlur_1_4"/>
</filter>
<filter id="filter12_df_1_4" x="1346.06" y="1397.54" width="39.4962" height="41.6299" filterUnits="userSpaceOnUse" color-interpolation-filters="sRGB">
<feFlood flood-opacity="0" result="BackgroundImageFix"/>
<feColorMatrix in="SourceAlpha" type="matrix" values="0 0 0 0 0 0 0 0 0 0 0 0 0 0 0 0 0 0 127 0" result="hardAlpha"/>
<feOffset/>
<feGaussianBlur stdDeviation="5"/>
<feComposite in2="hardAlpha" operator="out"/>
<feColorMatrix type="matrix" values="0 0 0 0 1 0 0 0 0 1 0 0 0 0 1 0 0 0 0.5 0"/>
<feBlend mode="normal" in2="BackgroundImageFix" result="effect1_dropShadow_1_4"/>
<feBlend mode="normal" in="SourceGraphic" in2="effect1_dropShadow_1_4" result="shape"/>
<feGaussianBlur stdDeviation="1" result="effect2_foregroundBlur_1_4"/>
</filter>
<filter id="filter13_df_1_4" x="794.893" y="2009.14" width="39.4962" height="41.6299" filterUnits="userSpaceOnUse" color-interpolation-filters="sRGB">
<feFlood flood-opacity="0" result="BackgroundImageFix"/>
<feColorMatrix in="SourceAlpha" type="matrix" values="0 0 0 0 0 0 0 0 0 0 0 0 0 0 0 0 0 0 127 0" result="hardAlpha"/>
<feOffset/>
<feGaussianBlur stdDeviation="5"/>
<feComposite in2="hardAlpha" operator="out"/>
<feColorMatrix type="matrix" values="0 0 0 0 1 0 0 0 0 1 0 0 0 0 1 0 0 0 0.5 0"/>
<feBlend mode="normal" in2="BackgroundImageFix" result="effect1_dropShadow_1_4"/>
<feBlend mode="normal" in="SourceGraphic" in2="effect1_dropShadow_1_4" result="shape"/>
<feGaussianBlur stdDeviation="1" result="effect2_foregroundBlur_1_4"/>
</filter>
<filter id="filter14_df_1_4" x="1253.05" y="1315.84" width="39.4962" height="41.6299" filterUnits="userSpaceOnUse" color-interpolation-filters="sRGB">
<feFlood flood-opacity="0" result="BackgroundImageFix"/>
<feColorMatrix in="SourceAlpha" type="matrix" values="0 0 0 0 0 0 0 0 0 0 0 0 0 0 0 0 0 0 127 0" result="hardAlpha"/>
<feOffset/>
<feGaussianBlur stdDeviation="5"/>
<feComposite in2="hardAlpha" operator="out"/>
<feColorMatrix type="matrix" values="0 0 0 0 1 0 0 0 0 1 0 0 0 0 1 0 0 0 0.5 0"/>
<feBlend mode="normal" in2="BackgroundImageFix" result="effect1_dropShadow_1_4"/>
<feBlend mode="normal" in="SourceGraphic" in2="effect1_dropShadow_1_4" result="shape"/>
<feGaussianBlur stdDeviation="1" result="effect2_foregroundBlur_1_4"/>
</filter>
<filter id="filter15_df_1_4" x="974.883" y="1494.65" width="45.9892" height="48.1221" filterUnits="userSpaceOnUse" color-interpolation-filters="sRGB">
<feFlood flood-opacity="0" result="BackgroundImageFix"/>
<feColorMatrix in="SourceAlpha" type="matrix" values="0 0 0 0 0 0 0 0 0 0 0 0 0 0 0 0 0 0 127 0" result="hardAlpha"/>
<feOffset/>
<feGaussianBlur stdDeviation="5"/>
<feComposite in2="hardAlpha" operator="out"/>
<feColorMatrix type="matrix" values="0 0 0 0 1 0 0 0 0 1 0 0 0 0 1 0 0 0 0.5 0"/>
<feBlend mode="normal" in2="BackgroundImageFix" result="effect1_dropShadow_1_4"/>
<feBlend mode="normal" in="SourceGraphic" in2="effect1_dropShadow_1_4" result="shape"/>
<feGaussianBlur stdDeviation="2.5" result="effect2_foregroundBlur_1_4"/>
</filter>
<filter id="filter16_df_1_4" x="913.906" y="1882.63" width="45.9892" height="48.1221" filterUnits="userSpaceOnUse" color-interpolation-filters="sRGB">
<feFlood flood-opacity="0" result="BackgroundImageFix"/>
<feColorMatrix in="SourceAlpha" type="matrix" values="0 0 0 0 0 0 0 0 0 0 0 0 0 0 0 0 0 0 127 0" result="hardAlpha"/>
<feOffset/>
<feGaussianBlur stdDeviation="5"/>
<feComposite in2="hardAlpha" operator="out"/>
<feColorMatrix type="matrix" values="0 0 0 0 1 0 0 0 0 1 0 0 0 0 1 0 0 0 0.5 0"/>
<feBlend mode="normal" in2="BackgroundImageFix" result="effect1_dropShadow_1_4"/>
<feBlend mode="normal" in="SourceGraphic" in2="effect1_dropShadow_1_4" result="shape"/>
<feGaussianBlur stdDeviation="2.5" result="effect2_foregroundBlur_1_4"/>
</filter>
<filter id="filter17_df_1_4" x="1065.54" y="1938.87" width="45.9892" height="48.1221" filterUnits="userSpaceOnUse" color-interpolation-filters="sRGB">
<feFlood flood-opacity="0" result="BackgroundImageFix"/>
<feColorMatrix in="SourceAlpha" type="matrix" values="0 0 0 0 0 0 0 0 0 0 0 0 0 0 0 0 0 0 127 0" result="hardAlpha"/>
<feOffset/>
<feGaussianBlur stdDeviation="5"/>
<feComposite in2="hardAlpha" operator="out"/>
<feColorMatrix type="matrix" values="0 0 0 0 1 0 0 0 0 1 0 0 0 0 1 0 0 0 0.5 0"/>
<feBlend mode="normal" in2="BackgroundImageFix" result="effect1_dropShadow_1_4"/>
<feBlend mode="normal" in="SourceGraphic" in2="effect1_dropShadow_1_4" result="shape"/>
<feGaussianBlur stdDeviation="2.5" result="effect2_foregroundBlur_1_4"/>
</filter>
<filter id="filter18_f_1_4" x="92.1768" y="1601.18" width="49.335" height="49.335" filterUnits="userSpaceOnUse" color-interpolation-filters="sRGB">
<feFlood flood-opacity="0" result="BackgroundImageFix"/>
<feBlend mode="normal" in="SourceGraphic" in2="BackgroundImageFix" result="shape"/>
<feGaussianBlur stdDeviation="4" result="effect1_foregroundBlur_1_4"/>
</filter>
</defs>
</svg>
