<svg width="1033" height="1296" viewBox="0 0 1033 1296" fill="none" xmlns="http://www.w3.org/2000/svg">
<line x1="901.7" y1="434.519" x2="457.7" y2="54.5195" stroke="#747474" stroke-width="4"/>
<line x1="111.061" y1="1178.51" x2="395.061" y2="52.5109" stroke="#747474" stroke-width="4"/>
<line x1="987.017" y1="1142.26" x2="901.017" y2="477.257" stroke="#747474" stroke-width="4"/>
<path d="M899.228 535.723C899.228 536.332 899.123 536.898 898.912 537.422C898.701 537.945 898.404 538.398 898.021 538.781C897.646 539.164 897.197 539.465 896.673 539.684C896.15 539.895 895.58 540 894.962 540H883.794V536.953H894.962C895.337 536.953 895.63 536.848 895.841 536.637C896.052 536.418 896.158 536.113 896.158 535.723V523.195H899.228V535.723ZM915.827 535.723C915.827 536.246 915.761 536.719 915.628 537.141C915.495 537.555 915.319 537.922 915.101 538.242C914.882 538.555 914.628 538.824 914.339 539.051C914.05 539.27 913.745 539.449 913.425 539.59C913.112 539.73 912.792 539.836 912.464 539.906C912.144 539.969 911.839 540 911.55 540H906.054C905.632 540 905.171 539.926 904.671 539.777C904.171 539.629 903.706 539.387 903.277 539.051C902.855 538.707 902.499 538.266 902.21 537.727C901.929 537.18 901.788 536.512 901.788 535.723V531.598C901.788 530.816 901.929 530.156 902.21 529.617C902.499 529.07 902.855 528.629 903.277 528.293C903.706 527.949 904.171 527.703 904.671 527.555C905.171 527.406 905.632 527.332 906.054 527.332H911.55C912.331 527.332 912.995 527.473 913.542 527.754C914.089 528.035 914.53 528.391 914.866 528.82C915.202 529.242 915.444 529.703 915.593 530.203C915.749 530.703 915.827 531.168 915.827 531.598V535.723ZM912.78 531.621C912.78 531.199 912.675 530.887 912.464 530.684C912.253 530.48 911.948 530.379 911.55 530.379H906.077C905.671 530.379 905.362 530.484 905.152 530.695C904.941 530.898 904.835 531.199 904.835 531.598V535.723C904.835 536.121 904.941 536.426 905.152 536.637C905.362 536.848 905.671 536.953 906.077 536.953H911.55C911.964 536.953 912.273 536.848 912.476 536.637C912.679 536.426 912.78 536.121 912.78 535.723V531.621ZM931.794 531.527C931.794 531.949 931.72 532.406 931.571 532.898C931.423 533.383 931.181 533.836 930.845 534.258C930.516 534.672 930.083 535.02 929.544 535.301C929.013 535.582 928.364 535.723 927.598 535.723H922.102V532.828H927.598C928.013 532.828 928.333 532.703 928.559 532.453C928.786 532.195 928.899 531.879 928.899 531.504C928.899 531.105 928.77 530.793 928.513 530.566C928.263 530.34 927.958 530.227 927.598 530.227H922.102C921.688 530.227 921.368 530.355 921.141 530.613C920.915 530.863 920.802 531.176 920.802 531.551V535.805C920.802 536.211 920.927 536.527 921.177 536.754C921.434 536.98 921.751 537.094 922.126 537.094H927.598V540H922.102C921.681 540 921.223 539.926 920.731 539.777C920.247 539.629 919.794 539.391 919.372 539.062C918.958 538.727 918.61 538.293 918.329 537.762C918.048 537.223 917.907 536.57 917.907 535.805V531.527C917.907 531.105 917.981 530.652 918.13 530.168C918.278 529.676 918.516 529.223 918.845 528.809C919.181 528.387 919.614 528.035 920.145 527.754C920.684 527.473 921.337 527.332 922.102 527.332H927.598C928.02 527.332 928.473 527.406 928.958 527.555C929.45 527.703 929.903 527.945 930.317 528.281C930.739 528.609 931.091 529.043 931.372 529.582C931.653 530.113 931.794 530.762 931.794 531.527ZM939.147 540H937.788C937.35 540 936.881 539.926 936.381 539.777C935.889 539.629 935.428 539.387 934.999 539.051C934.569 538.707 934.213 538.266 933.932 537.727C933.651 537.18 933.51 536.512 933.51 535.723V521.977H936.557V535.723C936.557 536.098 936.674 536.398 936.909 536.625C937.143 536.844 937.436 536.953 937.788 536.953H939.147V540ZM874.83 568.969C874.83 569.992 874.651 570.934 874.291 571.793C873.94 572.652 873.451 573.395 872.826 574.02C872.201 574.637 871.459 575.121 870.6 575.473C869.74 575.824 868.807 576 867.799 576H859.572C859.354 576 859.151 575.961 858.963 575.883C858.776 575.805 858.611 575.699 858.471 575.566C858.338 575.426 858.233 575.262 858.154 575.074C858.076 574.887 858.037 574.684 858.037 574.465V560.73C858.037 560.52 858.076 560.32 858.154 560.133C858.233 559.945 858.338 559.781 858.471 559.641C858.611 559.5 858.776 559.391 858.963 559.312C859.151 559.234 859.354 559.195 859.572 559.195H867.799C868.807 559.195 869.74 559.371 870.6 559.723C871.459 560.074 872.201 560.562 872.826 561.188C873.451 561.805 873.94 562.547 874.291 563.414C874.651 564.273 874.83 565.211 874.83 566.227V568.969ZM871.783 566.227C871.783 565.633 871.686 565.09 871.49 564.598C871.303 564.105 871.033 563.688 870.682 563.344C870.33 562.992 869.908 562.723 869.416 562.535C868.932 562.34 868.393 562.242 867.799 562.242H861.084V572.953H867.799C868.393 572.953 868.932 572.859 869.416 572.672C869.908 572.477 870.33 572.207 870.682 571.863C871.033 571.512 871.303 571.094 871.49 570.609C871.686 570.117 871.783 569.57 871.783 568.969V566.227ZM880.308 560.73H877.262V557.977H880.308V560.73ZM880.308 576H877.262V563.332H880.308V576ZM894.06 566.379H887.205C886.791 566.379 886.478 566.484 886.267 566.695C886.056 566.898 885.951 567.199 885.951 567.598V576H882.904V567.598C882.904 567.074 882.97 566.605 883.103 566.191C883.236 565.777 883.412 565.414 883.63 565.102C883.857 564.781 884.115 564.512 884.404 564.293C884.693 564.066 884.994 563.883 885.306 563.742C885.626 563.602 885.947 563.5 886.267 563.438C886.595 563.367 886.9 563.332 887.181 563.332H894.06V566.379ZM909.394 567.527C909.394 567.949 909.319 568.406 909.171 568.898C909.023 569.383 908.78 569.836 908.444 570.258C908.116 570.672 907.683 571.02 907.144 571.301C906.612 571.582 905.964 571.723 905.198 571.723H899.702V568.828H905.198C905.612 568.828 905.933 568.703 906.159 568.453C906.386 568.195 906.499 567.879 906.499 567.504C906.499 567.105 906.37 566.793 906.112 566.566C905.862 566.34 905.558 566.227 905.198 566.227H899.702C899.288 566.227 898.968 566.355 898.741 566.613C898.515 566.863 898.402 567.176 898.402 567.551V571.805C898.402 572.211 898.527 572.527 898.777 572.754C899.034 572.98 899.351 573.094 899.726 573.094H905.198V576H899.702C899.28 576 898.823 575.926 898.331 575.777C897.847 575.629 897.394 575.391 896.972 575.062C896.558 574.727 896.21 574.293 895.929 573.762C895.648 573.223 895.507 572.57 895.507 571.805V567.527C895.507 567.105 895.581 566.652 895.73 566.168C895.878 565.676 896.116 565.223 896.444 564.809C896.78 564.387 897.214 564.035 897.745 563.754C898.284 563.473 898.937 563.332 899.702 563.332H905.198C905.62 563.332 906.073 563.406 906.558 563.555C907.05 563.703 907.503 563.945 907.917 564.281C908.339 564.609 908.691 565.043 908.972 565.582C909.253 566.113 909.394 566.762 909.394 567.527ZM923.45 576H915.188C914.766 576 914.306 575.926 913.806 575.777C913.306 575.629 912.841 575.387 912.411 575.051C911.989 574.707 911.634 574.266 911.345 573.727C911.063 573.18 910.923 572.512 910.923 571.723V567.598C910.923 567.309 910.954 567.004 911.016 566.684C911.087 566.363 911.192 566.047 911.333 565.734C911.473 565.414 911.653 565.109 911.872 564.82C912.098 564.531 912.368 564.277 912.681 564.059C913.001 563.84 913.368 563.664 913.782 563.531C914.196 563.398 914.665 563.332 915.188 563.332H923.45V566.379H915.188C914.79 566.379 914.485 566.48 914.274 566.684C914.071 566.887 913.97 567.199 913.97 567.621V571.723C913.97 572.121 914.075 572.426 914.286 572.637C914.497 572.848 914.806 572.953 915.212 572.953H923.45V576ZM937.225 566.379H931.905V576H928.823V566.379H924.862V563.332H928.823V559.195H931.905V563.332H937.225V566.379ZM952.699 571.723C952.699 572.246 952.633 572.719 952.5 573.141C952.367 573.555 952.192 573.922 951.973 574.242C951.754 574.555 951.5 574.824 951.211 575.051C950.922 575.27 950.617 575.449 950.297 575.59C949.985 575.73 949.664 575.836 949.336 575.906C949.016 575.969 948.711 576 948.422 576H942.926C942.504 576 942.043 575.926 941.543 575.777C941.043 575.629 940.578 575.387 940.149 575.051C939.727 574.707 939.371 574.266 939.082 573.727C938.801 573.18 938.66 572.512 938.66 571.723V567.598C938.66 566.816 938.801 566.156 939.082 565.617C939.371 565.07 939.727 564.629 940.149 564.293C940.578 563.949 941.043 563.703 941.543 563.555C942.043 563.406 942.504 563.332 942.926 563.332H948.422C949.203 563.332 949.867 563.473 950.414 563.754C950.961 564.035 951.402 564.391 951.738 564.82C952.074 565.242 952.317 565.703 952.465 566.203C952.621 566.703 952.699 567.168 952.699 567.598V571.723ZM949.652 567.621C949.652 567.199 949.547 566.887 949.336 566.684C949.125 566.48 948.82 566.379 948.422 566.379H942.949C942.543 566.379 942.235 566.484 942.024 566.695C941.813 566.898 941.707 567.199 941.707 567.598V571.723C941.707 572.121 941.813 572.426 942.024 572.637C942.235 572.848 942.543 572.953 942.949 572.953H948.422C948.836 572.953 949.145 572.848 949.348 572.637C949.551 572.426 949.652 572.121 949.652 571.723V567.621ZM966.123 566.379H959.267C958.853 566.379 958.541 566.484 958.33 566.695C958.119 566.898 958.014 567.199 958.014 567.598V576H954.967V567.598C954.967 567.074 955.033 566.605 955.166 566.191C955.299 565.777 955.474 565.414 955.693 565.102C955.92 564.781 956.178 564.512 956.467 564.293C956.756 564.066 957.056 563.883 957.369 563.742C957.689 563.602 958.01 563.5 958.33 563.438C958.658 563.367 958.963 563.332 959.244 563.332H966.123V566.379Z" fill="white"/>
<line x1="177" y1="1149" x2="928" y2="1179" stroke="#747474" stroke-width="4"/>
<path d="M955.312 1240.23C955.312 1240.92 955.226 1241.54 955.055 1242.09C954.883 1242.64 954.648 1243.12 954.351 1243.54C954.062 1243.96 953.726 1244.31 953.344 1244.61C952.961 1244.91 952.558 1245.15 952.137 1245.34C951.722 1245.52 951.301 1245.66 950.871 1245.75C950.449 1245.83 950.051 1245.88 949.676 1245.88H942.785V1242.83H949.676C950.066 1242.8 950.418 1242.72 950.73 1242.59C951.051 1242.46 951.324 1242.29 951.551 1242.07C951.777 1241.85 951.953 1241.59 952.078 1241.28C952.203 1240.97 952.265 1240.62 952.265 1240.23V1238.84C952.226 1238.46 952.144 1238.11 952.019 1237.79C951.894 1237.47 951.722 1237.2 951.504 1236.97C951.293 1236.74 951.035 1236.57 950.73 1236.44C950.426 1236.31 950.074 1236.24 949.676 1236.24H942.808C942.402 1236.24 942.094 1236.35 941.883 1236.56C941.672 1236.77 941.566 1237.07 941.566 1237.47V1250H938.519V1237.47C938.519 1236.69 938.66 1236.03 938.941 1235.48C939.23 1234.93 939.586 1234.49 940.008 1234.16C940.437 1233.82 940.902 1233.58 941.402 1233.43C941.902 1233.27 942.363 1233.2 942.785 1233.2H949.676C950.363 1233.2 950.98 1233.29 951.527 1233.46C952.074 1233.64 952.555 1233.87 952.969 1234.17C953.39 1234.46 953.746 1234.79 954.035 1235.18C954.332 1235.56 954.574 1235.96 954.762 1236.38C954.957 1236.8 955.097 1237.22 955.183 1237.65C955.269 1238.07 955.312 1238.47 955.312 1238.84V1240.23ZM960.416 1234.73H957.369V1231.98H960.416V1234.73ZM960.416 1250H957.369V1237.33H960.416V1250ZM968.648 1250H967.288C966.851 1250 966.382 1249.93 965.882 1249.78C965.39 1249.63 964.929 1249.39 964.499 1249.05C964.069 1248.71 963.714 1248.27 963.433 1247.73C963.152 1247.18 963.011 1246.51 963.011 1245.72V1231.98H966.058V1245.72C966.058 1246.1 966.175 1246.4 966.409 1246.62C966.644 1246.84 966.937 1246.95 967.288 1246.95H968.648V1250ZM975.907 1250H974.548C974.11 1250 973.641 1249.93 973.141 1249.78C972.649 1249.63 972.188 1249.39 971.759 1249.05C971.329 1248.71 970.973 1248.27 970.692 1247.73C970.411 1247.18 970.27 1246.51 970.27 1245.72V1231.98H973.317V1245.72C973.317 1246.1 973.434 1246.4 973.669 1246.62C973.903 1246.84 974.196 1246.95 974.548 1246.95H975.907V1250ZM991.381 1245.72C991.381 1246.25 991.315 1246.72 991.182 1247.14C991.049 1247.55 990.874 1247.92 990.655 1248.24C990.436 1248.55 990.182 1248.82 989.893 1249.05C989.604 1249.27 989.299 1249.45 988.979 1249.59C988.667 1249.73 988.346 1249.84 988.018 1249.91C987.698 1249.97 987.393 1250 987.104 1250H981.608C981.186 1250 980.725 1249.93 980.225 1249.78C979.725 1249.63 979.26 1249.39 978.831 1249.05C978.409 1248.71 978.053 1248.27 977.764 1247.73C977.483 1247.18 977.342 1246.51 977.342 1245.72V1241.6C977.342 1240.82 977.483 1240.16 977.764 1239.62C978.053 1239.07 978.409 1238.63 978.831 1238.29C979.26 1237.95 979.725 1237.7 980.225 1237.55C980.725 1237.41 981.186 1237.33 981.608 1237.33H987.104C987.885 1237.33 988.549 1237.47 989.096 1237.75C989.643 1238.04 990.084 1238.39 990.42 1238.82C990.756 1239.24 990.999 1239.7 991.147 1240.2C991.303 1240.7 991.381 1241.17 991.381 1241.6V1245.72ZM988.334 1241.62C988.334 1241.2 988.229 1240.89 988.018 1240.68C987.807 1240.48 987.502 1240.38 987.104 1240.38H981.631C981.225 1240.38 980.917 1240.48 980.706 1240.7C980.495 1240.9 980.389 1241.2 980.389 1241.6V1245.72C980.389 1246.12 980.495 1246.43 980.706 1246.64C980.917 1246.85 981.225 1246.95 981.631 1246.95H987.104C987.518 1246.95 987.827 1246.85 988.03 1246.64C988.233 1246.43 988.334 1246.12 988.334 1245.72V1241.62ZM1014.58 1237.33C1014.09 1238.42 1013.57 1239.49 1013.01 1240.54C1012.45 1241.59 1011.86 1242.58 1011.24 1243.52C1010.63 1244.46 1010 1245.32 1009.36 1246.12C1008.72 1246.91 1008.09 1247.59 1007.45 1248.17C1006.83 1248.74 1006.21 1249.19 1005.61 1249.52C1005.02 1249.84 1004.46 1250 1003.93 1250C1003.71 1250 1003.5 1249.96 1003.32 1249.88C1003.13 1249.8 1002.96 1249.7 1002.82 1249.57C1002.68 1249.43 1002.57 1249.26 1002.5 1249.07C1002.42 1248.89 1002.38 1248.68 1002.38 1248.46V1242.78L996.332 1249.54C996.176 1249.7 996.004 1249.82 995.817 1249.89C995.637 1249.96 995.449 1250 995.254 1250C995.043 1250 994.844 1249.96 994.656 1249.88C994.477 1249.8 994.317 1249.7 994.176 1249.57C994.035 1249.43 993.922 1249.26 993.836 1249.07C993.758 1248.89 993.719 1248.68 993.719 1248.46V1237.33H996.766V1244.55L1002.84 1237.77C1003.05 1237.55 1003.31 1237.41 1003.61 1237.36C1003.91 1237.29 1004.21 1237.32 1004.5 1237.45C1004.79 1237.57 1005.02 1237.75 1005.18 1238.01C1005.35 1238.26 1005.44 1238.54 1005.44 1238.84V1246.09C1006.09 1245.45 1006.69 1244.79 1007.22 1244.08C1007.75 1243.38 1008.24 1242.66 1008.7 1241.91C1009.16 1241.16 1009.59 1240.41 1009.98 1239.64C1010.39 1238.87 1010.79 1238.1 1011.17 1237.33H1014.58ZM938.83 1278.97C938.83 1279.99 938.651 1280.93 938.291 1281.79C937.94 1282.65 937.451 1283.39 936.826 1284.02C936.201 1284.64 935.459 1285.12 934.6 1285.47C933.74 1285.82 932.807 1286 931.799 1286H923.572C923.354 1286 923.151 1285.96 922.963 1285.88C922.776 1285.8 922.611 1285.7 922.471 1285.57C922.338 1285.43 922.233 1285.26 922.154 1285.07C922.076 1284.89 922.037 1284.68 922.037 1284.46V1270.73C922.037 1270.52 922.076 1270.32 922.154 1270.13C922.233 1269.95 922.338 1269.78 922.471 1269.64C922.611 1269.5 922.776 1269.39 922.963 1269.31C923.151 1269.23 923.354 1269.2 923.572 1269.2H931.799C932.807 1269.2 933.74 1269.37 934.6 1269.72C935.459 1270.07 936.201 1270.56 936.826 1271.19C937.451 1271.8 937.94 1272.55 938.291 1273.41C938.651 1274.27 938.83 1275.21 938.83 1276.23V1278.97ZM935.783 1276.23C935.783 1275.63 935.686 1275.09 935.49 1274.6C935.303 1274.11 935.033 1273.69 934.682 1273.34C934.33 1272.99 933.908 1272.72 933.416 1272.54C932.932 1272.34 932.393 1272.24 931.799 1272.24H925.084V1282.95H931.799C932.393 1282.95 932.932 1282.86 933.416 1282.67C933.908 1282.48 934.33 1282.21 934.682 1281.86C935.033 1281.51 935.303 1281.09 935.49 1280.61C935.686 1280.12 935.783 1279.57 935.783 1278.97V1276.23ZM944.308 1270.73H941.262V1267.98H944.308V1270.73ZM944.308 1286H941.262V1273.33H944.308V1286ZM958.06 1276.38H951.205C950.791 1276.38 950.478 1276.48 950.267 1276.7C950.056 1276.9 949.951 1277.2 949.951 1277.6V1286H946.904V1277.6C946.904 1277.07 946.97 1276.61 947.103 1276.19C947.236 1275.78 947.412 1275.41 947.63 1275.1C947.857 1274.78 948.115 1274.51 948.404 1274.29C948.693 1274.07 948.994 1273.88 949.306 1273.74C949.626 1273.6 949.947 1273.5 950.267 1273.44C950.595 1273.37 950.9 1273.33 951.181 1273.33H958.06V1276.38ZM973.394 1277.53C973.394 1277.95 973.319 1278.41 973.171 1278.9C973.023 1279.38 972.78 1279.84 972.444 1280.26C972.116 1280.67 971.683 1281.02 971.144 1281.3C970.612 1281.58 969.964 1281.72 969.198 1281.72H963.702V1278.83H969.198C969.612 1278.83 969.933 1278.7 970.159 1278.45C970.386 1278.2 970.499 1277.88 970.499 1277.5C970.499 1277.11 970.37 1276.79 970.112 1276.57C969.862 1276.34 969.558 1276.23 969.198 1276.23H963.702C963.288 1276.23 962.968 1276.36 962.741 1276.61C962.515 1276.86 962.402 1277.18 962.402 1277.55V1281.8C962.402 1282.21 962.527 1282.53 962.777 1282.75C963.034 1282.98 963.351 1283.09 963.726 1283.09H969.198V1286H963.702C963.28 1286 962.823 1285.93 962.331 1285.78C961.847 1285.63 961.394 1285.39 960.972 1285.06C960.558 1284.73 960.21 1284.29 959.929 1283.76C959.648 1283.22 959.507 1282.57 959.507 1281.8V1277.53C959.507 1277.11 959.581 1276.65 959.73 1276.17C959.878 1275.68 960.116 1275.22 960.444 1274.81C960.78 1274.39 961.214 1274.04 961.745 1273.75C962.284 1273.47 962.937 1273.33 963.702 1273.33H969.198C969.62 1273.33 970.073 1273.41 970.558 1273.55C971.05 1273.7 971.503 1273.95 971.917 1274.28C972.339 1274.61 972.691 1275.04 972.972 1275.58C973.253 1276.11 973.394 1276.76 973.394 1277.53ZM987.45 1286H979.188C978.766 1286 978.306 1285.93 977.806 1285.78C977.306 1285.63 976.841 1285.39 976.411 1285.05C975.989 1284.71 975.634 1284.27 975.345 1283.73C975.063 1283.18 974.923 1282.51 974.923 1281.72V1277.6C974.923 1277.31 974.954 1277 975.016 1276.68C975.087 1276.36 975.192 1276.05 975.333 1275.73C975.473 1275.41 975.653 1275.11 975.872 1274.82C976.098 1274.53 976.368 1274.28 976.681 1274.06C977.001 1273.84 977.368 1273.66 977.782 1273.53C978.196 1273.4 978.665 1273.33 979.188 1273.33H987.45V1276.38H979.188C978.79 1276.38 978.485 1276.48 978.274 1276.68C978.071 1276.89 977.97 1277.2 977.97 1277.62V1281.72C977.97 1282.12 978.075 1282.43 978.286 1282.64C978.497 1282.85 978.806 1282.95 979.212 1282.95H987.45V1286ZM1001.23 1276.38H995.905V1286H992.823V1276.38H988.862V1273.33H992.823V1269.2H995.905V1273.33H1001.23V1276.38ZM1016.7 1281.72C1016.7 1282.25 1016.63 1282.72 1016.5 1283.14C1016.37 1283.55 1016.19 1283.92 1015.97 1284.24C1015.75 1284.55 1015.5 1284.82 1015.21 1285.05C1014.92 1285.27 1014.62 1285.45 1014.3 1285.59C1013.98 1285.73 1013.66 1285.84 1013.34 1285.91C1013.02 1285.97 1012.71 1286 1012.42 1286H1006.93C1006.5 1286 1006.04 1285.93 1005.54 1285.78C1005.04 1285.63 1004.58 1285.39 1004.15 1285.05C1003.73 1284.71 1003.37 1284.27 1003.08 1283.73C1002.8 1283.18 1002.66 1282.51 1002.66 1281.72V1277.6C1002.66 1276.82 1002.8 1276.16 1003.08 1275.62C1003.37 1275.07 1003.73 1274.63 1004.15 1274.29C1004.58 1273.95 1005.04 1273.7 1005.54 1273.55C1006.04 1273.41 1006.5 1273.33 1006.93 1273.33H1012.42C1013.2 1273.33 1013.87 1273.47 1014.41 1273.75C1014.96 1274.04 1015.4 1274.39 1015.74 1274.82C1016.07 1275.24 1016.32 1275.7 1016.46 1276.2C1016.62 1276.7 1016.7 1277.17 1016.7 1277.6V1281.72ZM1013.65 1277.62C1013.65 1277.2 1013.55 1276.89 1013.34 1276.68C1013.13 1276.48 1012.82 1276.38 1012.42 1276.38H1006.95C1006.54 1276.38 1006.23 1276.48 1006.02 1276.7C1005.81 1276.9 1005.71 1277.2 1005.71 1277.6V1281.72C1005.71 1282.12 1005.81 1282.43 1006.02 1282.64C1006.23 1282.85 1006.54 1282.95 1006.95 1282.95H1012.42C1012.84 1282.95 1013.14 1282.85 1013.35 1282.64C1013.55 1282.43 1013.65 1282.12 1013.65 1281.72V1277.62ZM1030.12 1276.38H1023.27C1022.85 1276.38 1022.54 1276.48 1022.33 1276.7C1022.12 1276.9 1022.01 1277.2 1022.01 1277.6V1286H1018.97V1277.6C1018.97 1277.07 1019.03 1276.61 1019.17 1276.19C1019.3 1275.78 1019.47 1275.41 1019.69 1275.1C1019.92 1274.78 1020.18 1274.51 1020.47 1274.29C1020.76 1274.07 1021.06 1273.88 1021.37 1273.74C1021.69 1273.6 1022.01 1273.5 1022.33 1273.44C1022.66 1273.37 1022.96 1273.33 1023.24 1273.33H1030.12V1276.38Z" fill="white"/>
<circle cx="118" cy="1151" r="63" fill="#D9D9D9"/>
<path d="M107.99 1253.13H98.3687V1250.06H107.99V1253.13ZM109.361 1260H98.3687C97.9468 1260 97.4858 1259.93 96.9858 1259.78C96.4858 1259.63 96.021 1259.39 95.5913 1259.05C95.1694 1258.71 94.814 1258.27 94.5249 1257.73C94.2437 1257.18 94.103 1256.51 94.103 1255.72V1244.73C94.103 1244.52 94.1421 1244.32 94.2202 1244.13C94.2983 1243.95 94.4038 1243.78 94.5366 1243.64C94.6772 1243.5 94.8413 1243.39 95.0288 1243.31C95.2163 1243.23 95.4194 1243.2 95.6382 1243.2H109.361V1246.24H97.1499V1255.72C97.1499 1256.12 97.2554 1256.43 97.4663 1256.64C97.6772 1256.85 97.9858 1256.95 98.3921 1256.95H109.361V1260ZM122.726 1250.38H115.87C115.456 1250.38 115.144 1250.48 114.933 1250.7C114.722 1250.9 114.616 1251.2 114.616 1251.6V1260H111.569V1251.6C111.569 1251.07 111.636 1250.61 111.769 1250.19C111.902 1249.78 112.077 1249.41 112.296 1249.1C112.523 1248.78 112.78 1248.51 113.069 1248.29C113.359 1248.07 113.659 1247.88 113.972 1247.74C114.292 1247.6 114.612 1247.5 114.933 1247.44C115.261 1247.37 115.566 1247.33 115.847 1247.33H122.726V1250.38ZM127.571 1244.73H124.524V1241.98H127.571V1244.73ZM127.571 1260H124.524V1247.33H127.571V1260ZM142.506 1260H134.245C133.823 1260 133.362 1259.93 132.862 1259.78C132.362 1259.63 131.897 1259.39 131.467 1259.05C131.045 1258.71 130.69 1258.27 130.401 1257.73C130.12 1257.18 129.979 1256.51 129.979 1255.72V1251.6C129.979 1251.31 130.01 1251 130.073 1250.68C130.143 1250.36 130.249 1250.05 130.389 1249.73C130.53 1249.41 130.709 1249.11 130.928 1248.82C131.155 1248.53 131.424 1248.28 131.737 1248.06C132.057 1247.84 132.424 1247.66 132.838 1247.53C133.252 1247.4 133.721 1247.33 134.245 1247.33H142.506V1250.38H134.245C133.846 1250.38 133.542 1250.48 133.331 1250.68C133.127 1250.89 133.026 1251.2 133.026 1251.62V1255.72C133.026 1256.12 133.131 1256.43 133.342 1256.64C133.553 1256.85 133.862 1256.95 134.268 1256.95H142.506V1260ZM16.8612 1288.97C16.8612 1289.99 16.6815 1290.93 16.3221 1291.79C15.9706 1292.65 15.4823 1293.39 14.8573 1294.02C14.2323 1294.64 13.4901 1295.12 12.6307 1295.47C11.7713 1295.82 10.8378 1296 9.82994 1296H1.60338C1.38463 1296 1.1815 1295.96 0.994003 1295.88C0.806503 1295.8 0.642441 1295.7 0.501816 1295.57C0.369003 1295.43 0.263535 1295.26 0.18541 1295.07C0.107285 1294.89 0.068222 1294.68 0.068222 1294.46V1280.73C0.068222 1280.52 0.107285 1280.32 0.18541 1280.13C0.263535 1279.95 0.369003 1279.78 0.501816 1279.64C0.642441 1279.5 0.806503 1279.39 0.994003 1279.31C1.1815 1279.23 1.38463 1279.2 1.60338 1279.2H9.82994C10.8378 1279.2 11.7713 1279.37 12.6307 1279.72C13.4901 1280.07 14.2323 1280.56 14.8573 1281.19C15.4823 1281.8 15.9706 1282.55 16.3221 1283.41C16.6815 1284.27 16.8612 1285.21 16.8612 1286.23V1288.97ZM13.8143 1286.23C13.8143 1285.63 13.7167 1285.09 13.5213 1284.6C13.3338 1284.11 13.0643 1283.69 12.7128 1283.34C12.3612 1282.99 11.9393 1282.72 11.4471 1282.54C10.9628 1282.34 10.4237 1282.24 9.82994 1282.24H3.1151V1292.95H9.82994C10.4237 1292.95 10.9628 1292.86 11.4471 1292.67C11.9393 1292.48 12.3612 1292.21 12.7128 1291.86C13.0643 1291.51 13.3338 1291.09 13.5213 1290.61C13.7167 1290.12 13.8143 1289.57 13.8143 1288.97V1286.23ZM22.3394 1280.73H19.2925V1277.98H22.3394V1280.73ZM22.3394 1296H19.2925V1283.33H22.3394V1296ZM36.091 1286.38H29.2355C28.8215 1286.38 28.509 1286.48 28.298 1286.7C28.0871 1286.9 27.9816 1287.2 27.9816 1287.6V1296H24.9348V1287.6C24.9348 1287.07 25.0012 1286.61 25.134 1286.19C25.2668 1285.78 25.4426 1285.41 25.6613 1285.1C25.8879 1284.78 26.1457 1284.51 26.4348 1284.29C26.7238 1284.07 27.0246 1283.88 27.3371 1283.74C27.6574 1283.6 27.9777 1283.5 28.298 1283.44C28.6262 1283.37 28.9308 1283.33 29.2121 1283.33H36.091V1286.38ZM51.4247 1287.53C51.4247 1287.95 51.3504 1288.41 51.202 1288.9C51.0536 1289.38 50.8114 1289.84 50.4754 1290.26C50.1473 1290.67 49.7137 1291.02 49.1747 1291.3C48.6434 1291.58 47.995 1291.72 47.2293 1291.72H41.7333V1288.83H47.2293C47.6434 1288.83 47.9637 1288.7 48.1903 1288.45C48.4168 1288.2 48.5301 1287.88 48.5301 1287.5C48.5301 1287.11 48.4012 1286.79 48.1434 1286.57C47.8934 1286.34 47.5887 1286.23 47.2293 1286.23H41.7333C41.3192 1286.23 40.9989 1286.36 40.7723 1286.61C40.5458 1286.86 40.4325 1287.18 40.4325 1287.55V1291.8C40.4325 1292.21 40.5575 1292.53 40.8075 1292.75C41.0653 1292.98 41.3817 1293.09 41.7567 1293.09H47.2293V1296H41.7333C41.3114 1296 40.8543 1295.93 40.3622 1295.78C39.8778 1295.63 39.4247 1295.39 39.0028 1295.06C38.5887 1294.73 38.2411 1294.29 37.9598 1293.76C37.6786 1293.22 37.5379 1292.57 37.5379 1291.8V1287.53C37.5379 1287.11 37.6122 1286.65 37.7606 1286.17C37.909 1285.68 38.1473 1285.22 38.4754 1284.81C38.8114 1284.39 39.245 1284.04 39.7762 1283.75C40.3153 1283.47 40.9676 1283.33 41.7333 1283.33H47.2293C47.6512 1283.33 48.1043 1283.41 48.5887 1283.55C49.0809 1283.7 49.534 1283.95 49.9481 1284.28C50.37 1284.61 50.7215 1285.04 51.0028 1285.58C51.284 1286.11 51.4247 1286.76 51.4247 1287.53ZM65.481 1296H57.2193C56.7974 1296 56.3364 1295.93 55.8364 1295.78C55.3364 1295.63 54.8716 1295.39 54.4419 1295.05C54.02 1294.71 53.6646 1294.27 53.3755 1293.73C53.0943 1293.18 52.9536 1292.51 52.9536 1291.72V1287.6C52.9536 1287.31 52.9849 1287 53.0474 1286.68C53.1177 1286.36 53.2232 1286.05 53.3638 1285.73C53.5044 1285.41 53.6841 1285.11 53.9028 1284.82C54.1294 1284.53 54.3989 1284.28 54.7114 1284.06C55.0318 1283.84 55.3989 1283.66 55.813 1283.53C56.2271 1283.4 56.6958 1283.33 57.2193 1283.33H65.481V1286.38H57.2193C56.8208 1286.38 56.5161 1286.48 56.3052 1286.68C56.1021 1286.89 56.0005 1287.2 56.0005 1287.62V1291.72C56.0005 1292.12 56.106 1292.43 56.3169 1292.64C56.5278 1292.85 56.8364 1292.95 57.2427 1292.95H65.481V1296ZM79.256 1286.38H73.9357V1296H70.8537V1286.38H66.8928V1283.33H70.8537V1279.2H73.9357V1283.33H79.256V1286.38ZM94.7303 1291.72C94.7303 1292.25 94.6639 1292.72 94.5311 1293.14C94.3983 1293.55 94.2225 1293.92 94.0038 1294.24C93.785 1294.55 93.5311 1294.82 93.242 1295.05C92.953 1295.27 92.6483 1295.45 92.328 1295.59C92.0155 1295.73 91.6952 1295.84 91.367 1295.91C91.0467 1295.97 90.742 1296 90.453 1296H84.9569C84.535 1296 84.0741 1295.93 83.5741 1295.78C83.0741 1295.63 82.6092 1295.39 82.1795 1295.05C81.7577 1294.71 81.4022 1294.27 81.1131 1293.73C80.8319 1293.18 80.6913 1292.51 80.6913 1291.72V1287.6C80.6913 1286.82 80.8319 1286.16 81.1131 1285.62C81.4022 1285.07 81.7577 1284.63 82.1795 1284.29C82.6092 1283.95 83.0741 1283.7 83.5741 1283.55C84.0741 1283.41 84.535 1283.33 84.9569 1283.33H90.453C91.2342 1283.33 91.8983 1283.47 92.4452 1283.75C92.992 1284.04 93.4334 1284.39 93.7694 1284.82C94.1053 1285.24 94.3475 1285.7 94.4959 1286.2C94.6522 1286.7 94.7303 1287.17 94.7303 1287.6V1291.72ZM91.6834 1287.62C91.6834 1287.2 91.578 1286.89 91.367 1286.68C91.1561 1286.48 90.8514 1286.38 90.453 1286.38H84.9803C84.5741 1286.38 84.2655 1286.48 84.0545 1286.7C83.8436 1286.9 83.7381 1287.2 83.7381 1287.6V1291.72C83.7381 1292.12 83.8436 1292.43 84.0545 1292.64C84.2655 1292.85 84.5741 1292.95 84.9803 1292.95H90.453C90.867 1292.95 91.1756 1292.85 91.3788 1292.64C91.5819 1292.43 91.6834 1292.12 91.6834 1291.72V1287.62ZM108.154 1286.38H101.298C100.884 1286.38 100.572 1286.48 100.361 1286.7C100.15 1286.9 100.044 1287.2 100.044 1287.6V1296H96.9976V1287.6C96.9976 1287.07 97.064 1286.61 97.1968 1286.19C97.3296 1285.78 97.5054 1285.41 97.7241 1285.1C97.9507 1284.78 98.2085 1284.51 98.4976 1284.29C98.7866 1284.07 99.0874 1283.88 99.3999 1283.74C99.7202 1283.6 100.041 1283.5 100.361 1283.44C100.689 1283.37 100.994 1283.33 101.275 1283.33H108.154V1286.38ZM127.794 1288.97H123.669V1293.09H120.938V1288.97H116.802V1286.23H120.938V1282.1H123.669V1286.23H127.794V1288.97ZM151.711 1289.13H142.078V1286.06H151.711V1289.13ZM153.07 1282.24H140.86V1296H137.813V1280.73C137.813 1280.52 137.852 1280.32 137.93 1280.13C138.008 1279.95 138.113 1279.78 138.246 1279.64C138.387 1279.5 138.551 1279.39 138.738 1279.31C138.926 1279.23 139.129 1279.2 139.348 1279.2H153.07V1282.24ZM158.021 1280.73H154.974V1277.98H158.021V1280.73ZM158.021 1296H154.974V1283.33H158.021V1296ZM174.726 1296H171.679V1288.97C171.679 1288.57 171.609 1288.21 171.468 1287.9C171.335 1287.58 171.152 1287.31 170.917 1287.08C170.683 1286.86 170.406 1286.68 170.085 1286.57C169.773 1286.44 169.433 1286.38 169.066 1286.38H163.734V1296H160.687V1284.84C160.687 1284.63 160.726 1284.44 160.804 1284.26C160.882 1284.07 160.992 1283.91 161.132 1283.78C161.273 1283.64 161.437 1283.53 161.624 1283.45C161.812 1283.37 162.011 1283.33 162.222 1283.33H169.089C169.472 1283.33 169.874 1283.38 170.296 1283.46C170.726 1283.55 171.148 1283.69 171.562 1283.88C171.984 1284.07 172.382 1284.31 172.757 1284.61C173.14 1284.9 173.476 1285.25 173.765 1285.68C174.062 1286.09 174.296 1286.57 174.468 1287.12C174.64 1287.66 174.726 1288.28 174.726 1288.97V1296ZM190.212 1291.8C190.212 1292.23 190.138 1292.68 189.989 1293.18C189.841 1293.66 189.599 1294.11 189.263 1294.54C188.935 1294.95 188.501 1295.3 187.962 1295.58C187.431 1295.86 186.782 1296 186.017 1296H180.521C180.099 1296 179.642 1295.93 179.15 1295.78C178.665 1295.63 178.212 1295.39 177.79 1295.06C177.376 1294.73 177.028 1294.29 176.747 1293.76C176.466 1293.22 176.325 1292.57 176.325 1291.8C176.325 1291.38 176.4 1290.93 176.548 1290.43C176.696 1289.94 176.935 1289.49 177.263 1289.07C177.599 1288.65 178.032 1288.3 178.564 1288.02C179.103 1287.74 179.755 1287.6 180.521 1287.6H186.017V1290.5H180.521C180.107 1290.5 179.786 1290.63 179.56 1290.89C179.333 1291.14 179.22 1291.45 179.22 1291.83C179.22 1292.23 179.349 1292.54 179.607 1292.77C179.872 1292.98 180.185 1293.09 180.544 1293.09H186.017C186.431 1293.09 186.751 1292.97 186.978 1292.72C187.204 1292.47 187.318 1292.16 187.318 1291.78V1287.53C187.318 1287.13 187.193 1286.81 186.943 1286.58C186.7 1286.34 186.392 1286.23 186.017 1286.23H179.325V1283.33H186.017C186.439 1283.33 186.892 1283.41 187.376 1283.55C187.868 1283.7 188.321 1283.95 188.736 1284.28C189.157 1284.61 189.509 1285.04 189.79 1285.58C190.071 1286.11 190.212 1286.76 190.212 1287.53V1291.8ZM206.589 1296H203.542V1288.97C203.542 1288.57 203.471 1288.21 203.331 1287.9C203.198 1287.58 203.014 1287.31 202.78 1287.08C202.546 1286.86 202.268 1286.68 201.948 1286.57C201.636 1286.44 201.296 1286.38 200.929 1286.38H195.596V1296H192.55V1284.84C192.55 1284.63 192.589 1284.44 192.667 1284.26C192.745 1284.07 192.854 1283.91 192.995 1283.78C193.136 1283.64 193.3 1283.53 193.487 1283.45C193.675 1283.37 193.874 1283.33 194.085 1283.33H200.952C201.335 1283.33 201.737 1283.38 202.159 1283.46C202.589 1283.55 203.011 1283.69 203.425 1283.88C203.846 1284.07 204.245 1284.31 204.62 1284.61C205.003 1284.9 205.339 1285.25 205.628 1285.68C205.925 1286.09 206.159 1286.57 206.331 1287.12C206.503 1287.66 206.589 1288.28 206.589 1288.97V1296ZM221.266 1296H213.004C212.583 1296 212.122 1295.93 211.622 1295.78C211.122 1295.63 210.657 1295.39 210.227 1295.05C209.805 1294.71 209.45 1294.27 209.161 1293.73C208.879 1293.18 208.739 1292.51 208.739 1291.72V1287.6C208.739 1287.31 208.77 1287 208.833 1286.68C208.903 1286.36 209.008 1286.05 209.149 1285.73C209.29 1285.41 209.469 1285.11 209.688 1284.82C209.915 1284.53 210.184 1284.28 210.497 1284.06C210.817 1283.84 211.184 1283.66 211.598 1283.53C212.012 1283.4 212.481 1283.33 213.004 1283.33H221.266V1286.38H213.004C212.606 1286.38 212.301 1286.48 212.09 1286.68C211.887 1286.89 211.786 1287.2 211.786 1287.62V1291.72C211.786 1292.12 211.891 1292.43 212.102 1292.64C212.313 1292.85 212.622 1292.95 213.028 1292.95H221.266V1296ZM237.057 1287.53C237.057 1287.95 236.983 1288.41 236.834 1288.9C236.686 1289.38 236.443 1289.84 236.108 1290.26C235.779 1290.67 235.346 1291.02 234.807 1291.3C234.276 1291.58 233.627 1291.72 232.861 1291.72H227.365V1288.83H232.861C233.276 1288.83 233.596 1288.7 233.822 1288.45C234.049 1288.2 234.162 1287.88 234.162 1287.5C234.162 1287.11 234.033 1286.79 233.776 1286.57C233.526 1286.34 233.221 1286.23 232.861 1286.23H227.365C226.951 1286.23 226.631 1286.36 226.404 1286.61C226.178 1286.86 226.065 1287.18 226.065 1287.55V1291.8C226.065 1292.21 226.19 1292.53 226.44 1292.75C226.697 1292.98 227.014 1293.09 227.389 1293.09H232.861V1296H227.365C226.943 1296 226.486 1295.93 225.994 1295.78C225.51 1295.63 225.057 1295.39 224.635 1295.06C224.221 1294.73 223.873 1294.29 223.592 1293.76C223.311 1293.22 223.17 1292.57 223.17 1291.8V1287.53C223.17 1287.11 223.244 1286.65 223.393 1286.17C223.541 1285.68 223.779 1285.22 224.108 1284.81C224.443 1284.39 224.877 1284.04 225.408 1283.75C225.947 1283.47 226.6 1283.33 227.365 1283.33H232.861C233.283 1283.33 233.736 1283.41 234.221 1283.55C234.713 1283.7 235.166 1283.95 235.58 1284.28C236.002 1284.61 236.354 1285.04 236.635 1285.58C236.916 1286.11 237.057 1286.76 237.057 1287.53Z" fill="white"/>
<circle cx="426" cy="63" r="63" fill="#D9D9D9"/>
<circle cx="903" cy="445" r="63" fill="#D9D9D9"/>
<path d="M409.306 156.055C409.306 156.656 409.228 157.199 409.072 157.684C408.923 158.16 408.724 158.582 408.474 158.949C408.224 159.316 407.931 159.629 407.595 159.887C407.259 160.145 406.912 160.355 406.552 160.52C406.193 160.684 405.826 160.805 405.451 160.883C405.083 160.961 404.736 161 404.408 161H392.654V157.953H404.408C404.994 157.953 405.447 157.781 405.767 157.438C406.095 157.094 406.259 156.633 406.259 156.055C406.259 155.773 406.216 155.516 406.13 155.281C406.044 155.047 405.919 154.844 405.755 154.672C405.599 154.5 405.404 154.367 405.169 154.273C404.943 154.18 404.689 154.133 404.408 154.133H397.4C396.908 154.133 396.376 154.047 395.806 153.875C395.236 153.695 394.705 153.41 394.212 153.02C393.728 152.629 393.322 152.117 392.994 151.484C392.673 150.852 392.513 150.078 392.513 149.164C392.513 148.25 392.673 147.48 392.994 146.855C393.322 146.223 393.728 145.711 394.212 145.32C394.705 144.922 395.236 144.637 395.806 144.465C396.376 144.285 396.908 144.195 397.4 144.195H407.771V147.242H397.4C396.822 147.242 396.369 147.418 396.041 147.77C395.72 148.121 395.56 148.586 395.56 149.164C395.56 149.75 395.72 150.215 396.041 150.559C396.369 150.895 396.822 151.062 397.4 151.062H404.408H404.431C404.759 151.07 405.107 151.117 405.474 151.203C405.841 151.281 406.205 151.406 406.564 151.578C406.931 151.75 407.279 151.969 407.607 152.234C407.935 152.492 408.224 152.805 408.474 153.172C408.732 153.539 408.935 153.961 409.083 154.438C409.232 154.914 409.306 155.453 409.306 156.055ZM424.312 156.805C424.312 157.227 424.237 157.684 424.089 158.176C423.941 158.66 423.698 159.113 423.362 159.535C423.034 159.949 422.601 160.297 422.062 160.578C421.53 160.859 420.882 161 420.116 161H414.62C414.198 161 413.741 160.926 413.249 160.777C412.765 160.629 412.312 160.391 411.89 160.062C411.476 159.727 411.128 159.293 410.847 158.762C410.566 158.223 410.425 157.57 410.425 156.805C410.425 156.383 410.499 155.926 410.648 155.434C410.796 154.941 411.034 154.488 411.362 154.074C411.698 153.652 412.132 153.301 412.663 153.02C413.202 152.738 413.855 152.598 414.62 152.598H420.116V155.504H414.62C414.206 155.504 413.886 155.633 413.659 155.891C413.433 156.141 413.319 156.453 413.319 156.828C413.319 157.227 413.448 157.539 413.706 157.766C413.972 157.984 414.284 158.094 414.644 158.094H420.116C420.53 158.094 420.851 157.969 421.077 157.719C421.304 157.469 421.417 157.156 421.417 156.781V152.527C421.417 152.129 421.292 151.812 421.042 151.578C420.8 151.344 420.491 151.227 420.116 151.227H413.425V148.332H420.116C420.538 148.332 420.991 148.406 421.476 148.555C421.968 148.703 422.421 148.945 422.835 149.281C423.257 149.609 423.609 150.043 423.89 150.582C424.171 151.113 424.312 151.762 424.312 152.527V156.805ZM437.958 161H434.911V152.598C434.911 152.199 434.806 151.898 434.595 151.695C434.384 151.484 434.071 151.379 433.657 151.379H429.696V161H426.649V149.844C426.649 149.633 426.688 149.438 426.766 149.258C426.845 149.07 426.954 148.91 427.095 148.777C427.235 148.637 427.399 148.527 427.587 148.449C427.774 148.371 427.973 148.332 428.184 148.332H433.681C434.102 148.332 434.556 148.406 435.04 148.555C435.524 148.703 435.985 148.941 436.423 149.27V148.332H440.548C440.837 148.332 441.141 148.367 441.462 148.438C441.782 148.5 442.098 148.602 442.411 148.742C442.731 148.883 443.036 149.066 443.325 149.293C443.614 149.512 443.868 149.781 444.087 150.102C444.306 150.414 444.481 150.777 444.614 151.191C444.747 151.605 444.813 152.074 444.813 152.598V161H441.766V152.598C441.766 152.199 441.665 151.898 441.462 151.695C441.266 151.484 440.962 151.379 440.548 151.379H437.806C437.907 151.754 437.958 152.16 437.958 152.598V161ZM460.44 156.805C460.44 157.227 460.366 157.684 460.217 158.176C460.069 158.66 459.827 159.113 459.491 159.535C459.163 159.949 458.729 160.297 458.19 160.578C457.659 160.859 457.01 161 456.245 161H450.749C450.327 161 449.87 160.926 449.377 160.777C448.893 160.629 448.44 160.391 448.018 160.062C447.604 159.727 447.256 159.293 446.975 158.762C446.694 158.223 446.553 157.57 446.553 156.805C446.553 156.383 446.627 155.926 446.776 155.434C446.924 154.941 447.163 154.488 447.491 154.074C447.827 153.652 448.26 153.301 448.792 153.02C449.331 152.738 449.983 152.598 450.749 152.598H456.245V155.504H450.749C450.334 155.504 450.014 155.633 449.788 155.891C449.561 156.141 449.448 156.453 449.448 156.828C449.448 157.227 449.577 157.539 449.834 157.766C450.1 157.984 450.413 158.094 450.772 158.094H456.245C456.659 158.094 456.979 157.969 457.206 157.719C457.432 157.469 457.545 157.156 457.545 156.781V152.527C457.545 152.129 457.42 151.812 457.17 151.578C456.928 151.344 456.62 151.227 456.245 151.227H449.553V148.332H456.245C456.667 148.332 457.12 148.406 457.604 148.555C458.096 148.703 458.549 148.945 458.963 149.281C459.385 149.609 459.737 150.043 460.018 150.582C460.299 151.113 460.44 151.762 460.44 152.527V156.805ZM389.83 189.969C389.83 190.992 389.651 191.934 389.291 192.793C388.94 193.652 388.451 194.395 387.826 195.02C387.201 195.637 386.459 196.121 385.6 196.473C384.74 196.824 383.807 197 382.799 197H374.572C374.354 197 374.151 196.961 373.963 196.883C373.776 196.805 373.611 196.699 373.471 196.566C373.338 196.426 373.233 196.262 373.154 196.074C373.076 195.887 373.037 195.684 373.037 195.465V181.73C373.037 181.52 373.076 181.32 373.154 181.133C373.233 180.945 373.338 180.781 373.471 180.641C373.611 180.5 373.776 180.391 373.963 180.312C374.151 180.234 374.354 180.195 374.572 180.195H382.799C383.807 180.195 384.74 180.371 385.6 180.723C386.459 181.074 387.201 181.562 387.826 182.188C388.451 182.805 388.94 183.547 389.291 184.414C389.651 185.273 389.83 186.211 389.83 187.227V189.969ZM386.783 187.227C386.783 186.633 386.686 186.09 386.49 185.598C386.303 185.105 386.033 184.688 385.682 184.344C385.33 183.992 384.908 183.723 384.416 183.535C383.932 183.34 383.393 183.242 382.799 183.242H376.084V193.953H382.799C383.393 193.953 383.932 193.859 384.416 193.672C384.908 193.477 385.33 193.207 385.682 192.863C386.033 192.512 386.303 192.094 386.49 191.609C386.686 191.117 386.783 190.57 386.783 189.969V187.227ZM395.308 181.73H392.262V178.977H395.308V181.73ZM395.308 197H392.262V184.332H395.308V197ZM409.06 187.379H402.205C401.791 187.379 401.478 187.484 401.267 187.695C401.056 187.898 400.951 188.199 400.951 188.598V197H397.904V188.598C397.904 188.074 397.97 187.605 398.103 187.191C398.236 186.777 398.412 186.414 398.63 186.102C398.857 185.781 399.115 185.512 399.404 185.293C399.693 185.066 399.994 184.883 400.306 184.742C400.626 184.602 400.947 184.5 401.267 184.438C401.595 184.367 401.9 184.332 402.181 184.332H409.06V187.379ZM424.394 188.527C424.394 188.949 424.319 189.406 424.171 189.898C424.023 190.383 423.78 190.836 423.444 191.258C423.116 191.672 422.683 192.02 422.144 192.301C421.612 192.582 420.964 192.723 420.198 192.723H414.702V189.828H420.198C420.612 189.828 420.933 189.703 421.159 189.453C421.386 189.195 421.499 188.879 421.499 188.504C421.499 188.105 421.37 187.793 421.112 187.566C420.862 187.34 420.558 187.227 420.198 187.227H414.702C414.288 187.227 413.968 187.355 413.741 187.613C413.515 187.863 413.402 188.176 413.402 188.551V192.805C413.402 193.211 413.527 193.527 413.777 193.754C414.034 193.98 414.351 194.094 414.726 194.094H420.198V197H414.702C414.28 197 413.823 196.926 413.331 196.777C412.847 196.629 412.394 196.391 411.972 196.062C411.558 195.727 411.21 195.293 410.929 194.762C410.648 194.223 410.507 193.57 410.507 192.805V188.527C410.507 188.105 410.581 187.652 410.73 187.168C410.878 186.676 411.116 186.223 411.444 185.809C411.78 185.387 412.214 185.035 412.745 184.754C413.284 184.473 413.937 184.332 414.702 184.332H420.198C420.62 184.332 421.073 184.406 421.558 184.555C422.05 184.703 422.503 184.945 422.917 185.281C423.339 185.609 423.691 186.043 423.972 186.582C424.253 187.113 424.394 187.762 424.394 188.527ZM438.45 197H430.188C429.766 197 429.306 196.926 428.806 196.777C428.306 196.629 427.841 196.387 427.411 196.051C426.989 195.707 426.634 195.266 426.345 194.727C426.063 194.18 425.923 193.512 425.923 192.723V188.598C425.923 188.309 425.954 188.004 426.016 187.684C426.087 187.363 426.192 187.047 426.333 186.734C426.473 186.414 426.653 186.109 426.872 185.82C427.098 185.531 427.368 185.277 427.681 185.059C428.001 184.84 428.368 184.664 428.782 184.531C429.196 184.398 429.665 184.332 430.188 184.332H438.45V187.379H430.188C429.79 187.379 429.485 187.48 429.274 187.684C429.071 187.887 428.97 188.199 428.97 188.621V192.723C428.97 193.121 429.075 193.426 429.286 193.637C429.497 193.848 429.806 193.953 430.212 193.953H438.45V197ZM452.225 187.379H446.905V197H443.823V187.379H439.862V184.332H443.823V180.195H446.905V184.332H452.225V187.379ZM467.699 192.723C467.699 193.246 467.633 193.719 467.5 194.141C467.367 194.555 467.192 194.922 466.973 195.242C466.754 195.555 466.5 195.824 466.211 196.051C465.922 196.27 465.617 196.449 465.297 196.59C464.985 196.73 464.664 196.836 464.336 196.906C464.016 196.969 463.711 197 463.422 197H457.926C457.504 197 457.043 196.926 456.543 196.777C456.043 196.629 455.578 196.387 455.149 196.051C454.727 195.707 454.371 195.266 454.082 194.727C453.801 194.18 453.66 193.512 453.66 192.723V188.598C453.66 187.816 453.801 187.156 454.082 186.617C454.371 186.07 454.727 185.629 455.149 185.293C455.578 184.949 456.043 184.703 456.543 184.555C457.043 184.406 457.504 184.332 457.926 184.332H463.422C464.203 184.332 464.867 184.473 465.414 184.754C465.961 185.035 466.402 185.391 466.738 185.82C467.074 186.242 467.317 186.703 467.465 187.203C467.621 187.703 467.699 188.168 467.699 188.598V192.723ZM464.652 188.621C464.652 188.199 464.547 187.887 464.336 187.684C464.125 187.48 463.82 187.379 463.422 187.379H457.949C457.543 187.379 457.235 187.484 457.024 187.695C456.813 187.898 456.707 188.199 456.707 188.598V192.723C456.707 193.121 456.813 193.426 457.024 193.637C457.235 193.848 457.543 193.953 457.949 193.953H463.422C463.836 193.953 464.145 193.848 464.348 193.637C464.551 193.426 464.652 193.121 464.652 192.723V188.621ZM481.123 187.379H474.267C473.853 187.379 473.541 187.484 473.33 187.695C473.119 187.898 473.014 188.199 473.014 188.598V197H469.967V188.598C469.967 188.074 470.033 187.605 470.166 187.191C470.299 186.777 470.474 186.414 470.693 186.102C470.92 185.781 471.178 185.512 471.467 185.293C471.756 185.066 472.056 184.883 472.369 184.742C472.689 184.602 473.01 184.5 473.33 184.438C473.658 184.367 473.963 184.332 474.244 184.332H481.123V187.379Z" fill="white"/>
<circle cx="970" cy="1151" r="63" fill="#D9D9D9"/>
</svg>
