<svg width="1242" height="1391" viewBox="0 0 1242 1391" fill="none" xmlns="http://www.w3.org/2000/svg">
<line x1="1119.09" y1="650.604" x2="943.093" y2="94.6036" stroke="#747474" stroke-width="4"/>
<line x1="1113.63" y1="688.966" x2="273.635" y2="532.966" stroke="#747474" stroke-width="4"/>
<line x1="970.188" y1="1180.99" x2="156.188" y2="1257.99" stroke="#747474" stroke-width="4"/>
<line x1="213.959" y1="593.404" x2="92.9587" y2="1179.4" stroke="#747474" stroke-width="4"/>
<line x1="1116.92" y1="753.56" x2="1002.92" y2="1144.56" stroke="#747474" stroke-width="4"/>
<line x1="855.057" y1="80.6979" x2="251.057" y2="456.698" stroke="#747474" stroke-width="4"/>
<circle cx="907" cy="63" r="63" fill="#D9D9D9"/>
<g filter="url(#filter0_d_1_4)">
<circle cx="219" cy="518" r="63" fill="#D9D9D9"/>
</g>
<g filter="url(#filter1_d_1_4)">
<circle cx="108" cy="1242" r="63" fill="#D9D9D9"/>
</g>
<g filter="url(#filter2_d_1_4)">
<circle cx="1018" cy="1179" r="63" fill="#D9D9D9"/>
</g>
<g filter="url(#filter3_d_1_4)">
<circle cx="1115" cy="701" r="63" fill="#D9D9D9"/>
</g>
<path d="M889.517 160H886.447V149.992L881.044 159.496C880.912 159.738 880.724 159.922 880.482 160.047C880.248 160.172 879.994 160.234 879.72 160.234C879.455 160.234 879.205 160.172 878.97 160.047C878.744 159.922 878.564 159.738 878.431 159.496L873.005 149.992V160H869.958V144.496C869.958 144.145 870.06 143.832 870.263 143.559C870.474 143.285 870.748 143.102 871.083 143.008C871.248 142.969 871.412 142.957 871.576 142.973C871.74 142.98 871.896 143.016 872.044 143.078C872.201 143.133 872.341 143.215 872.466 143.324C872.591 143.426 872.697 143.551 872.783 143.699L879.72 155.758L886.658 143.699C886.837 143.402 887.083 143.191 887.396 143.066C887.716 142.941 888.048 142.922 888.392 143.008C888.72 143.102 888.99 143.285 889.201 143.559C889.412 143.832 889.517 144.145 889.517 144.496V160ZM905.472 155.805C905.472 156.227 905.398 156.684 905.249 157.176C905.101 157.66 904.859 158.113 904.523 158.535C904.194 158.949 903.761 159.297 903.222 159.578C902.691 159.859 902.042 160 901.277 160H895.78C895.359 160 894.902 159.926 894.409 159.777C893.925 159.629 893.472 159.391 893.05 159.062C892.636 158.727 892.288 158.293 892.007 157.762C891.726 157.223 891.585 156.57 891.585 155.805C891.585 155.383 891.659 154.926 891.808 154.434C891.956 153.941 892.194 153.488 892.523 153.074C892.859 152.652 893.292 152.301 893.823 152.02C894.362 151.738 895.015 151.598 895.78 151.598H901.277V154.504H895.78C895.366 154.504 895.046 154.633 894.819 154.891C894.593 155.141 894.48 155.453 894.48 155.828C894.48 156.227 894.609 156.539 894.866 156.766C895.132 156.984 895.444 157.094 895.804 157.094H901.277C901.691 157.094 902.011 156.969 902.237 156.719C902.464 156.469 902.577 156.156 902.577 155.781V151.527C902.577 151.129 902.452 150.812 902.202 150.578C901.96 150.344 901.652 150.227 901.277 150.227H894.585V147.332H901.277C901.698 147.332 902.152 147.406 902.636 147.555C903.128 147.703 903.581 147.945 903.995 148.281C904.417 148.609 904.769 149.043 905.05 149.582C905.331 150.113 905.472 150.762 905.472 151.527V155.805ZM918.895 150.379H912.04C911.626 150.379 911.313 150.484 911.102 150.695C910.891 150.898 910.786 151.199 910.786 151.598V160H907.739V151.598C907.739 151.074 907.805 150.605 907.938 150.191C908.071 149.777 908.247 149.414 908.466 149.102C908.692 148.781 908.95 148.512 909.239 148.293C909.528 148.066 909.829 147.883 910.141 147.742C910.462 147.602 910.782 147.5 911.102 147.438C911.43 147.367 911.735 147.332 912.016 147.332H918.895V150.379ZM935.53 160H931.135L924.995 154.07C924.651 153.758 924.491 153.367 924.514 152.898C924.53 152.68 924.584 152.477 924.678 152.289C924.78 152.094 924.917 151.93 925.088 151.797L930.655 147.309H935.53L928.358 153.086L935.53 160ZM923.741 160H920.694V141.977H923.741V160ZM782.735 196H779.665V185.992L774.263 195.496C774.13 195.738 773.942 195.922 773.7 196.047C773.466 196.172 773.212 196.234 772.939 196.234C772.673 196.234 772.423 196.172 772.189 196.047C771.962 195.922 771.782 195.738 771.649 195.496L766.224 185.992V196H763.177V180.496C763.177 180.145 763.278 179.832 763.481 179.559C763.692 179.285 763.966 179.102 764.302 179.008C764.466 178.969 764.63 178.957 764.794 178.973C764.958 178.98 765.114 179.016 765.263 179.078C765.419 179.133 765.56 179.215 765.685 179.324C765.81 179.426 765.915 179.551 766.001 179.699L772.939 191.758L779.876 179.699C780.056 179.402 780.302 179.191 780.614 179.066C780.935 178.941 781.267 178.922 781.61 179.008C781.939 179.102 782.208 179.285 782.419 179.559C782.63 179.832 782.735 180.145 782.735 180.496V196ZM798.69 191.805C798.69 192.227 798.616 192.684 798.467 193.176C798.319 193.66 798.077 194.113 797.741 194.535C797.413 194.949 796.979 195.297 796.44 195.578C795.909 195.859 795.26 196 794.495 196H788.999C788.577 196 788.12 195.926 787.628 195.777C787.143 195.629 786.69 195.391 786.268 195.062C785.854 194.727 785.507 194.293 785.225 193.762C784.944 193.223 784.803 192.57 784.803 191.805C784.803 191.383 784.878 190.926 785.026 190.434C785.175 189.941 785.413 189.488 785.741 189.074C786.077 188.652 786.51 188.301 787.042 188.02C787.581 187.738 788.233 187.598 788.999 187.598H794.495V190.504H788.999C788.585 190.504 788.264 190.633 788.038 190.891C787.811 191.141 787.698 191.453 787.698 191.828C787.698 192.227 787.827 192.539 788.085 192.766C788.35 192.984 788.663 193.094 789.022 193.094H794.495C794.909 193.094 795.229 192.969 795.456 192.719C795.682 192.469 795.796 192.156 795.796 191.781V187.527C795.796 187.129 795.671 186.812 795.421 186.578C795.178 186.344 794.87 186.227 794.495 186.227H787.803V183.332H794.495C794.917 183.332 795.37 183.406 795.854 183.555C796.346 183.703 796.8 183.945 797.214 184.281C797.635 184.609 797.987 185.043 798.268 185.582C798.55 186.113 798.69 186.762 798.69 187.527V191.805ZM812.114 186.379H805.258C804.844 186.379 804.532 186.484 804.321 186.695C804.11 186.898 804.004 187.199 804.004 187.598V196H800.957V187.598C800.957 187.074 801.024 186.605 801.157 186.191C801.289 185.777 801.465 185.414 801.684 185.102C801.911 184.781 802.168 184.512 802.457 184.293C802.746 184.066 803.047 183.883 803.36 183.742C803.68 183.602 804 183.5 804.321 183.438C804.649 183.367 804.953 183.332 805.235 183.332H812.114V186.379ZM828.748 196H824.354L818.213 190.07C817.869 189.758 817.709 189.367 817.732 188.898C817.748 188.68 817.803 188.477 817.897 188.289C817.998 188.094 818.135 187.93 818.307 187.797L823.873 183.309H828.748L821.576 189.086L828.748 196ZM816.959 196H813.912V177.977H816.959V196ZM843.402 187.527C843.402 187.949 843.328 188.406 843.179 188.898C843.031 189.383 842.789 189.836 842.453 190.258C842.125 190.672 841.691 191.02 841.152 191.301C840.621 191.582 839.972 191.723 839.207 191.723H833.711V188.828H839.207C839.621 188.828 839.941 188.703 840.168 188.453C840.394 188.195 840.508 187.879 840.508 187.504C840.508 187.105 840.379 186.793 840.121 186.566C839.871 186.34 839.566 186.227 839.207 186.227H833.711C833.297 186.227 832.976 186.355 832.75 186.613C832.523 186.863 832.41 187.176 832.41 187.551V191.805C832.41 192.211 832.535 192.527 832.785 192.754C833.043 192.98 833.359 193.094 833.734 193.094H839.207V196H833.711C833.289 196 832.832 195.926 832.34 195.777C831.855 195.629 831.402 195.391 830.98 195.062C830.566 194.727 830.218 194.293 829.937 193.762C829.656 193.223 829.515 192.57 829.515 191.805V187.527C829.515 187.105 829.59 186.652 829.738 186.168C829.886 185.676 830.125 185.223 830.453 184.809C830.789 184.387 831.222 184.035 831.754 183.754C832.293 183.473 832.945 183.332 833.711 183.332H839.207C839.629 183.332 840.082 183.406 840.566 183.555C841.058 183.703 841.511 183.945 841.925 184.281C842.347 184.609 842.699 185.043 842.98 185.582C843.261 186.113 843.402 186.762 843.402 187.527ZM856.708 186.379H851.388V196H848.306V186.379H844.345V183.332H848.306V179.195H851.388V183.332H856.708V186.379ZM861.542 180.73H858.495V177.977H861.542V180.73ZM861.542 196H858.495V183.332H861.542V196ZM878.247 196H875.2V188.969C875.2 188.57 875.13 188.215 874.989 187.902C874.856 187.582 874.673 187.309 874.438 187.082C874.204 186.855 873.926 186.684 873.606 186.566C873.294 186.441 872.954 186.379 872.587 186.379H867.255V196H864.208V184.844C864.208 184.633 864.247 184.438 864.325 184.258C864.403 184.07 864.512 183.91 864.653 183.777C864.794 183.637 864.958 183.527 865.145 183.449C865.333 183.371 865.532 183.332 865.743 183.332H872.61C872.993 183.332 873.395 183.375 873.817 183.461C874.247 183.547 874.669 183.688 875.083 183.883C875.505 184.07 875.903 184.312 876.278 184.609C876.661 184.898 876.997 185.254 877.286 185.676C877.583 186.09 877.817 186.57 877.989 187.117C878.161 187.664 878.247 188.281 878.247 188.969V196ZM894.436 197.219C894.436 197.742 894.369 198.211 894.237 198.625C894.104 199.047 893.928 199.414 893.709 199.727C893.491 200.047 893.237 200.316 892.948 200.535C892.659 200.762 892.354 200.945 892.034 201.086C891.721 201.227 891.401 201.328 891.073 201.391C890.752 201.461 890.448 201.496 890.159 201.496H884.662V198.449H890.159C890.573 198.449 890.881 198.344 891.084 198.133C891.287 197.922 891.389 197.617 891.389 197.219V187.598C891.389 187.199 891.287 186.898 891.084 186.695C890.881 186.484 890.573 186.379 890.159 186.379H884.662C884.287 186.379 883.991 186.496 883.772 186.73C883.553 186.957 883.444 187.246 883.444 187.598V191.723C883.444 192.121 883.549 192.426 883.76 192.637C883.971 192.848 884.28 192.953 884.686 192.953H890.159V196H884.662C884.373 196 884.069 195.969 883.748 195.906C883.428 195.836 883.108 195.73 882.787 195.59C882.475 195.449 882.174 195.27 881.885 195.051C881.596 194.824 881.342 194.555 881.123 194.242C880.905 193.922 880.729 193.555 880.596 193.141C880.463 192.719 880.397 192.246 880.397 191.723V187.598C880.397 187.309 880.428 187.004 880.491 186.684C880.561 186.363 880.666 186.047 880.807 185.734C880.948 185.414 881.127 185.109 881.346 184.82C881.573 184.531 881.842 184.277 882.155 184.059C882.475 183.84 882.842 183.664 883.256 183.531C883.67 183.398 884.139 183.332 884.662 183.332H890.159C890.448 183.332 890.752 183.367 891.073 183.438C891.401 183.5 891.721 183.602 892.034 183.742C892.354 183.883 892.659 184.066 892.948 184.293C893.237 184.512 893.491 184.781 893.709 185.102C893.928 185.414 894.104 185.777 894.237 186.191C894.369 186.605 894.436 187.074 894.436 187.598V197.219ZM919.771 182.242H913.056V196H910.009V182.242H903.283V179.195H919.771V182.242ZM933.71 187.527C933.71 187.949 933.636 188.406 933.488 188.898C933.339 189.383 933.097 189.836 932.761 190.258C932.433 190.672 931.999 191.02 931.46 191.301C930.929 191.582 930.281 191.723 929.515 191.723H924.019V188.828H929.515C929.929 188.828 930.249 188.703 930.476 188.453C930.702 188.195 930.816 187.879 930.816 187.504C930.816 187.105 930.687 186.793 930.429 186.566C930.179 186.34 929.874 186.227 929.515 186.227H924.019C923.605 186.227 923.285 186.355 923.058 186.613C922.831 186.863 922.718 187.176 922.718 187.551V191.805C922.718 192.211 922.843 192.527 923.093 192.754C923.351 192.98 923.667 193.094 924.042 193.094H929.515V196H924.019C923.597 196 923.14 195.926 922.648 195.777C922.163 195.629 921.71 195.391 921.288 195.062C920.874 194.727 920.527 194.293 920.245 193.762C919.964 193.223 919.824 192.57 919.824 191.805V187.527C919.824 187.105 919.898 186.652 920.046 186.168C920.195 185.676 920.433 185.223 920.761 184.809C921.097 184.387 921.531 184.035 922.062 183.754C922.601 183.473 923.253 183.332 924.019 183.332H929.515C929.937 183.332 930.39 183.406 930.874 183.555C931.367 183.703 931.82 183.945 932.234 184.281C932.656 184.609 933.007 185.043 933.288 185.582C933.57 186.113 933.71 186.762 933.71 187.527ZM948.481 191.805C948.481 192.227 948.407 192.684 948.259 193.176C948.11 193.66 947.868 194.113 947.532 194.535C947.204 194.949 946.771 195.297 946.231 195.578C945.7 195.859 945.052 196 944.286 196H938.79C938.368 196 937.911 195.926 937.419 195.777C936.935 195.629 936.481 195.391 936.06 195.062C935.646 194.727 935.298 194.293 935.017 193.762C934.735 193.223 934.595 192.57 934.595 191.805C934.595 191.383 934.669 190.926 934.817 190.434C934.966 189.941 935.204 189.488 935.532 189.074C935.868 188.652 936.302 188.301 936.833 188.02C937.372 187.738 938.024 187.598 938.79 187.598H944.286V190.504H938.79C938.376 190.504 938.056 190.633 937.829 190.891C937.603 191.141 937.489 191.453 937.489 191.828C937.489 192.227 937.618 192.539 937.876 192.766C938.142 192.984 938.454 193.094 938.813 193.094H944.286C944.7 193.094 945.021 192.969 945.247 192.719C945.474 192.469 945.587 192.156 945.587 191.781V187.527C945.587 187.129 945.462 186.812 945.212 186.578C944.97 186.344 944.661 186.227 944.286 186.227H937.595V183.332H944.286C944.708 183.332 945.161 183.406 945.646 183.555C946.138 183.703 946.591 183.945 947.005 184.281C947.427 184.609 947.778 185.043 948.06 185.582C948.341 186.113 948.481 186.762 948.481 187.527V191.805ZM962.128 196H959.081V187.598C959.081 187.199 958.975 186.898 958.764 186.695C958.553 186.484 958.241 186.379 957.827 186.379H953.866V196H950.819V184.844C950.819 184.633 950.858 184.438 950.936 184.258C951.014 184.07 951.124 183.91 951.264 183.777C951.405 183.637 951.569 183.527 951.757 183.449C951.944 183.371 952.143 183.332 952.354 183.332H957.85C958.272 183.332 958.725 183.406 959.21 183.555C959.694 183.703 960.155 183.941 960.592 184.27V183.332H964.717C965.007 183.332 965.311 183.367 965.632 183.438C965.952 183.5 966.268 183.602 966.581 183.742C966.901 183.883 967.206 184.066 967.495 184.293C967.784 184.512 968.038 184.781 968.257 185.102C968.475 185.414 968.651 185.777 968.784 186.191C968.917 186.605 968.983 187.074 968.983 187.598V196H965.936V187.598C965.936 187.199 965.835 186.898 965.632 186.695C965.436 186.484 965.132 186.379 964.717 186.379H961.975C962.077 186.754 962.128 187.16 962.128 187.598V196ZM994.846 196H980.947C980.729 196 980.525 195.961 980.338 195.883C980.15 195.805 979.986 195.699 979.846 195.566C979.713 195.426 979.607 195.262 979.529 195.074C979.451 194.887 979.412 194.684 979.412 194.465V179.195H982.459V192.953H994.846V196ZM1010.11 187.527C1010.11 187.949 1010.03 188.406 1009.89 188.898C1009.74 189.383 1009.5 189.836 1009.16 190.258C1008.83 190.672 1008.4 191.02 1007.86 191.301C1007.33 191.582 1006.68 191.723 1005.91 191.723H1000.42V188.828H1005.91C1006.33 188.828 1006.65 188.703 1006.87 188.453C1007.1 188.195 1007.21 187.879 1007.21 187.504C1007.21 187.105 1007.09 186.793 1006.83 186.566C1006.58 186.34 1006.27 186.227 1005.91 186.227H1000.42C1000 186.227 999.683 186.355 999.457 186.613C999.23 186.863 999.117 187.176 999.117 187.551V191.805C999.117 192.211 999.242 192.527 999.492 192.754C999.75 192.98 1000.07 193.094 1000.44 193.094H1005.91V196H1000.42C999.996 196 999.539 195.926 999.047 195.777C998.562 195.629 998.109 195.391 997.687 195.062C997.273 194.727 996.925 194.293 996.644 193.762C996.363 193.223 996.222 192.57 996.222 191.805V187.527C996.222 187.105 996.297 186.652 996.445 186.168C996.593 185.676 996.832 185.223 997.16 184.809C997.496 184.387 997.929 184.035 998.461 183.754C999 183.473 999.652 183.332 1000.42 183.332H1005.91C1006.34 183.332 1006.79 183.406 1007.27 183.555C1007.77 183.703 1008.22 183.945 1008.63 184.281C1009.05 184.609 1009.41 185.043 1009.69 185.582C1009.97 186.113 1010.11 186.762 1010.11 187.527ZM1024.88 191.805C1024.88 192.227 1024.81 192.684 1024.66 193.176C1024.51 193.66 1024.27 194.113 1023.93 194.535C1023.6 194.949 1023.17 195.297 1022.63 195.578C1022.1 195.859 1021.45 196 1020.68 196H1015.19C1014.77 196 1014.31 195.926 1013.82 195.777C1013.33 195.629 1012.88 195.391 1012.46 195.062C1012.04 194.727 1011.7 194.293 1011.42 193.762C1011.13 193.223 1010.99 192.57 1010.99 191.805C1010.99 191.383 1011.07 190.926 1011.22 190.434C1011.36 189.941 1011.6 189.488 1011.93 189.074C1012.27 188.652 1012.7 188.301 1013.23 188.02C1013.77 187.738 1014.42 187.598 1015.19 187.598H1020.68V190.504H1015.19C1014.77 190.504 1014.45 190.633 1014.23 190.891C1014 191.141 1013.89 191.453 1013.89 191.828C1013.89 192.227 1014.02 192.539 1014.27 192.766C1014.54 192.984 1014.85 193.094 1015.21 193.094H1020.68C1021.1 193.094 1021.42 192.969 1021.65 192.719C1021.87 192.469 1021.99 192.156 1021.99 191.781V187.527C1021.99 187.129 1021.86 186.812 1021.61 186.578C1021.37 186.344 1021.06 186.227 1020.68 186.227H1013.99V183.332H1020.68C1021.11 183.332 1021.56 183.406 1022.04 183.555C1022.54 183.703 1022.99 183.945 1023.4 184.281C1023.83 184.609 1024.18 185.043 1024.46 185.582C1024.74 186.113 1024.88 186.762 1024.88 187.527V191.805ZM1041.12 191.723C1041.12 192.246 1041.05 192.719 1040.92 193.141C1040.78 193.555 1040.61 193.922 1040.39 194.242C1040.17 194.555 1039.92 194.824 1039.63 195.051C1039.34 195.27 1039.03 195.449 1038.71 195.59C1038.4 195.73 1038.08 195.836 1037.75 195.906C1037.43 195.969 1037.13 196 1036.84 196H1031.34C1030.82 196 1030.35 195.934 1029.94 195.801C1029.52 195.668 1029.16 195.492 1028.83 195.273C1028.52 195.047 1028.25 194.789 1028.03 194.5C1027.81 194.211 1027.63 193.91 1027.49 193.598C1027.35 193.277 1027.24 192.957 1027.17 192.637C1027.11 192.309 1027.08 192.004 1027.08 191.723V187.598C1027.08 186.816 1027.22 186.156 1027.5 185.617C1027.79 185.07 1028.14 184.629 1028.57 184.293C1029 183.949 1029.46 183.703 1029.96 183.555C1030.46 183.406 1030.92 183.332 1031.34 183.332H1036.84V186.379H1031.37C1030.96 186.379 1030.65 186.484 1030.44 186.695C1030.23 186.898 1030.12 187.199 1030.12 187.598V191.699C1030.12 192.113 1030.23 192.426 1030.43 192.637C1030.64 192.848 1030.94 192.953 1031.34 192.953H1036.84C1037.25 192.953 1037.56 192.848 1037.76 192.637C1037.97 192.426 1038.07 192.121 1038.07 191.723V177.977H1041.12V191.723Z" fill="white"/>
<path d="M202.353 612.133H192.732V609.062H202.353V612.133ZM203.724 619H192.732C192.31 619 191.849 618.926 191.349 618.777C190.849 618.629 190.384 618.387 189.955 618.051C189.533 617.707 189.177 617.266 188.888 616.727C188.607 616.18 188.466 615.512 188.466 614.723V603.73C188.466 603.52 188.505 603.32 188.583 603.133C188.662 602.945 188.767 602.781 188.9 602.641C189.041 602.5 189.205 602.391 189.392 602.312C189.58 602.234 189.783 602.195 190.001 602.195H203.724V605.242H191.513V614.723C191.513 615.121 191.619 615.426 191.83 615.637C192.041 615.848 192.349 615.953 192.755 615.953H203.724V619ZM221.097 606.332C220.753 607.402 220.351 608.457 219.89 609.496C219.429 610.535 218.898 611.527 218.296 612.473C217.702 613.41 217.034 614.281 216.292 615.086C215.558 615.883 214.741 616.574 213.843 617.16C212.952 617.738 211.98 618.195 210.925 618.531C209.878 618.859 208.741 619.023 207.515 619.023C207.304 619.023 207.105 618.984 206.917 618.906C206.73 618.828 206.566 618.723 206.425 618.59C206.284 618.449 206.175 618.289 206.097 618.109C206.019 617.922 205.98 617.723 205.98 617.512V606.332H209.027V615.859C209.769 615.859 210.48 615.699 211.159 615.379C211.847 615.059 212.495 614.637 213.105 614.113C213.714 613.582 214.277 612.98 214.792 612.309C215.316 611.637 215.78 610.949 216.187 610.246C216.593 609.535 216.937 608.84 217.218 608.16C217.507 607.48 217.722 606.871 217.862 606.332H221.097ZM234.614 614.805C234.614 615.227 234.54 615.684 234.391 616.176C234.243 616.66 234.001 617.113 233.665 617.535C233.337 617.949 232.903 618.297 232.364 618.578C231.833 618.859 231.184 619 230.419 619H224.923C224.501 619 224.044 618.926 223.552 618.777C223.067 618.629 222.614 618.391 222.192 618.062C221.778 617.727 221.43 617.293 221.149 616.762C220.868 616.223 220.727 615.57 220.727 614.805C220.727 614.383 220.802 613.926 220.95 613.434C221.098 612.941 221.337 612.488 221.665 612.074C222.001 611.652 222.434 611.301 222.966 611.02C223.505 610.738 224.157 610.598 224.923 610.598H230.419V613.504H224.923C224.509 613.504 224.188 613.633 223.962 613.891C223.735 614.141 223.622 614.453 223.622 614.828C223.622 615.227 223.751 615.539 224.009 615.766C224.274 615.984 224.587 616.094 224.946 616.094H230.419C230.833 616.094 231.153 615.969 231.38 615.719C231.606 615.469 231.72 615.156 231.72 614.781V610.527C231.72 610.129 231.595 609.812 231.345 609.578C231.102 609.344 230.794 609.227 230.419 609.227H223.727V606.332H230.419C230.841 606.332 231.294 606.406 231.778 606.555C232.27 606.703 232.723 606.945 233.138 607.281C233.559 607.609 233.911 608.043 234.192 608.582C234.473 609.113 234.614 609.762 234.614 610.527V614.805ZM250.991 619H247.944V611.969C247.944 611.57 247.874 611.215 247.733 610.902C247.6 610.582 247.417 610.309 247.182 610.082C246.948 609.855 246.67 609.684 246.35 609.566C246.038 609.441 245.698 609.379 245.331 609.379H239.999V619H236.952V607.844C236.952 607.633 236.991 607.438 237.069 607.258C237.147 607.07 237.256 606.91 237.397 606.777C237.538 606.637 237.702 606.527 237.889 606.449C238.077 606.371 238.276 606.332 238.487 606.332H245.354C245.737 606.332 246.139 606.375 246.561 606.461C246.991 606.547 247.413 606.688 247.827 606.883C248.249 607.07 248.647 607.312 249.022 607.609C249.405 607.898 249.741 608.254 250.03 608.676C250.327 609.09 250.561 609.57 250.733 610.117C250.905 610.664 250.991 611.281 250.991 611.969V619ZM122.726 655H119.656V644.992L114.253 654.496C114.121 654.738 113.933 654.922 113.691 655.047C113.457 655.172 113.203 655.234 112.929 655.234C112.664 655.234 112.414 655.172 112.179 655.047C111.953 654.922 111.773 654.738 111.64 654.496L106.214 644.992V655H103.168V639.496C103.168 639.145 103.269 638.832 103.472 638.559C103.683 638.285 103.957 638.102 104.293 638.008C104.457 637.969 104.621 637.957 104.785 637.973C104.949 637.98 105.105 638.016 105.253 638.078C105.41 638.133 105.55 638.215 105.675 638.324C105.8 638.426 105.906 638.551 105.992 638.699L112.929 650.758L119.867 638.699C120.046 638.402 120.293 638.191 120.605 638.066C120.925 637.941 121.257 637.922 121.601 638.008C121.929 638.102 122.199 638.285 122.41 638.559C122.621 638.832 122.726 639.145 122.726 639.496V655ZM138.681 650.805C138.681 651.227 138.607 651.684 138.458 652.176C138.31 652.66 138.068 653.113 137.732 653.535C137.404 653.949 136.97 654.297 136.431 654.578C135.9 654.859 135.251 655 134.486 655H128.989C128.568 655 128.111 654.926 127.618 654.777C127.134 654.629 126.681 654.391 126.259 654.062C125.845 653.727 125.497 653.293 125.216 652.762C124.935 652.223 124.794 651.57 124.794 650.805C124.794 650.383 124.868 649.926 125.017 649.434C125.165 648.941 125.404 648.488 125.732 648.074C126.068 647.652 126.501 647.301 127.032 647.02C127.571 646.738 128.224 646.598 128.989 646.598H134.486V649.504H128.989C128.575 649.504 128.255 649.633 128.029 649.891C127.802 650.141 127.689 650.453 127.689 650.828C127.689 651.227 127.818 651.539 128.075 651.766C128.341 651.984 128.654 652.094 129.013 652.094H134.486C134.9 652.094 135.22 651.969 135.446 651.719C135.673 651.469 135.786 651.156 135.786 650.781V646.527C135.786 646.129 135.661 645.812 135.411 645.578C135.169 645.344 134.861 645.227 134.486 645.227H127.794V642.332H134.486C134.907 642.332 135.361 642.406 135.845 642.555C136.337 642.703 136.79 642.945 137.204 643.281C137.626 643.609 137.978 644.043 138.259 644.582C138.54 645.113 138.681 645.762 138.681 646.527V650.805ZM152.104 645.379H145.249C144.835 645.379 144.522 645.484 144.311 645.695C144.1 645.898 143.995 646.199 143.995 646.598V655H140.948V646.598C140.948 646.074 141.015 645.605 141.147 645.191C141.28 644.777 141.456 644.414 141.675 644.102C141.901 643.781 142.159 643.512 142.448 643.293C142.737 643.066 143.038 642.883 143.35 642.742C143.671 642.602 143.991 642.5 144.311 642.438C144.64 642.367 144.944 642.332 145.225 642.332H152.104V645.379ZM168.739 655H164.344L158.204 649.07C157.86 648.758 157.7 648.367 157.723 647.898C157.739 647.68 157.793 647.477 157.887 647.289C157.989 647.094 158.126 646.93 158.297 646.797L163.864 642.309H168.739L161.567 648.086L168.739 655ZM156.95 655H153.903V636.977H156.95V655ZM183.393 646.527C183.393 646.949 183.319 647.406 183.17 647.898C183.022 648.383 182.779 648.836 182.444 649.258C182.115 649.672 181.682 650.02 181.143 650.301C180.612 650.582 179.963 650.723 179.197 650.723H173.701V647.828H179.197C179.612 647.828 179.932 647.703 180.158 647.453C180.385 647.195 180.498 646.879 180.498 646.504C180.498 646.105 180.369 645.793 180.112 645.566C179.862 645.34 179.557 645.227 179.197 645.227H173.701C173.287 645.227 172.967 645.355 172.74 645.613C172.514 645.863 172.401 646.176 172.401 646.551V650.805C172.401 651.211 172.526 651.527 172.776 651.754C173.033 651.98 173.35 652.094 173.725 652.094H179.197V655H173.701C173.279 655 172.822 654.926 172.33 654.777C171.846 654.629 171.393 654.391 170.971 654.062C170.557 653.727 170.209 653.293 169.928 652.762C169.647 652.223 169.506 651.57 169.506 650.805V646.527C169.506 646.105 169.58 645.652 169.729 645.168C169.877 644.676 170.115 644.223 170.444 643.809C170.779 643.387 171.213 643.035 171.744 642.754C172.283 642.473 172.936 642.332 173.701 642.332H179.197C179.619 642.332 180.072 642.406 180.557 642.555C181.049 642.703 181.502 642.945 181.916 643.281C182.338 643.609 182.69 644.043 182.971 644.582C183.252 645.113 183.393 645.762 183.393 646.527ZM196.699 645.379H191.379V655H188.297V645.379H184.336V642.332H188.297V638.195H191.379V642.332H196.699V645.379ZM201.533 639.73H198.486V636.977H201.533V639.73ZM201.533 655H198.486V642.332H201.533V655ZM218.237 655H215.191V647.969C215.191 647.57 215.12 647.215 214.98 646.902C214.847 646.582 214.663 646.309 214.429 646.082C214.195 645.855 213.917 645.684 213.597 645.566C213.284 645.441 212.945 645.379 212.577 645.379H207.245V655H204.198V643.844C204.198 643.633 204.237 643.438 204.316 643.258C204.394 643.07 204.503 642.91 204.644 642.777C204.784 642.637 204.948 642.527 205.136 642.449C205.323 642.371 205.523 642.332 205.734 642.332H212.601C212.984 642.332 213.386 642.375 213.808 642.461C214.237 642.547 214.659 642.688 215.073 642.883C215.495 643.07 215.894 643.312 216.269 643.609C216.652 643.898 216.987 644.254 217.277 644.676C217.573 645.09 217.808 645.57 217.98 646.117C218.152 646.664 218.237 647.281 218.237 647.969V655ZM234.427 656.219C234.427 656.742 234.36 657.211 234.227 657.625C234.095 658.047 233.919 658.414 233.7 658.727C233.481 659.047 233.227 659.316 232.938 659.535C232.649 659.762 232.345 659.945 232.024 660.086C231.712 660.227 231.391 660.328 231.063 660.391C230.743 660.461 230.438 660.496 230.149 660.496H224.653V657.449H230.149C230.563 657.449 230.872 657.344 231.075 657.133C231.278 656.922 231.38 656.617 231.38 656.219V646.598C231.38 646.199 231.278 645.898 231.075 645.695C230.872 645.484 230.563 645.379 230.149 645.379H224.653C224.278 645.379 223.981 645.496 223.763 645.73C223.544 645.957 223.434 646.246 223.434 646.598V650.723C223.434 651.121 223.54 651.426 223.751 651.637C223.962 651.848 224.27 651.953 224.677 651.953H230.149V655H224.653C224.364 655 224.059 654.969 223.739 654.906C223.419 654.836 223.098 654.73 222.778 654.59C222.466 654.449 222.165 654.27 221.876 654.051C221.587 653.824 221.333 653.555 221.114 653.242C220.895 652.922 220.72 652.555 220.587 652.141C220.454 651.719 220.388 651.246 220.388 650.723V646.598C220.388 646.309 220.419 646.004 220.481 645.684C220.552 645.363 220.657 645.047 220.798 644.734C220.938 644.414 221.118 644.109 221.337 643.82C221.563 643.531 221.833 643.277 222.145 643.059C222.466 642.84 222.833 642.664 223.247 642.531C223.661 642.398 224.13 642.332 224.653 642.332H230.149C230.438 642.332 230.743 642.367 231.063 642.438C231.391 642.5 231.712 642.602 232.024 642.742C232.345 642.883 232.649 643.066 232.938 643.293C233.227 643.512 233.481 643.781 233.7 644.102C233.919 644.414 234.095 644.777 234.227 645.191C234.36 645.605 234.427 646.074 234.427 646.598V656.219ZM262.469 648.203C262.469 649.227 262.293 650.168 261.942 651.027C261.59 651.887 261.102 652.629 260.477 653.254C259.852 653.879 259.11 654.367 258.25 654.719C257.399 655.062 256.469 655.234 255.461 655.234H251.336C250.328 655.234 249.395 655.062 248.535 654.719C247.676 654.367 246.934 653.879 246.309 653.254C245.684 652.629 245.192 651.887 244.832 651.027C244.481 650.168 244.305 649.227 244.305 648.203V644.992C244.305 643.977 244.481 643.039 244.832 642.18C245.192 641.312 245.684 640.57 246.309 639.953C246.934 639.328 247.676 638.84 248.535 638.488C249.395 638.137 250.328 637.961 251.336 637.961H255.461C256.469 637.961 257.399 638.137 258.25 638.488C259.11 638.84 259.852 639.328 260.477 639.953C261.102 640.57 261.59 641.312 261.942 642.18C262.293 643.039 262.469 643.977 262.469 644.992V648.203ZM259.422 644.992C259.422 644.391 259.324 643.848 259.129 643.363C258.942 642.871 258.672 642.453 258.32 642.109C257.977 641.758 257.559 641.488 257.067 641.301C256.582 641.105 256.047 641.008 255.461 641.008H251.336C250.742 641.008 250.199 641.105 249.707 641.301C249.223 641.488 248.805 641.758 248.453 642.109C248.102 642.453 247.828 642.871 247.633 643.363C247.445 643.848 247.352 644.391 247.352 644.992V648.203C247.352 648.805 247.445 649.352 247.633 649.844C247.828 650.328 248.102 650.746 248.453 651.098C248.805 651.441 249.223 651.711 249.707 651.906C250.199 652.094 250.742 652.188 251.336 652.188H255.438C256.031 652.188 256.57 652.094 257.055 651.906C257.547 651.711 257.969 651.441 258.32 651.098C258.672 650.746 258.942 650.328 259.129 649.844C259.324 649.352 259.422 648.805 259.422 648.203V644.992ZM276.092 645.379H269.201V642.332H276.092V645.379ZM276.092 639.883H269.224C268.81 639.883 268.498 639.988 268.287 640.199C268.076 640.402 267.971 640.703 267.971 641.102V655H264.924V641.102C264.924 640.578 264.99 640.109 265.123 639.695C265.256 639.281 265.431 638.918 265.65 638.605C265.877 638.285 266.135 638.016 266.424 637.797C266.713 637.57 267.013 637.387 267.326 637.246C267.646 637.105 267.967 637.004 268.287 636.941C268.607 636.871 268.912 636.836 269.201 636.836H276.092V639.883ZM289.046 639.883H282.179C281.765 639.883 281.453 639.988 281.242 640.199C281.031 640.402 280.925 640.703 280.925 641.102V655H277.878V641.102C277.878 640.578 277.945 640.109 278.078 639.695C278.21 639.281 278.386 638.918 278.605 638.605C278.832 638.285 279.089 638.016 279.378 637.797C279.667 637.57 279.968 637.387 280.281 637.246C280.601 637.105 280.921 637.004 281.242 636.941C281.562 636.871 281.867 636.836 282.156 636.836H289.046V639.883ZM293.429 655H290.382L290.359 645.379H282.156V642.332H293.453L293.429 655ZM293.429 639.883H290.382V636.883H293.429V639.883ZM308.353 655H300.091C299.669 655 299.208 654.926 298.708 654.777C298.208 654.629 297.743 654.387 297.314 654.051C296.892 653.707 296.536 653.266 296.247 652.727C295.966 652.18 295.825 651.512 295.825 650.723V646.598C295.825 646.309 295.857 646.004 295.919 645.684C295.989 645.363 296.095 645.047 296.236 644.734C296.376 644.414 296.556 644.109 296.775 643.82C297.001 643.531 297.271 643.277 297.583 643.059C297.903 642.84 298.271 642.664 298.685 642.531C299.099 642.398 299.568 642.332 300.091 642.332H308.353V645.379H300.091C299.693 645.379 299.388 645.48 299.177 645.684C298.974 645.887 298.872 646.199 298.872 646.621V650.723C298.872 651.121 298.978 651.426 299.189 651.637C299.4 651.848 299.708 651.953 300.114 651.953H308.353V655ZM324.143 646.527C324.143 646.949 324.069 647.406 323.921 647.898C323.772 648.383 323.53 648.836 323.194 649.258C322.866 649.672 322.432 650.02 321.893 650.301C321.362 650.582 320.714 650.723 319.948 650.723H314.452V647.828H319.948C320.362 647.828 320.682 647.703 320.909 647.453C321.136 647.195 321.249 646.879 321.249 646.504C321.249 646.105 321.12 645.793 320.862 645.566C320.612 645.34 320.307 645.227 319.948 645.227H314.452C314.038 645.227 313.718 645.355 313.491 645.613C313.264 645.863 313.151 646.176 313.151 646.551V650.805C313.151 651.211 313.276 651.527 313.526 651.754C313.784 651.98 314.1 652.094 314.475 652.094H319.948V655H314.452C314.03 655 313.573 654.926 313.081 654.777C312.596 654.629 312.143 654.391 311.721 654.062C311.307 653.727 310.96 653.293 310.679 652.762C310.397 652.223 310.257 651.57 310.257 650.805V646.527C310.257 646.105 310.331 645.652 310.479 645.168C310.628 644.676 310.866 644.223 311.194 643.809C311.53 643.387 311.964 643.035 312.495 642.754C313.034 642.473 313.686 642.332 314.452 642.332H319.948C320.37 642.332 320.823 642.406 321.307 642.555C321.8 642.703 322.253 642.945 322.667 643.281C323.089 643.609 323.44 644.043 323.721 644.582C324.003 645.113 324.143 645.762 324.143 646.527ZM337.016 645.379H330.161C329.747 645.379 329.434 645.484 329.223 645.695C329.012 645.898 328.907 646.199 328.907 646.598V655H325.86V646.598C325.86 646.074 325.926 645.605 326.059 645.191C326.192 644.777 326.368 644.414 326.586 644.102C326.813 643.781 327.071 643.512 327.36 643.293C327.649 643.066 327.95 642.883 328.262 642.742C328.582 642.602 328.903 642.5 329.223 642.438C329.551 642.367 329.856 642.332 330.137 642.332H337.016V645.379Z" fill="white"/>
<path d="M1102.43 805.055C1102.43 805.656 1102.35 806.199 1102.2 806.684C1102.05 807.16 1101.85 807.582 1101.6 807.949C1101.35 808.316 1101.06 808.629 1100.72 808.887C1100.38 809.145 1100.04 809.355 1099.68 809.52C1099.32 809.684 1098.95 809.805 1098.57 809.883C1098.21 809.961 1097.86 810 1097.53 810H1085.78V806.953H1097.53C1098.12 806.953 1098.57 806.781 1098.89 806.438C1099.22 806.094 1099.38 805.633 1099.38 805.055C1099.38 804.773 1099.34 804.516 1099.25 804.281C1099.17 804.047 1099.04 803.844 1098.88 803.672C1098.72 803.5 1098.53 803.367 1098.29 803.273C1098.07 803.18 1097.81 803.133 1097.53 803.133H1090.52C1090.03 803.133 1089.5 803.047 1088.93 802.875C1088.36 802.695 1087.83 802.41 1087.34 802.02C1086.85 801.629 1086.45 801.117 1086.12 800.484C1085.8 799.852 1085.64 799.078 1085.64 798.164C1085.64 797.25 1085.8 796.48 1086.12 795.855C1086.45 795.223 1086.85 794.711 1087.34 794.32C1087.83 793.922 1088.36 793.637 1088.93 793.465C1089.5 793.285 1090.03 793.195 1090.52 793.195H1100.9V796.242H1090.52C1089.95 796.242 1089.49 796.418 1089.16 796.77C1088.84 797.121 1088.68 797.586 1088.68 798.164C1088.68 798.75 1088.84 799.215 1089.16 799.559C1089.49 799.895 1089.95 800.062 1090.52 800.062H1097.53H1097.56C1097.88 800.07 1098.23 800.117 1098.6 800.203C1098.97 800.281 1099.33 800.406 1099.69 800.578C1100.06 800.75 1100.4 800.969 1100.73 801.234C1101.06 801.492 1101.35 801.805 1101.6 802.172C1101.86 802.539 1102.06 802.961 1102.21 803.438C1102.36 803.914 1102.43 804.453 1102.43 805.055ZM1117.44 805.805C1117.44 806.227 1117.36 806.684 1117.21 807.176C1117.06 807.66 1116.82 808.113 1116.49 808.535C1116.16 808.949 1115.72 809.297 1115.19 809.578C1114.65 809.859 1114.01 810 1113.24 810H1107.74C1107.32 810 1106.87 809.926 1106.37 809.777C1105.89 809.629 1105.44 809.391 1105.01 809.062C1104.6 808.727 1104.25 808.293 1103.97 807.762C1103.69 807.223 1103.55 806.57 1103.55 805.805C1103.55 805.383 1103.62 804.926 1103.77 804.434C1103.92 803.941 1104.16 803.488 1104.49 803.074C1104.82 802.652 1105.26 802.301 1105.79 802.02C1106.33 801.738 1106.98 801.598 1107.74 801.598H1113.24V804.504H1107.74C1107.33 804.504 1107.01 804.633 1106.78 804.891C1106.56 805.141 1106.44 805.453 1106.44 805.828C1106.44 806.227 1106.57 806.539 1106.83 806.766C1107.1 806.984 1107.41 807.094 1107.77 807.094H1113.24C1113.65 807.094 1113.97 806.969 1114.2 806.719C1114.43 806.469 1114.54 806.156 1114.54 805.781V801.527C1114.54 801.129 1114.42 800.812 1114.17 800.578C1113.92 800.344 1113.62 800.227 1113.24 800.227H1106.55V797.332H1113.24C1113.66 797.332 1114.12 797.406 1114.6 797.555C1115.09 797.703 1115.55 797.945 1115.96 798.281C1116.38 798.609 1116.73 799.043 1117.01 799.582C1117.3 800.113 1117.44 800.762 1117.44 801.527V805.805ZM1130.86 800.379H1124C1123.59 800.379 1123.28 800.484 1123.07 800.695C1122.86 800.898 1122.75 801.199 1122.75 801.598V810H1119.7V801.598C1119.7 801.074 1119.77 800.605 1119.9 800.191C1120.04 799.777 1120.21 799.414 1120.43 799.102C1120.66 798.781 1120.91 798.512 1121.2 798.293C1121.49 798.066 1121.79 797.883 1122.11 797.742C1122.43 797.602 1122.75 797.5 1123.07 797.438C1123.39 797.367 1123.7 797.332 1123.98 797.332H1130.86V800.379ZM1144.7 805.805C1144.7 806.227 1144.63 806.684 1144.48 807.176C1144.33 807.66 1144.09 808.113 1143.76 808.535C1143.43 808.949 1142.99 809.297 1142.45 809.578C1141.92 809.859 1141.28 810 1140.51 810H1135.01C1134.59 810 1134.13 809.926 1133.64 809.777C1133.16 809.629 1132.7 809.391 1132.28 809.062C1131.87 808.727 1131.52 808.293 1131.24 807.762C1130.96 807.223 1130.82 806.57 1130.82 805.805C1130.82 805.383 1130.89 804.926 1131.04 804.434C1131.19 803.941 1131.43 803.488 1131.76 803.074C1132.09 802.652 1132.53 802.301 1133.06 802.02C1133.6 801.738 1134.25 801.598 1135.01 801.598H1140.51V804.504H1135.01C1134.6 804.504 1134.28 804.633 1134.05 804.891C1133.83 805.141 1133.71 805.453 1133.71 805.828C1133.71 806.227 1133.84 806.539 1134.1 806.766C1134.36 806.984 1134.68 807.094 1135.04 807.094H1140.51C1140.92 807.094 1141.24 806.969 1141.47 806.719C1141.7 806.469 1141.81 806.156 1141.81 805.781V801.527C1141.81 801.129 1141.69 800.812 1141.44 800.578C1141.19 800.344 1140.88 800.227 1140.51 800.227H1133.82V797.332H1140.51C1140.93 797.332 1141.38 797.406 1141.87 797.555C1142.36 797.703 1142.81 797.945 1143.23 798.281C1143.65 798.609 1144 799.043 1144.28 799.582C1144.56 800.113 1144.7 800.762 1144.7 801.527V805.805ZM1161.13 810H1158.08V801.598C1158.08 801.199 1157.98 800.898 1157.78 800.695C1157.57 800.484 1157.27 800.379 1156.86 800.379H1151.37V797.332H1156.86C1157.15 797.332 1157.46 797.367 1157.78 797.438C1158.1 797.5 1158.41 797.602 1158.73 797.742C1159.05 797.883 1159.35 798.066 1159.64 798.293C1159.93 798.512 1160.18 798.781 1160.4 799.102C1160.62 799.414 1160.8 799.777 1160.93 800.191C1161.06 800.605 1161.13 801.074 1161.13 801.598V810ZM1150.14 810H1147.09V791.977H1150.14V810ZM1026.73 846H1023.66V835.992L1018.25 845.496C1018.12 845.738 1017.93 845.922 1017.69 846.047C1017.46 846.172 1017.2 846.234 1016.93 846.234C1016.66 846.234 1016.41 846.172 1016.18 846.047C1015.95 845.922 1015.77 845.738 1015.64 845.496L1010.21 835.992V846H1007.17V830.496C1007.17 830.145 1007.27 829.832 1007.47 829.559C1007.68 829.285 1007.96 829.102 1008.29 829.008C1008.46 828.969 1008.62 828.957 1008.78 828.973C1008.95 828.98 1009.11 829.016 1009.25 829.078C1009.41 829.133 1009.55 829.215 1009.68 829.324C1009.8 829.426 1009.91 829.551 1009.99 829.699L1016.93 841.758L1023.87 829.699C1024.05 829.402 1024.29 829.191 1024.61 829.066C1024.93 828.941 1025.26 828.922 1025.6 829.008C1025.93 829.102 1026.2 829.285 1026.41 829.559C1026.62 829.832 1026.73 830.145 1026.73 830.496V846ZM1042.68 841.805C1042.68 842.227 1042.61 842.684 1042.46 843.176C1042.31 843.66 1042.07 844.113 1041.73 844.535C1041.4 844.949 1040.97 845.297 1040.43 845.578C1039.9 845.859 1039.25 846 1038.49 846H1032.99C1032.57 846 1032.11 845.926 1031.62 845.777C1031.13 845.629 1030.68 845.391 1030.26 845.062C1029.84 844.727 1029.5 844.293 1029.22 843.762C1028.93 843.223 1028.79 842.57 1028.79 841.805C1028.79 841.383 1028.87 840.926 1029.02 840.434C1029.17 839.941 1029.4 839.488 1029.73 839.074C1030.07 838.652 1030.5 838.301 1031.03 838.02C1031.57 837.738 1032.22 837.598 1032.99 837.598H1038.49V840.504H1032.99C1032.58 840.504 1032.26 840.633 1032.03 840.891C1031.8 841.141 1031.69 841.453 1031.69 841.828C1031.69 842.227 1031.82 842.539 1032.08 842.766C1032.34 842.984 1032.65 843.094 1033.01 843.094H1038.49C1038.9 843.094 1039.22 842.969 1039.45 842.719C1039.67 842.469 1039.79 842.156 1039.79 841.781V837.527C1039.79 837.129 1039.66 836.812 1039.41 836.578C1039.17 836.344 1038.86 836.227 1038.49 836.227H1031.79V833.332H1038.49C1038.91 833.332 1039.36 833.406 1039.84 833.555C1040.34 833.703 1040.79 833.945 1041.2 834.281C1041.63 834.609 1041.98 835.043 1042.26 835.582C1042.54 836.113 1042.68 836.762 1042.68 837.527V841.805ZM1056.1 836.379H1049.25C1048.83 836.379 1048.52 836.484 1048.31 836.695C1048.1 836.898 1047.99 837.199 1047.99 837.598V846H1044.95V837.598C1044.95 837.074 1045.01 836.605 1045.15 836.191C1045.28 835.777 1045.46 835.414 1045.67 835.102C1045.9 834.781 1046.16 834.512 1046.45 834.293C1046.74 834.066 1047.04 833.883 1047.35 833.742C1047.67 833.602 1047.99 833.5 1048.31 833.438C1048.64 833.367 1048.94 833.332 1049.23 833.332H1056.1V836.379ZM1072.74 846H1068.34L1062.2 840.07C1061.86 839.758 1061.7 839.367 1061.72 838.898C1061.74 838.68 1061.79 838.477 1061.89 838.289C1061.99 838.094 1062.13 837.93 1062.3 837.797L1067.86 833.309H1072.74L1065.57 839.086L1072.74 846ZM1060.95 846H1057.9V827.977H1060.95V846ZM1087.39 837.527C1087.39 837.949 1087.32 838.406 1087.17 838.898C1087.02 839.383 1086.78 839.836 1086.44 840.258C1086.12 840.672 1085.68 841.02 1085.14 841.301C1084.61 841.582 1083.96 841.723 1083.2 841.723H1077.7V838.828H1083.2C1083.61 838.828 1083.93 838.703 1084.16 838.453C1084.38 838.195 1084.5 837.879 1084.5 837.504C1084.5 837.105 1084.37 836.793 1084.11 836.566C1083.86 836.34 1083.56 836.227 1083.2 836.227H1077.7C1077.29 836.227 1076.97 836.355 1076.74 836.613C1076.51 836.863 1076.4 837.176 1076.4 837.551V841.805C1076.4 842.211 1076.53 842.527 1076.78 842.754C1077.03 842.98 1077.35 843.094 1077.72 843.094H1083.2V846H1077.7C1077.28 846 1076.82 845.926 1076.33 845.777C1075.85 845.629 1075.39 845.391 1074.97 845.062C1074.56 844.727 1074.21 844.293 1073.93 843.762C1073.65 843.223 1073.51 842.57 1073.51 841.805V837.527C1073.51 837.105 1073.58 836.652 1073.73 836.168C1073.88 835.676 1074.12 835.223 1074.44 834.809C1074.78 834.387 1075.21 834.035 1075.74 833.754C1076.28 833.473 1076.94 833.332 1077.7 833.332H1083.2C1083.62 833.332 1084.07 833.406 1084.56 833.555C1085.05 833.703 1085.5 833.945 1085.92 834.281C1086.34 834.609 1086.69 835.043 1086.97 835.582C1087.25 836.113 1087.39 836.762 1087.39 837.527ZM1100.7 836.379H1095.38V846H1092.3V836.379H1088.34V833.332H1092.3V829.195H1095.38V833.332H1100.7V836.379ZM1105.53 830.73H1102.49V827.977H1105.53V830.73ZM1105.53 846H1102.49V833.332H1105.53V846ZM1122.24 846H1119.19V838.969C1119.19 838.57 1119.12 838.215 1118.98 837.902C1118.85 837.582 1118.66 837.309 1118.43 837.082C1118.19 836.855 1117.92 836.684 1117.6 836.566C1117.28 836.441 1116.94 836.379 1116.58 836.379H1111.25V846H1108.2V834.844C1108.2 834.633 1108.24 834.438 1108.32 834.258C1108.39 834.07 1108.5 833.91 1108.64 833.777C1108.78 833.637 1108.95 833.527 1109.14 833.449C1109.32 833.371 1109.52 833.332 1109.73 833.332H1116.6C1116.98 833.332 1117.39 833.375 1117.81 833.461C1118.24 833.547 1118.66 833.688 1119.07 833.883C1119.5 834.07 1119.89 834.312 1120.27 834.609C1120.65 834.898 1120.99 835.254 1121.28 835.676C1121.57 836.09 1121.81 836.57 1121.98 837.117C1122.15 837.664 1122.24 838.281 1122.24 838.969V846ZM1138.43 847.219C1138.43 847.742 1138.36 848.211 1138.23 848.625C1138.09 849.047 1137.92 849.414 1137.7 849.727C1137.48 850.047 1137.23 850.316 1136.94 850.535C1136.65 850.762 1136.34 850.945 1136.02 851.086C1135.71 851.227 1135.39 851.328 1135.06 851.391C1134.74 851.461 1134.44 851.496 1134.15 851.496H1128.65V848.449H1134.15C1134.56 848.449 1134.87 848.344 1135.08 848.133C1135.28 847.922 1135.38 847.617 1135.38 847.219V837.598C1135.38 837.199 1135.28 836.898 1135.08 836.695C1134.87 836.484 1134.56 836.379 1134.15 836.379H1128.65C1128.28 836.379 1127.98 836.496 1127.76 836.73C1127.54 836.957 1127.43 837.246 1127.43 837.598V841.723C1127.43 842.121 1127.54 842.426 1127.75 842.637C1127.96 842.848 1128.27 842.953 1128.68 842.953H1134.15V846H1128.65C1128.36 846 1128.06 845.969 1127.74 845.906C1127.42 845.836 1127.1 845.73 1126.78 845.59C1126.47 845.449 1126.16 845.27 1125.88 845.051C1125.59 844.824 1125.33 844.555 1125.11 844.242C1124.9 843.922 1124.72 843.555 1124.59 843.141C1124.45 842.719 1124.39 842.246 1124.39 841.723V837.598C1124.39 837.309 1124.42 837.004 1124.48 836.684C1124.55 836.363 1124.66 836.047 1124.8 835.734C1124.94 835.414 1125.12 835.109 1125.34 834.82C1125.56 834.531 1125.83 834.277 1126.15 834.059C1126.47 833.84 1126.83 833.664 1127.25 833.531C1127.66 833.398 1128.13 833.332 1128.65 833.332H1134.15C1134.44 833.332 1134.74 833.367 1135.06 833.438C1135.39 833.5 1135.71 833.602 1136.02 833.742C1136.34 833.883 1136.65 834.066 1136.94 834.293C1137.23 834.512 1137.48 834.781 1137.7 835.102C1137.92 835.414 1138.09 835.777 1138.23 836.191C1138.36 836.605 1138.43 837.074 1138.43 837.598V847.219ZM1166.47 839.203C1166.47 840.227 1166.29 841.168 1165.94 842.027C1165.59 842.887 1165.1 843.629 1164.48 844.254C1163.85 844.879 1163.11 845.367 1162.25 845.719C1161.4 846.062 1160.47 846.234 1159.46 846.234H1155.34C1154.33 846.234 1153.39 846.062 1152.54 845.719C1151.68 845.367 1150.93 844.879 1150.31 844.254C1149.68 843.629 1149.19 842.887 1148.83 842.027C1148.48 841.168 1148.3 840.227 1148.3 839.203V835.992C1148.3 834.977 1148.48 834.039 1148.83 833.18C1149.19 832.312 1149.68 831.57 1150.31 830.953C1150.93 830.328 1151.68 829.84 1152.54 829.488C1153.39 829.137 1154.33 828.961 1155.34 828.961H1159.46C1160.47 828.961 1161.4 829.137 1162.25 829.488C1163.11 829.84 1163.85 830.328 1164.48 830.953C1165.1 831.57 1165.59 832.312 1165.94 833.18C1166.29 834.039 1166.47 834.977 1166.47 835.992V839.203ZM1163.42 835.992C1163.42 835.391 1163.32 834.848 1163.13 834.363C1162.94 833.871 1162.67 833.453 1162.32 833.109C1161.98 832.758 1161.56 832.488 1161.07 832.301C1160.58 832.105 1160.05 832.008 1159.46 832.008H1155.34C1154.74 832.008 1154.2 832.105 1153.71 832.301C1153.22 832.488 1152.8 832.758 1152.45 833.109C1152.1 833.453 1151.83 833.871 1151.63 834.363C1151.45 834.848 1151.35 835.391 1151.35 835.992V839.203C1151.35 839.805 1151.45 840.352 1151.63 840.844C1151.83 841.328 1152.1 841.746 1152.45 842.098C1152.8 842.441 1153.22 842.711 1153.71 842.906C1154.2 843.094 1154.74 843.188 1155.34 843.188H1159.44C1160.03 843.188 1160.57 843.094 1161.05 842.906C1161.55 842.711 1161.97 842.441 1162.32 842.098C1162.67 841.746 1162.94 841.328 1163.13 840.844C1163.32 840.352 1163.42 839.805 1163.42 839.203V835.992ZM1180.09 836.379H1173.2V833.332H1180.09V836.379ZM1180.09 830.883H1173.22C1172.81 830.883 1172.5 830.988 1172.29 831.199C1172.08 831.402 1171.97 831.703 1171.97 832.102V846H1168.92V832.102C1168.92 831.578 1168.99 831.109 1169.12 830.695C1169.26 830.281 1169.43 829.918 1169.65 829.605C1169.88 829.285 1170.13 829.016 1170.42 828.797C1170.71 828.57 1171.01 828.387 1171.33 828.246C1171.65 828.105 1171.97 828.004 1172.29 827.941C1172.61 827.871 1172.91 827.836 1173.2 827.836H1180.09V830.883ZM1193.05 830.883H1186.18C1185.77 830.883 1185.45 830.988 1185.24 831.199C1185.03 831.402 1184.93 831.703 1184.93 832.102V846H1181.88V832.102C1181.88 831.578 1181.94 831.109 1182.08 830.695C1182.21 830.281 1182.39 829.918 1182.6 829.605C1182.83 829.285 1183.09 829.016 1183.38 828.797C1183.67 828.57 1183.97 828.387 1184.28 828.246C1184.6 828.105 1184.92 828.004 1185.24 827.941C1185.56 827.871 1185.87 827.836 1186.16 827.836H1193.05V830.883ZM1197.43 846H1194.38L1194.36 836.379H1186.16V833.332H1197.45L1197.43 846ZM1197.43 830.883H1194.38V827.883H1197.43V830.883ZM1212.35 846H1204.09C1203.67 846 1203.21 845.926 1202.71 845.777C1202.21 845.629 1201.74 845.387 1201.31 845.051C1200.89 844.707 1200.54 844.266 1200.25 843.727C1199.97 843.18 1199.83 842.512 1199.83 841.723V837.598C1199.83 837.309 1199.86 837.004 1199.92 836.684C1199.99 836.363 1200.09 836.047 1200.24 835.734C1200.38 835.414 1200.56 835.109 1200.77 834.82C1201 834.531 1201.27 834.277 1201.58 834.059C1201.9 833.84 1202.27 833.664 1202.68 833.531C1203.1 833.398 1203.57 833.332 1204.09 833.332H1212.35V836.379H1204.09C1203.69 836.379 1203.39 836.48 1203.18 836.684C1202.97 836.887 1202.87 837.199 1202.87 837.621V841.723C1202.87 842.121 1202.98 842.426 1203.19 842.637C1203.4 842.848 1203.71 842.953 1204.11 842.953H1212.35V846ZM1228.14 837.527C1228.14 837.949 1228.07 838.406 1227.92 838.898C1227.77 839.383 1227.53 839.836 1227.19 840.258C1226.87 840.672 1226.43 841.02 1225.89 841.301C1225.36 841.582 1224.71 841.723 1223.95 841.723H1218.45V838.828H1223.95C1224.36 838.828 1224.68 838.703 1224.91 838.453C1225.14 838.195 1225.25 837.879 1225.25 837.504C1225.25 837.105 1225.12 836.793 1224.86 836.566C1224.61 836.34 1224.31 836.227 1223.95 836.227H1218.45C1218.04 836.227 1217.72 836.355 1217.49 836.613C1217.26 836.863 1217.15 837.176 1217.15 837.551V841.805C1217.15 842.211 1217.28 842.527 1217.53 842.754C1217.78 842.98 1218.1 843.094 1218.48 843.094H1223.95V846H1218.45C1218.03 846 1217.57 845.926 1217.08 845.777C1216.6 845.629 1216.14 845.391 1215.72 845.062C1215.31 844.727 1214.96 844.293 1214.68 843.762C1214.4 843.223 1214.26 842.57 1214.26 841.805V837.527C1214.26 837.105 1214.33 836.652 1214.48 836.168C1214.63 835.676 1214.87 835.223 1215.19 834.809C1215.53 834.387 1215.96 834.035 1216.49 833.754C1217.03 833.473 1217.69 833.332 1218.45 833.332H1223.95C1224.37 833.332 1224.82 833.406 1225.31 833.555C1225.8 833.703 1226.25 833.945 1226.67 834.281C1227.09 834.609 1227.44 835.043 1227.72 835.582C1228 836.113 1228.14 836.762 1228.14 837.527ZM1241.02 836.379H1234.16C1233.75 836.379 1233.43 836.484 1233.22 836.695C1233.01 836.898 1232.91 837.199 1232.91 837.598V846H1229.86V837.598C1229.86 837.074 1229.93 836.605 1230.06 836.191C1230.19 835.777 1230.37 835.414 1230.59 835.102C1230.81 834.781 1231.07 834.512 1231.36 834.293C1231.65 834.066 1231.95 833.883 1232.26 833.742C1232.58 833.602 1232.9 833.5 1233.22 833.438C1233.55 833.367 1233.86 833.332 1234.14 833.332H1241.02V836.379Z" fill="white"/>
<path d="M93.8835 1349H89.5592L82.7038 1342.13H80.5592V1339.06H82.7038L89.5592 1332.2H93.8835L85.2467 1340.6L93.8835 1349ZM79.3405 1349H76.2936V1332.2H79.3405V1349ZM108.373 1340.53C108.373 1340.95 108.299 1341.41 108.151 1341.9C108.002 1342.38 107.76 1342.84 107.424 1343.26C107.096 1343.67 106.662 1344.02 106.123 1344.3C105.592 1344.58 104.944 1344.72 104.178 1344.72H98.682V1341.83H104.178C104.592 1341.83 104.912 1341.7 105.139 1341.45C105.366 1341.2 105.479 1340.88 105.479 1340.5C105.479 1340.11 105.35 1339.79 105.092 1339.57C104.842 1339.34 104.537 1339.23 104.178 1339.23H98.682C98.2679 1339.23 97.9476 1339.36 97.721 1339.61C97.4945 1339.86 97.3812 1340.18 97.3812 1340.55V1344.8C97.3812 1345.21 97.5062 1345.53 97.7562 1345.75C98.014 1345.98 98.3304 1346.09 98.7054 1346.09H104.178V1349H98.682C98.2601 1349 97.8031 1348.93 97.3109 1348.78C96.8265 1348.63 96.3734 1348.39 95.9515 1348.06C95.5374 1347.73 95.1898 1347.29 94.9085 1346.76C94.6273 1346.22 94.4867 1345.57 94.4867 1344.8V1340.53C94.4867 1340.11 94.5609 1339.65 94.7093 1339.17C94.8577 1338.68 95.096 1338.22 95.4242 1337.81C95.7601 1337.39 96.1937 1337.04 96.7249 1336.75C97.264 1336.47 97.9163 1336.33 98.682 1336.33H104.178C104.6 1336.33 105.053 1336.41 105.537 1336.55C106.03 1336.7 106.483 1336.95 106.897 1337.28C107.319 1337.61 107.67 1338.04 107.951 1338.58C108.233 1339.11 108.373 1339.76 108.373 1340.53ZM124.199 1349H121.152V1341.97C121.152 1341.57 121.082 1341.21 120.941 1340.9C120.809 1340.58 120.625 1340.31 120.391 1340.08C120.156 1339.86 119.879 1339.68 119.559 1339.57C119.246 1339.44 118.906 1339.38 118.539 1339.38H113.207V1349H110.16V1337.84C110.16 1337.63 110.199 1337.44 110.277 1337.26C110.355 1337.07 110.465 1336.91 110.605 1336.78C110.746 1336.64 110.91 1336.53 111.098 1336.45C111.285 1336.37 111.484 1336.33 111.695 1336.33H118.562C118.945 1336.33 119.348 1336.38 119.77 1336.46C120.199 1336.55 120.621 1336.69 121.035 1336.88C121.457 1337.07 121.855 1337.31 122.23 1337.61C122.613 1337.9 122.949 1338.25 123.238 1338.68C123.535 1339.09 123.77 1339.57 123.941 1340.12C124.113 1340.66 124.199 1341.28 124.199 1341.97V1349ZM140.646 1349H137.599V1341.97C137.599 1341.57 137.529 1341.21 137.388 1340.9C137.256 1340.58 137.072 1340.31 136.838 1340.08C136.603 1339.86 136.326 1339.68 136.006 1339.57C135.693 1339.44 135.353 1339.38 134.986 1339.38H129.654V1349H126.607V1337.84C126.607 1337.63 126.646 1337.44 126.724 1337.26C126.802 1337.07 126.912 1336.91 127.052 1336.78C127.193 1336.64 127.357 1336.53 127.545 1336.45C127.732 1336.37 127.931 1336.33 128.142 1336.33H135.009C135.392 1336.33 135.795 1336.38 136.216 1336.46C136.646 1336.55 137.068 1336.69 137.482 1336.88C137.904 1337.07 138.302 1337.31 138.677 1337.61C139.06 1337.9 139.396 1338.25 139.685 1338.68C139.982 1339.09 140.216 1339.57 140.388 1340.12C140.56 1340.66 140.646 1341.28 140.646 1341.97V1349ZM157.023 1350.22C157.023 1350.74 156.956 1351.21 156.824 1351.62C156.691 1352.05 156.515 1352.41 156.296 1352.73C156.077 1353.05 155.824 1353.32 155.535 1353.54C155.245 1353.76 154.941 1353.95 154.62 1354.09C154.308 1354.23 153.992 1354.33 153.671 1354.39C153.351 1354.46 153.046 1354.5 152.757 1354.5H147.261V1351.45H152.757C153.163 1351.45 153.468 1351.34 153.671 1351.13C153.874 1350.92 153.976 1350.62 153.976 1350.22V1336.33H157.023V1350.22ZM152.757 1349H147.261C146.824 1349 146.355 1348.93 145.855 1348.78C145.363 1348.63 144.902 1348.39 144.472 1348.05C144.042 1347.71 143.687 1347.27 143.406 1346.73C143.124 1346.18 142.984 1345.51 142.984 1344.72V1336.33H146.031V1344.72C146.031 1345.12 146.136 1345.43 146.347 1345.64C146.558 1345.85 146.87 1345.95 147.285 1345.95H152.757V1349ZM19.7261 1385H16.6558V1374.99L11.2534 1384.5C11.1206 1384.74 10.9331 1384.92 10.6909 1385.05C10.4566 1385.17 10.2027 1385.23 9.92922 1385.23C9.6636 1385.23 9.4136 1385.17 9.17922 1385.05C8.95266 1384.92 8.77297 1384.74 8.64016 1384.5L3.21438 1374.99V1385H0.167503V1369.5C0.167503 1369.14 0.269066 1368.83 0.472191 1368.56C0.683128 1368.29 0.956566 1368.1 1.2925 1368.01C1.45657 1367.97 1.62063 1367.96 1.78469 1367.97C1.94875 1367.98 2.105 1368.02 2.25344 1368.08C2.40969 1368.13 2.55032 1368.21 2.67532 1368.32C2.80032 1368.43 2.90578 1368.55 2.99172 1368.7L9.92922 1380.76L16.8667 1368.7C17.0464 1368.4 17.2925 1368.19 17.605 1368.07C17.9253 1367.94 18.2573 1367.92 18.6011 1368.01C18.9292 1368.1 19.1988 1368.29 19.4097 1368.56C19.6206 1368.83 19.7261 1369.14 19.7261 1369.5V1385ZM35.6808 1380.8C35.6808 1381.23 35.6066 1381.68 35.4582 1382.18C35.3098 1382.66 35.0676 1383.11 34.7316 1383.54C34.4035 1383.95 33.9699 1384.3 33.4308 1384.58C32.8996 1384.86 32.2512 1385 31.4855 1385H25.9894C25.5676 1385 25.1105 1384.93 24.6183 1384.78C24.134 1384.63 23.6808 1384.39 23.259 1384.06C22.8449 1383.73 22.4973 1383.29 22.216 1382.76C21.9348 1382.22 21.7941 1381.57 21.7941 1380.8C21.7941 1380.38 21.8683 1379.93 22.0168 1379.43C22.1652 1378.94 22.4035 1378.49 22.7316 1378.07C23.0676 1377.65 23.5012 1377.3 24.0324 1377.02C24.5715 1376.74 25.2238 1376.6 25.9894 1376.6H31.4855V1379.5H25.9894C25.5754 1379.5 25.2551 1379.63 25.0285 1379.89C24.8019 1380.14 24.6887 1380.45 24.6887 1380.83C24.6887 1381.23 24.8176 1381.54 25.0754 1381.77C25.341 1381.98 25.6535 1382.09 26.0129 1382.09H31.4855C31.8996 1382.09 32.2199 1381.97 32.4465 1381.72C32.673 1381.47 32.7863 1381.16 32.7863 1380.78V1376.53C32.7863 1376.13 32.6613 1375.81 32.4113 1375.58C32.1691 1375.34 31.8605 1375.23 31.4855 1375.23H24.7941V1372.33H31.4855C31.9074 1372.33 32.3605 1372.41 32.8449 1372.55C33.3371 1372.7 33.7902 1372.95 34.2043 1373.28C34.6262 1373.61 34.9777 1374.04 35.259 1374.58C35.5402 1375.11 35.6808 1375.76 35.6808 1376.53V1380.8ZM49.1043 1375.38H42.2489C41.8348 1375.38 41.5223 1375.48 41.3114 1375.7C41.1004 1375.9 40.995 1376.2 40.995 1376.6V1385H37.9481V1376.6C37.9481 1376.07 38.0145 1375.61 38.1473 1375.19C38.2801 1374.78 38.4559 1374.41 38.6747 1374.1C38.9012 1373.78 39.159 1373.51 39.4481 1373.29C39.7372 1373.07 40.0379 1372.88 40.3504 1372.74C40.6708 1372.6 40.9911 1372.5 41.3114 1372.44C41.6395 1372.37 41.9442 1372.33 42.2254 1372.33H49.1043V1375.38ZM65.7388 1385H61.3443L55.2036 1379.07C54.8599 1378.76 54.6997 1378.37 54.7232 1377.9C54.7388 1377.68 54.7935 1377.48 54.8872 1377.29C54.9888 1377.09 55.1255 1376.93 55.2974 1376.8L60.8638 1372.31H65.7388L58.5669 1378.09L65.7388 1385ZM53.9497 1385H50.9028V1366.98H53.9497V1385ZM80.3928 1376.53C80.3928 1376.95 80.3185 1377.41 80.1701 1377.9C80.0217 1378.38 79.7795 1378.84 79.4435 1379.26C79.1154 1379.67 78.6818 1380.02 78.1428 1380.3C77.6115 1380.58 76.9631 1380.72 76.1974 1380.72H70.7013V1377.83H76.1974C76.6115 1377.83 76.9318 1377.7 77.1584 1377.45C77.3849 1377.2 77.4982 1376.88 77.4982 1376.5C77.4982 1376.11 77.3693 1375.79 77.1115 1375.57C76.8615 1375.34 76.5568 1375.23 76.1974 1375.23H70.7013C70.2873 1375.23 69.967 1375.36 69.7404 1375.61C69.5138 1375.86 69.4006 1376.18 69.4006 1376.55V1380.8C69.4006 1381.21 69.5256 1381.53 69.7756 1381.75C70.0334 1381.98 70.3498 1382.09 70.7248 1382.09H76.1974V1385H70.7013C70.2795 1385 69.8224 1384.93 69.3303 1384.78C68.8459 1384.63 68.3928 1384.39 67.9709 1384.06C67.5568 1383.73 67.2092 1383.29 66.9279 1382.76C66.6467 1382.22 66.506 1381.57 66.506 1380.8V1376.53C66.506 1376.11 66.5803 1375.65 66.7287 1375.17C66.8771 1374.68 67.1154 1374.22 67.4435 1373.81C67.7795 1373.39 68.2131 1373.04 68.7443 1372.75C69.2834 1372.47 69.9357 1372.33 70.7013 1372.33H76.1974C76.6193 1372.33 77.0724 1372.41 77.5568 1372.55C78.049 1372.7 78.5021 1372.95 78.9162 1373.28C79.3381 1373.61 79.6896 1374.04 79.9709 1374.58C80.2521 1375.11 80.3928 1375.76 80.3928 1376.53ZM93.6991 1375.38H88.3788V1385H85.2967V1375.38H81.3358V1372.33H85.2967V1368.2H88.3788V1372.33H93.6991V1375.38ZM98.5327 1369.73H95.4858V1366.98H98.5327V1369.73ZM98.5327 1385H95.4858V1372.33H98.5327V1385ZM115.237 1385H112.191V1377.97C112.191 1377.57 112.12 1377.21 111.98 1376.9C111.847 1376.58 111.663 1376.31 111.429 1376.08C111.195 1375.86 110.917 1375.68 110.597 1375.57C110.284 1375.44 109.945 1375.38 109.577 1375.38H104.245V1385H101.198V1373.84C101.198 1373.63 101.237 1373.44 101.316 1373.26C101.394 1373.07 101.503 1372.91 101.644 1372.78C101.784 1372.64 101.948 1372.53 102.136 1372.45C102.323 1372.37 102.523 1372.33 102.734 1372.33H109.601C109.984 1372.33 110.386 1372.38 110.808 1372.46C111.237 1372.55 111.659 1372.69 112.073 1372.88C112.495 1373.07 112.894 1373.31 113.269 1373.61C113.652 1373.9 113.987 1374.25 114.277 1374.68C114.573 1375.09 114.808 1375.57 114.98 1376.12C115.152 1376.66 115.237 1377.28 115.237 1377.97V1385ZM131.427 1386.22C131.427 1386.74 131.36 1387.21 131.227 1387.62C131.095 1388.05 130.919 1388.41 130.7 1388.73C130.481 1389.05 130.227 1389.32 129.938 1389.54C129.649 1389.76 129.345 1389.95 129.024 1390.09C128.712 1390.23 128.391 1390.33 128.063 1390.39C127.743 1390.46 127.438 1390.5 127.149 1390.5H121.653V1387.45H127.149C127.563 1387.45 127.872 1387.34 128.075 1387.13C128.278 1386.92 128.38 1386.62 128.38 1386.22V1376.6C128.38 1376.2 128.278 1375.9 128.075 1375.7C127.872 1375.48 127.563 1375.38 127.149 1375.38H121.653C121.278 1375.38 120.981 1375.5 120.763 1375.73C120.544 1375.96 120.434 1376.25 120.434 1376.6V1380.72C120.434 1381.12 120.54 1381.43 120.751 1381.64C120.962 1381.85 121.27 1381.95 121.677 1381.95H127.149V1385H121.653C121.364 1385 121.059 1384.97 120.739 1384.91C120.419 1384.84 120.098 1384.73 119.778 1384.59C119.466 1384.45 119.165 1384.27 118.876 1384.05C118.587 1383.82 118.333 1383.55 118.114 1383.24C117.895 1382.92 117.72 1382.55 117.587 1382.14C117.454 1381.72 117.388 1381.25 117.388 1380.72V1376.6C117.388 1376.31 117.419 1376 117.481 1375.68C117.552 1375.36 117.657 1375.05 117.798 1374.73C117.938 1374.41 118.118 1374.11 118.337 1373.82C118.563 1373.53 118.833 1373.28 119.145 1373.06C119.466 1372.84 119.833 1372.66 120.247 1372.53C120.661 1372.4 121.13 1372.33 121.653 1372.33H127.149C127.438 1372.33 127.743 1372.37 128.063 1372.44C128.391 1372.5 128.712 1372.6 129.024 1372.74C129.345 1372.88 129.649 1373.07 129.938 1373.29C130.227 1373.51 130.481 1373.78 130.7 1374.1C130.919 1374.41 131.095 1374.78 131.227 1375.19C131.36 1375.61 131.427 1376.07 131.427 1376.6V1386.22ZM159.469 1378.2C159.469 1379.23 159.293 1380.17 158.942 1381.03C158.59 1381.89 158.102 1382.63 157.477 1383.25C156.852 1383.88 156.11 1384.37 155.25 1384.72C154.399 1385.06 153.469 1385.23 152.461 1385.23H148.336C147.328 1385.23 146.395 1385.06 145.535 1384.72C144.676 1384.37 143.934 1383.88 143.309 1383.25C142.684 1382.63 142.192 1381.89 141.832 1381.03C141.481 1380.17 141.305 1379.23 141.305 1378.2V1374.99C141.305 1373.98 141.481 1373.04 141.832 1372.18C142.192 1371.31 142.684 1370.57 143.309 1369.95C143.934 1369.33 144.676 1368.84 145.535 1368.49C146.395 1368.14 147.328 1367.96 148.336 1367.96H152.461C153.469 1367.96 154.399 1368.14 155.25 1368.49C156.11 1368.84 156.852 1369.33 157.477 1369.95C158.102 1370.57 158.59 1371.31 158.942 1372.18C159.293 1373.04 159.469 1373.98 159.469 1374.99V1378.2ZM156.422 1374.99C156.422 1374.39 156.324 1373.85 156.129 1373.36C155.942 1372.87 155.672 1372.45 155.32 1372.11C154.977 1371.76 154.559 1371.49 154.067 1371.3C153.582 1371.11 153.047 1371.01 152.461 1371.01H148.336C147.742 1371.01 147.199 1371.11 146.707 1371.3C146.223 1371.49 145.805 1371.76 145.453 1372.11C145.102 1372.45 144.828 1372.87 144.633 1373.36C144.445 1373.85 144.352 1374.39 144.352 1374.99V1378.2C144.352 1378.8 144.445 1379.35 144.633 1379.84C144.828 1380.33 145.102 1380.75 145.453 1381.1C145.805 1381.44 146.223 1381.71 146.707 1381.91C147.199 1382.09 147.742 1382.19 148.336 1382.19H152.438C153.031 1382.19 153.57 1382.09 154.055 1381.91C154.547 1381.71 154.969 1381.44 155.32 1381.1C155.672 1380.75 155.942 1380.33 156.129 1379.84C156.324 1379.35 156.422 1378.8 156.422 1378.2V1374.99ZM173.092 1375.38H166.201V1372.33H173.092V1375.38ZM173.092 1369.88H166.224C165.81 1369.88 165.498 1369.99 165.287 1370.2C165.076 1370.4 164.971 1370.7 164.971 1371.1V1385H161.924V1371.1C161.924 1370.58 161.99 1370.11 162.123 1369.7C162.256 1369.28 162.431 1368.92 162.65 1368.61C162.877 1368.29 163.135 1368.02 163.424 1367.8C163.713 1367.57 164.013 1367.39 164.326 1367.25C164.646 1367.11 164.967 1367 165.287 1366.94C165.607 1366.87 165.912 1366.84 166.201 1366.84H173.092V1369.88ZM186.046 1369.88H179.179C178.765 1369.88 178.453 1369.99 178.242 1370.2C178.031 1370.4 177.925 1370.7 177.925 1371.1V1385H174.878V1371.1C174.878 1370.58 174.945 1370.11 175.078 1369.7C175.21 1369.28 175.386 1368.92 175.605 1368.61C175.832 1368.29 176.089 1368.02 176.378 1367.8C176.667 1367.57 176.968 1367.39 177.281 1367.25C177.601 1367.11 177.921 1367 178.242 1366.94C178.562 1366.87 178.867 1366.84 179.156 1366.84H186.046V1369.88ZM190.429 1385H187.382L187.359 1375.38H179.156V1372.33H190.453L190.429 1385ZM190.429 1369.88H187.382V1366.88H190.429V1369.88ZM205.353 1385H197.091C196.669 1385 196.208 1384.93 195.708 1384.78C195.208 1384.63 194.743 1384.39 194.314 1384.05C193.892 1383.71 193.536 1383.27 193.247 1382.73C192.966 1382.18 192.825 1381.51 192.825 1380.72V1376.6C192.825 1376.31 192.857 1376 192.919 1375.68C192.989 1375.36 193.095 1375.05 193.236 1374.73C193.376 1374.41 193.556 1374.11 193.775 1373.82C194.001 1373.53 194.271 1373.28 194.583 1373.06C194.903 1372.84 195.271 1372.66 195.685 1372.53C196.099 1372.4 196.568 1372.33 197.091 1372.33H205.353V1375.38H197.091C196.693 1375.38 196.388 1375.48 196.177 1375.68C195.974 1375.89 195.872 1376.2 195.872 1376.62V1380.72C195.872 1381.12 195.978 1381.43 196.189 1381.64C196.4 1381.85 196.708 1381.95 197.114 1381.95H205.353V1385ZM221.143 1376.53C221.143 1376.95 221.069 1377.41 220.921 1377.9C220.772 1378.38 220.53 1378.84 220.194 1379.26C219.866 1379.67 219.432 1380.02 218.893 1380.3C218.362 1380.58 217.714 1380.72 216.948 1380.72H211.452V1377.83H216.948C217.362 1377.83 217.682 1377.7 217.909 1377.45C218.136 1377.2 218.249 1376.88 218.249 1376.5C218.249 1376.11 218.12 1375.79 217.862 1375.57C217.612 1375.34 217.307 1375.23 216.948 1375.23H211.452C211.038 1375.23 210.718 1375.36 210.491 1375.61C210.264 1375.86 210.151 1376.18 210.151 1376.55V1380.8C210.151 1381.21 210.276 1381.53 210.526 1381.75C210.784 1381.98 211.1 1382.09 211.475 1382.09H216.948V1385H211.452C211.03 1385 210.573 1384.93 210.081 1384.78C209.596 1384.63 209.143 1384.39 208.721 1384.06C208.307 1383.73 207.96 1383.29 207.679 1382.76C207.397 1382.22 207.257 1381.57 207.257 1380.8V1376.53C207.257 1376.11 207.331 1375.65 207.479 1375.17C207.628 1374.68 207.866 1374.22 208.194 1373.81C208.53 1373.39 208.964 1373.04 209.495 1372.75C210.034 1372.47 210.686 1372.33 211.452 1372.33H216.948C217.37 1372.33 217.823 1372.41 218.307 1372.55C218.8 1372.7 219.253 1372.95 219.667 1373.28C220.089 1373.61 220.44 1374.04 220.721 1374.58C221.003 1375.11 221.143 1375.76 221.143 1376.53ZM234.016 1375.38H227.161C226.747 1375.38 226.434 1375.48 226.223 1375.7C226.012 1375.9 225.907 1376.2 225.907 1376.6V1385H222.86V1376.6C222.86 1376.07 222.926 1375.61 223.059 1375.19C223.192 1374.78 223.368 1374.41 223.586 1374.1C223.813 1373.78 224.071 1373.51 224.36 1373.29C224.649 1373.07 224.95 1372.88 225.262 1372.74C225.582 1372.6 225.903 1372.5 226.223 1372.44C226.551 1372.37 226.856 1372.33 227.137 1372.33H234.016V1375.38Z" fill="white"/>
<path d="M1002.44 1276.11C1002.56 1276.38 1002.6 1276.67 1002.55 1276.98C1002.5 1277.27 1002.38 1277.53 1002.17 1277.74L992.119 1288.95H1002.42V1292H988.685C988.388 1292 988.111 1291.92 987.853 1291.75C987.603 1291.58 987.416 1291.36 987.291 1291.09C987.158 1290.81 987.115 1290.53 987.162 1290.23C987.216 1289.93 987.341 1289.68 987.537 1289.46L997.615 1278.24H987.291V1275.2H1001.05C1001.35 1275.2 1001.62 1275.28 1001.87 1275.45C1002.13 1275.62 1002.32 1275.84 1002.44 1276.11ZM1017.67 1287.8C1017.67 1288.23 1017.6 1288.68 1017.45 1289.18C1017.3 1289.66 1017.06 1290.11 1016.72 1290.54C1016.39 1290.95 1015.96 1291.3 1015.42 1291.58C1014.89 1291.86 1014.24 1292 1013.48 1292H1007.98C1007.56 1292 1007.1 1291.93 1006.61 1291.78C1006.12 1291.63 1005.67 1291.39 1005.25 1291.06C1004.84 1290.73 1004.49 1290.29 1004.21 1289.76C1003.92 1289.22 1003.78 1288.57 1003.78 1287.8C1003.78 1287.38 1003.86 1286.93 1004.01 1286.43C1004.16 1285.94 1004.39 1285.49 1004.72 1285.07C1005.06 1284.65 1005.49 1284.3 1006.02 1284.02C1006.56 1283.74 1007.21 1283.6 1007.98 1283.6H1013.48V1286.5H1007.98C1007.57 1286.5 1007.25 1286.63 1007.02 1286.89C1006.79 1287.14 1006.68 1287.45 1006.68 1287.83C1006.68 1288.23 1006.81 1288.54 1007.07 1288.77C1007.33 1288.98 1007.64 1289.09 1008 1289.09H1013.48C1013.89 1289.09 1014.21 1288.97 1014.44 1288.72C1014.66 1288.47 1014.78 1288.16 1014.78 1287.78V1283.53C1014.78 1283.13 1014.65 1282.81 1014.4 1282.58C1014.16 1282.34 1013.85 1282.23 1013.48 1282.23H1006.78V1279.33H1013.48C1013.9 1279.33 1014.35 1279.41 1014.84 1279.55C1015.33 1279.7 1015.78 1279.95 1016.19 1280.28C1016.62 1280.61 1016.97 1281.04 1017.25 1281.58C1017.53 1282.11 1017.67 1282.76 1017.67 1283.53V1287.8ZM1034.05 1292H1031V1284.97C1031 1284.57 1030.93 1284.21 1030.79 1283.9C1030.66 1283.58 1030.47 1283.31 1030.24 1283.08C1030 1282.86 1029.73 1282.68 1029.41 1282.57C1029.09 1282.44 1028.75 1282.38 1028.39 1282.38H1023.06V1292H1020.01V1280.84C1020.01 1280.63 1020.05 1280.44 1020.13 1280.26C1020.2 1280.07 1020.31 1279.91 1020.45 1279.78C1020.59 1279.64 1020.76 1279.53 1020.95 1279.45C1021.13 1279.37 1021.33 1279.33 1021.54 1279.33H1028.41C1028.79 1279.33 1029.2 1279.38 1029.62 1279.46C1030.05 1279.55 1030.47 1279.69 1030.88 1279.88C1031.31 1280.07 1031.7 1280.31 1032.08 1280.61C1032.46 1280.9 1032.8 1281.25 1033.09 1281.68C1033.38 1282.09 1033.62 1282.57 1033.79 1283.12C1033.96 1283.66 1034.05 1284.28 1034.05 1284.97V1292ZM1050.08 1283.53C1050.08 1283.95 1050.01 1284.41 1049.86 1284.9C1049.71 1285.38 1049.47 1285.84 1049.14 1286.26C1048.81 1286.67 1048.37 1287.02 1047.83 1287.3C1047.3 1287.58 1046.65 1287.72 1045.89 1287.72H1040.39V1284.83H1045.89C1046.3 1284.83 1046.62 1284.7 1046.85 1284.45C1047.08 1284.2 1047.19 1283.88 1047.19 1283.5C1047.19 1283.11 1047.06 1282.79 1046.8 1282.57C1046.55 1282.34 1046.25 1282.23 1045.89 1282.23H1040.39C1039.98 1282.23 1039.66 1282.36 1039.43 1282.61C1039.21 1282.86 1039.09 1283.18 1039.09 1283.55V1287.8C1039.09 1288.21 1039.22 1288.53 1039.47 1288.75C1039.73 1288.98 1040.04 1289.09 1040.42 1289.09H1045.89V1292H1040.39C1039.97 1292 1039.51 1291.93 1039.02 1291.78C1038.54 1291.63 1038.08 1291.39 1037.66 1291.06C1037.25 1290.73 1036.9 1290.29 1036.62 1289.76C1036.34 1289.22 1036.2 1288.57 1036.2 1287.8V1283.53C1036.2 1283.11 1036.27 1282.65 1036.42 1282.17C1036.57 1281.68 1036.81 1281.22 1037.14 1280.81C1037.47 1280.39 1037.9 1280.04 1038.44 1279.75C1038.98 1279.47 1039.63 1279.33 1040.39 1279.33H1045.89C1046.31 1279.33 1046.76 1279.41 1047.25 1279.55C1047.74 1279.7 1048.19 1279.95 1048.61 1280.28C1049.03 1280.61 1049.38 1281.04 1049.66 1281.58C1049.94 1282.11 1050.08 1282.76 1050.08 1283.53ZM921.726 1328H918.656V1317.99L913.253 1327.5C913.121 1327.74 912.933 1327.92 912.691 1328.05C912.457 1328.17 912.203 1328.23 911.929 1328.23C911.664 1328.23 911.414 1328.17 911.179 1328.05C910.953 1327.92 910.773 1327.74 910.64 1327.5L905.214 1317.99V1328H902.168V1312.5C902.168 1312.14 902.269 1311.83 902.472 1311.56C902.683 1311.29 902.957 1311.1 903.293 1311.01C903.457 1310.97 903.621 1310.96 903.785 1310.97C903.949 1310.98 904.105 1311.02 904.253 1311.08C904.41 1311.13 904.55 1311.21 904.675 1311.32C904.8 1311.43 904.906 1311.55 904.992 1311.7L911.929 1323.76L918.867 1311.7C919.046 1311.4 919.293 1311.19 919.605 1311.07C919.925 1310.94 920.257 1310.92 920.601 1311.01C920.929 1311.1 921.199 1311.29 921.41 1311.56C921.621 1311.83 921.726 1312.14 921.726 1312.5V1328ZM937.681 1323.8C937.681 1324.23 937.607 1324.68 937.458 1325.18C937.31 1325.66 937.068 1326.11 936.732 1326.54C936.404 1326.95 935.97 1327.3 935.431 1327.58C934.9 1327.86 934.251 1328 933.486 1328H927.989C927.568 1328 927.111 1327.93 926.618 1327.78C926.134 1327.63 925.681 1327.39 925.259 1327.06C924.845 1326.73 924.497 1326.29 924.216 1325.76C923.935 1325.22 923.794 1324.57 923.794 1323.8C923.794 1323.38 923.868 1322.93 924.017 1322.43C924.165 1321.94 924.404 1321.49 924.732 1321.07C925.068 1320.65 925.501 1320.3 926.032 1320.02C926.571 1319.74 927.224 1319.6 927.989 1319.6H933.486V1322.5H927.989C927.575 1322.5 927.255 1322.63 927.029 1322.89C926.802 1323.14 926.689 1323.45 926.689 1323.83C926.689 1324.23 926.818 1324.54 927.075 1324.77C927.341 1324.98 927.654 1325.09 928.013 1325.09H933.486C933.9 1325.09 934.22 1324.97 934.446 1324.72C934.673 1324.47 934.786 1324.16 934.786 1323.78V1319.53C934.786 1319.13 934.661 1318.81 934.411 1318.58C934.169 1318.34 933.861 1318.23 933.486 1318.23H926.794V1315.33H933.486C933.907 1315.33 934.361 1315.41 934.845 1315.55C935.337 1315.7 935.79 1315.95 936.204 1316.28C936.626 1316.61 936.978 1317.04 937.259 1317.58C937.54 1318.11 937.681 1318.76 937.681 1319.53V1323.8ZM951.104 1318.38H944.249C943.835 1318.38 943.522 1318.48 943.311 1318.7C943.1 1318.9 942.995 1319.2 942.995 1319.6V1328H939.948V1319.6C939.948 1319.07 940.015 1318.61 940.147 1318.19C940.28 1317.78 940.456 1317.41 940.675 1317.1C940.901 1316.78 941.159 1316.51 941.448 1316.29C941.737 1316.07 942.038 1315.88 942.35 1315.74C942.671 1315.6 942.991 1315.5 943.311 1315.44C943.64 1315.37 943.944 1315.33 944.225 1315.33H951.104V1318.38ZM967.739 1328H963.344L957.204 1322.07C956.86 1321.76 956.7 1321.37 956.723 1320.9C956.739 1320.68 956.793 1320.48 956.887 1320.29C956.989 1320.09 957.126 1319.93 957.297 1319.8L962.864 1315.31H967.739L960.567 1321.09L967.739 1328ZM955.95 1328H952.903V1309.98H955.95V1328ZM982.393 1319.53C982.393 1319.95 982.319 1320.41 982.17 1320.9C982.022 1321.38 981.779 1321.84 981.444 1322.26C981.115 1322.67 980.682 1323.02 980.143 1323.3C979.612 1323.58 978.963 1323.72 978.197 1323.72H972.701V1320.83H978.197C978.612 1320.83 978.932 1320.7 979.158 1320.45C979.385 1320.2 979.498 1319.88 979.498 1319.5C979.498 1319.11 979.369 1318.79 979.112 1318.57C978.862 1318.34 978.557 1318.23 978.197 1318.23H972.701C972.287 1318.23 971.967 1318.36 971.74 1318.61C971.514 1318.86 971.401 1319.18 971.401 1319.55V1323.8C971.401 1324.21 971.526 1324.53 971.776 1324.75C972.033 1324.98 972.35 1325.09 972.725 1325.09H978.197V1328H972.701C972.279 1328 971.822 1327.93 971.33 1327.78C970.846 1327.63 970.393 1327.39 969.971 1327.06C969.557 1326.73 969.209 1326.29 968.928 1325.76C968.647 1325.22 968.506 1324.57 968.506 1323.8V1319.53C968.506 1319.11 968.58 1318.65 968.729 1318.17C968.877 1317.68 969.115 1317.22 969.444 1316.81C969.779 1316.39 970.213 1316.04 970.744 1315.75C971.283 1315.47 971.936 1315.33 972.701 1315.33H978.197C978.619 1315.33 979.072 1315.41 979.557 1315.55C980.049 1315.7 980.502 1315.95 980.916 1316.28C981.338 1316.61 981.69 1317.04 981.971 1317.58C982.252 1318.11 982.393 1318.76 982.393 1319.53ZM995.699 1318.38H990.379V1328H987.297V1318.38H983.336V1315.33H987.297V1311.2H990.379V1315.33H995.699V1318.38ZM1000.53 1312.73H997.486V1309.98H1000.53V1312.73ZM1000.53 1328H997.486V1315.33H1000.53V1328ZM1017.24 1328H1014.19V1320.97C1014.19 1320.57 1014.12 1320.21 1013.98 1319.9C1013.85 1319.58 1013.66 1319.31 1013.43 1319.08C1013.19 1318.86 1012.92 1318.68 1012.6 1318.57C1012.28 1318.44 1011.94 1318.38 1011.58 1318.38H1006.25V1328H1003.2V1316.84C1003.2 1316.63 1003.24 1316.44 1003.32 1316.26C1003.39 1316.07 1003.5 1315.91 1003.64 1315.78C1003.78 1315.64 1003.95 1315.53 1004.14 1315.45C1004.32 1315.37 1004.52 1315.33 1004.73 1315.33H1011.6C1011.98 1315.33 1012.39 1315.38 1012.81 1315.46C1013.24 1315.55 1013.66 1315.69 1014.07 1315.88C1014.5 1316.07 1014.89 1316.31 1015.27 1316.61C1015.65 1316.9 1015.99 1317.25 1016.28 1317.68C1016.57 1318.09 1016.81 1318.57 1016.98 1319.12C1017.15 1319.66 1017.24 1320.28 1017.24 1320.97V1328ZM1033.43 1329.22C1033.43 1329.74 1033.36 1330.21 1033.23 1330.62C1033.09 1331.05 1032.92 1331.41 1032.7 1331.73C1032.48 1332.05 1032.23 1332.32 1031.94 1332.54C1031.65 1332.76 1031.34 1332.95 1031.02 1333.09C1030.71 1333.23 1030.39 1333.33 1030.06 1333.39C1029.74 1333.46 1029.44 1333.5 1029.15 1333.5H1023.65V1330.45H1029.15C1029.56 1330.45 1029.87 1330.34 1030.08 1330.13C1030.28 1329.92 1030.38 1329.62 1030.38 1329.22V1319.6C1030.38 1319.2 1030.28 1318.9 1030.08 1318.7C1029.87 1318.48 1029.56 1318.38 1029.15 1318.38H1023.65C1023.28 1318.38 1022.98 1318.5 1022.76 1318.73C1022.54 1318.96 1022.43 1319.25 1022.43 1319.6V1323.72C1022.43 1324.12 1022.54 1324.43 1022.75 1324.64C1022.96 1324.85 1023.27 1324.95 1023.68 1324.95H1029.15V1328H1023.65C1023.36 1328 1023.06 1327.97 1022.74 1327.91C1022.42 1327.84 1022.1 1327.73 1021.78 1327.59C1021.47 1327.45 1021.16 1327.27 1020.88 1327.05C1020.59 1326.82 1020.33 1326.55 1020.11 1326.24C1019.9 1325.92 1019.72 1325.55 1019.59 1325.14C1019.45 1324.72 1019.39 1324.25 1019.39 1323.72V1319.6C1019.39 1319.31 1019.42 1319 1019.48 1318.68C1019.55 1318.36 1019.66 1318.05 1019.8 1317.73C1019.94 1317.41 1020.12 1317.11 1020.34 1316.82C1020.56 1316.53 1020.83 1316.28 1021.15 1316.06C1021.47 1315.84 1021.83 1315.66 1022.25 1315.53C1022.66 1315.4 1023.13 1315.33 1023.65 1315.33H1029.15C1029.44 1315.33 1029.74 1315.37 1030.06 1315.44C1030.39 1315.5 1030.71 1315.6 1031.02 1315.74C1031.34 1315.88 1031.65 1316.07 1031.94 1316.29C1032.23 1316.51 1032.48 1316.78 1032.7 1317.1C1032.92 1317.41 1033.09 1317.78 1033.23 1318.19C1033.36 1318.61 1033.43 1319.07 1033.43 1319.6V1329.22ZM1061.47 1321.2C1061.47 1322.23 1061.29 1323.17 1060.94 1324.03C1060.59 1324.89 1060.1 1325.63 1059.48 1326.25C1058.85 1326.88 1058.11 1327.37 1057.25 1327.72C1056.4 1328.06 1055.47 1328.23 1054.46 1328.23H1050.34C1049.33 1328.23 1048.39 1328.06 1047.54 1327.72C1046.68 1327.37 1045.93 1326.88 1045.31 1326.25C1044.68 1325.63 1044.19 1324.89 1043.83 1324.03C1043.48 1323.17 1043.3 1322.23 1043.3 1321.2V1317.99C1043.3 1316.98 1043.48 1316.04 1043.83 1315.18C1044.19 1314.31 1044.68 1313.57 1045.31 1312.95C1045.93 1312.33 1046.68 1311.84 1047.54 1311.49C1048.39 1311.14 1049.33 1310.96 1050.34 1310.96H1054.46C1055.47 1310.96 1056.4 1311.14 1057.25 1311.49C1058.11 1311.84 1058.85 1312.33 1059.48 1312.95C1060.1 1313.57 1060.59 1314.31 1060.94 1315.18C1061.29 1316.04 1061.47 1316.98 1061.47 1317.99V1321.2ZM1058.42 1317.99C1058.42 1317.39 1058.32 1316.85 1058.13 1316.36C1057.94 1315.87 1057.67 1315.45 1057.32 1315.11C1056.98 1314.76 1056.56 1314.49 1056.07 1314.3C1055.58 1314.11 1055.05 1314.01 1054.46 1314.01H1050.34C1049.74 1314.01 1049.2 1314.11 1048.71 1314.3C1048.22 1314.49 1047.8 1314.76 1047.45 1315.11C1047.1 1315.45 1046.83 1315.87 1046.63 1316.36C1046.45 1316.85 1046.35 1317.39 1046.35 1317.99V1321.2C1046.35 1321.8 1046.45 1322.35 1046.63 1322.84C1046.83 1323.33 1047.1 1323.75 1047.45 1324.1C1047.8 1324.44 1048.22 1324.71 1048.71 1324.91C1049.2 1325.09 1049.74 1325.19 1050.34 1325.19H1054.44C1055.03 1325.19 1055.57 1325.09 1056.05 1324.91C1056.55 1324.71 1056.97 1324.44 1057.32 1324.1C1057.67 1323.75 1057.94 1323.33 1058.13 1322.84C1058.32 1322.35 1058.42 1321.8 1058.42 1321.2V1317.99ZM1075.09 1318.38H1068.2V1315.33H1075.09V1318.38ZM1075.09 1312.88H1068.22C1067.81 1312.88 1067.5 1312.99 1067.29 1313.2C1067.08 1313.4 1066.97 1313.7 1066.97 1314.1V1328H1063.92V1314.1C1063.92 1313.58 1063.99 1313.11 1064.12 1312.7C1064.26 1312.28 1064.43 1311.92 1064.65 1311.61C1064.88 1311.29 1065.13 1311.02 1065.42 1310.8C1065.71 1310.57 1066.01 1310.39 1066.33 1310.25C1066.65 1310.11 1066.97 1310 1067.29 1309.94C1067.61 1309.87 1067.91 1309.84 1068.2 1309.84H1075.09V1312.88ZM1088.05 1312.88H1081.18C1080.77 1312.88 1080.45 1312.99 1080.24 1313.2C1080.03 1313.4 1079.93 1313.7 1079.93 1314.1V1328H1076.88V1314.1C1076.88 1313.58 1076.94 1313.11 1077.08 1312.7C1077.21 1312.28 1077.39 1311.92 1077.6 1311.61C1077.83 1311.29 1078.09 1311.02 1078.38 1310.8C1078.67 1310.57 1078.97 1310.39 1079.28 1310.25C1079.6 1310.11 1079.92 1310 1080.24 1309.94C1080.56 1309.87 1080.87 1309.84 1081.16 1309.84H1088.05V1312.88ZM1092.43 1328H1089.38L1089.36 1318.38H1081.16V1315.33H1092.45L1092.43 1328ZM1092.43 1312.88H1089.38V1309.88H1092.43V1312.88ZM1107.35 1328H1099.09C1098.67 1328 1098.21 1327.93 1097.71 1327.78C1097.21 1327.63 1096.74 1327.39 1096.31 1327.05C1095.89 1326.71 1095.54 1326.27 1095.25 1325.73C1094.97 1325.18 1094.83 1324.51 1094.83 1323.72V1319.6C1094.83 1319.31 1094.86 1319 1094.92 1318.68C1094.99 1318.36 1095.09 1318.05 1095.24 1317.73C1095.38 1317.41 1095.56 1317.11 1095.77 1316.82C1096 1316.53 1096.27 1316.28 1096.58 1316.06C1096.9 1315.84 1097.27 1315.66 1097.68 1315.53C1098.1 1315.4 1098.57 1315.33 1099.09 1315.33H1107.35V1318.38H1099.09C1098.69 1318.38 1098.39 1318.48 1098.18 1318.68C1097.97 1318.89 1097.87 1319.2 1097.87 1319.62V1323.72C1097.87 1324.12 1097.98 1324.43 1098.19 1324.64C1098.4 1324.85 1098.71 1324.95 1099.11 1324.95H1107.35V1328ZM1123.14 1319.53C1123.14 1319.95 1123.07 1320.41 1122.92 1320.9C1122.77 1321.38 1122.53 1321.84 1122.19 1322.26C1121.87 1322.67 1121.43 1323.02 1120.89 1323.3C1120.36 1323.58 1119.71 1323.72 1118.95 1323.72H1113.45V1320.83H1118.95C1119.36 1320.83 1119.68 1320.7 1119.91 1320.45C1120.14 1320.2 1120.25 1319.88 1120.25 1319.5C1120.25 1319.11 1120.12 1318.79 1119.86 1318.57C1119.61 1318.34 1119.31 1318.23 1118.95 1318.23H1113.45C1113.04 1318.23 1112.72 1318.36 1112.49 1318.61C1112.26 1318.86 1112.15 1319.18 1112.15 1319.55V1323.8C1112.15 1324.21 1112.28 1324.53 1112.53 1324.75C1112.78 1324.98 1113.1 1325.09 1113.48 1325.09H1118.95V1328H1113.45C1113.03 1328 1112.57 1327.93 1112.08 1327.78C1111.6 1327.63 1111.14 1327.39 1110.72 1327.06C1110.31 1326.73 1109.96 1326.29 1109.68 1325.76C1109.4 1325.22 1109.26 1324.57 1109.26 1323.8V1319.53C1109.26 1319.11 1109.33 1318.65 1109.48 1318.17C1109.63 1317.68 1109.87 1317.22 1110.19 1316.81C1110.53 1316.39 1110.96 1316.04 1111.49 1315.75C1112.03 1315.47 1112.69 1315.33 1113.45 1315.33H1118.95C1119.37 1315.33 1119.82 1315.41 1120.31 1315.55C1120.8 1315.7 1121.25 1315.95 1121.67 1316.28C1122.09 1316.61 1122.44 1317.04 1122.72 1317.58C1123 1318.11 1123.14 1318.76 1123.14 1319.53ZM1136.02 1318.38H1129.16C1128.75 1318.38 1128.43 1318.48 1128.22 1318.7C1128.01 1318.9 1127.91 1319.2 1127.91 1319.6V1328H1124.86V1319.6C1124.86 1319.07 1124.93 1318.61 1125.06 1318.19C1125.19 1317.78 1125.37 1317.41 1125.59 1317.1C1125.81 1316.78 1126.07 1316.51 1126.36 1316.29C1126.65 1316.07 1126.95 1315.88 1127.26 1315.74C1127.58 1315.6 1127.9 1315.5 1128.22 1315.44C1128.55 1315.37 1128.86 1315.33 1129.14 1315.33H1136.02V1318.38Z" fill="white"/>
<defs>
<filter id="filter0_d_1_4" x="148" y="447" width="150" height="150" filterUnits="userSpaceOnUse" color-interpolation-filters="sRGB">
<feFlood flood-opacity="0" result="BackgroundImageFix"/>
<feColorMatrix in="SourceAlpha" type="matrix" values="0 0 0 0 0 0 0 0 0 0 0 0 0 0 0 0 0 0 127 0" result="hardAlpha"/>
<feMorphology radius="8" operator="dilate" in="SourceAlpha" result="effect1_dropShadow_1_4"/>
<feOffset dx="4" dy="4"/>
<feGaussianBlur stdDeviation="2"/>
<feComposite in2="hardAlpha" operator="out"/>
<feColorMatrix type="matrix" values="0 0 0 0 1 0 0 0 0 1 0 0 0 0 1 0 0 0 0.3 0"/>
<feBlend mode="normal" in2="BackgroundImageFix" result="effect1_dropShadow_1_4"/>
<feBlend mode="normal" in="SourceGraphic" in2="effect1_dropShadow_1_4" result="shape"/>
</filter>
<filter id="filter1_d_1_4" x="37" y="1171" width="150" height="150" filterUnits="userSpaceOnUse" color-interpolation-filters="sRGB">
<feFlood flood-opacity="0" result="BackgroundImageFix"/>
<feColorMatrix in="SourceAlpha" type="matrix" values="0 0 0 0 0 0 0 0 0 0 0 0 0 0 0 0 0 0 127 0" result="hardAlpha"/>
<feMorphology radius="8" operator="dilate" in="SourceAlpha" result="effect1_dropShadow_1_4"/>
<feOffset dx="4" dy="4"/>
<feGaussianBlur stdDeviation="2"/>
<feComposite in2="hardAlpha" operator="out"/>
<feColorMatrix type="matrix" values="0 0 0 0 1 0 0 0 0 1 0 0 0 0 1 0 0 0 0.3 0"/>
<feBlend mode="normal" in2="BackgroundImageFix" result="effect1_dropShadow_1_4"/>
<feBlend mode="normal" in="SourceGraphic" in2="effect1_dropShadow_1_4" result="shape"/>
</filter>
<filter id="filter2_d_1_4" x="947" y="1108" width="150" height="150" filterUnits="userSpaceOnUse" color-interpolation-filters="sRGB">
<feFlood flood-opacity="0" result="BackgroundImageFix"/>
<feColorMatrix in="SourceAlpha" type="matrix" values="0 0 0 0 0 0 0 0 0 0 0 0 0 0 0 0 0 0 127 0" result="hardAlpha"/>
<feMorphology radius="8" operator="dilate" in="SourceAlpha" result="effect1_dropShadow_1_4"/>
<feOffset dx="4" dy="4"/>
<feGaussianBlur stdDeviation="2"/>
<feComposite in2="hardAlpha" operator="out"/>
<feColorMatrix type="matrix" values="0 0 0 0 1 0 0 0 0 1 0 0 0 0 1 0 0 0 0.3 0"/>
<feBlend mode="normal" in2="BackgroundImageFix" result="effect1_dropShadow_1_4"/>
<feBlend mode="normal" in="SourceGraphic" in2="effect1_dropShadow_1_4" result="shape"/>
</filter>
<filter id="filter3_d_1_4" x="1044" y="630" width="150" height="150" filterUnits="userSpaceOnUse" color-interpolation-filters="sRGB">
<feFlood flood-opacity="0" result="BackgroundImageFix"/>
<feColorMatrix in="SourceAlpha" type="matrix" values="0 0 0 0 0 0 0 0 0 0 0 0 0 0 0 0 0 0 127 0" result="hardAlpha"/>
<feMorphology radius="8" operator="dilate" in="SourceAlpha" result="effect1_dropShadow_1_4"/>
<feOffset dx="4" dy="4"/>
<feGaussianBlur stdDeviation="2"/>
<feComposite in2="hardAlpha" operator="out"/>
<feColorMatrix type="matrix" values="0 0 0 0 1 0 0 0 0 1 0 0 0 0 1 0 0 0 0.3 0"/>
<feBlend mode="normal" in2="BackgroundImageFix" result="effect1_dropShadow_1_4"/>
<feBlend mode="normal" in="SourceGraphic" in2="effect1_dropShadow_1_4" result="shape"/>
</filter>
</defs>
</svg>
