<svg width="104" height="122" viewBox="0 0 104 122" fill="none" xmlns="http://www.w3.org/2000/svg">
<path d="M50.6886 35.4427L17.4427 68.6886C12.8524 73.2788 12.8524 80.7212 17.4427 85.3114L50.6886 118.557C55.2788 123.148 62.7212 123.148 67.3114 118.557L100.557 85.3114C105.148 80.7211 105.148 73.2788 100.557 68.6886L67.3114 35.4427C62.7212 30.8524 55.2788 30.8524 50.6886 35.4427Z" fill="#ECECEC"/>
<path d="M33.8254 85.3332C32.7247 85.3332 31.7441 85.1421 30.8831 84.7598C30.0221 84.3701 29.3408 83.7968 28.8392 83.04C28.3451 82.2756 28.098 81.3239 28.098 80.1846C28.098 79.2255 28.2739 78.4199 28.6259 77.7679C28.9777 77.116 29.4568 76.5914 30.0633 76.1941C30.6698 75.797 31.3585 75.4972 32.1296 75.2948C32.9083 75.0925 33.7244 74.9502 34.5779 74.8677C35.581 74.7629 36.3897 74.6653 37.0036 74.5753C37.6175 74.478 38.0629 74.3357 38.34 74.1484C38.6169 73.9608 38.7556 73.6837 38.7556 73.3165V73.2489C38.7556 72.537 38.5309 71.9864 38.0816 71.5966C37.6399 71.2069 37.011 71.012 36.1949 71.012C35.3339 71.012 34.6489 71.203 34.1399 71.5853C34.0498 71.6514 33.9653 71.7208 33.8863 71.793C33.2652 72.3596 32.5273 72.9527 31.6897 72.8848L30.7113 72.8051C29.6477 72.7186 28.8806 71.6889 29.4223 70.7688C29.5986 70.4693 29.801 70.1869 30.0296 69.9217C30.6885 69.1497 31.5381 68.5578 32.5789 68.1455C33.6271 67.7259 34.8398 67.5161 36.2175 67.5161C37.1758 67.5161 38.0929 67.6285 38.9689 67.8533C39.8523 68.0781 40.6346 68.4265 41.316 68.8987C42.0048 69.3708 42.5475 69.9779 42.9443 70.7198C43.3411 71.4542 43.5395 72.3347 43.5395 73.3613V83.2385C43.5395 84.2153 42.7482 85.0071 41.7721 85.0071H40.77C39.7938 85.0071 39.0026 84.2153 39.0026 83.2385V83.1003C39.0026 82.9766 38.8162 82.9251 38.7422 83.0242C38.4632 83.3976 38.0985 83.7363 37.7559 84.0403C37.2918 84.4451 36.7341 84.7635 36.0826 84.996C35.4313 85.2208 34.6789 85.3332 33.8254 85.3332ZM35.1955 82.0282C35.8993 82.0282 36.5206 81.8896 37.0598 81.6123C37.5988 81.3276 38.0217 80.9453 38.3287 80.4658C38.6356 79.9862 38.7891 79.4429 38.7891 78.8358V77.6798C38.7891 77.3887 38.449 77.186 38.1715 77.2732C37.917 77.3482 37.6286 77.4194 37.3068 77.4869C36.9849 77.5468 36.6629 77.6031 36.341 77.6555C36.019 77.7004 35.7271 77.7416 35.465 77.7791C34.9036 77.8616 34.4131 77.9928 33.9939 78.1727C33.5746 78.3524 33.2489 78.5959 33.0169 78.9033C32.7848 79.2031 32.6686 79.5777 32.6686 80.0274C32.6686 80.6793 32.9045 81.1777 33.3763 81.5224C33.8554 81.8596 34.4617 82.0282 35.1955 82.0282Z" fill="#201C33"/>
<path d="M54.7699 85.3332C52.9271 85.3332 51.3419 84.9587 50.0144 84.2099C48.6949 83.4533 47.6798 82.4049 46.9692 81.0643C46.2665 79.7237 45.9151 78.1809 45.9151 76.436C45.9151 74.6685 46.2704 73.118 46.981 71.785C47.6993 70.4444 48.7183 69.3997 50.038 68.6508C51.3576 67.8943 52.9271 67.5161 54.7463 67.5161C56.3158 67.5161 57.69 67.7893 58.8693 68.3362C60.0483 68.8829 60.9814 69.6505 61.6684 70.639C62.0203 71.1454 62.2913 71.6968 62.4814 72.2932C62.7897 73.2604 61.9203 74.1216 60.8657 74.1216H59.6872C58.7731 74.1216 58.055 73.4383 57.5815 72.6888C57.4311 72.451 57.2513 72.2358 57.0421 72.0434C56.4797 71.5116 55.7419 71.2458 54.8283 71.2458C54.0554 71.2458 53.38 71.448 52.8022 71.8523C52.2321 72.2494 51.7871 72.8298 51.4668 73.5937C51.1467 74.3576 50.9866 75.2826 50.9866 76.3685C50.9866 77.4694 51.1428 78.4055 51.4552 79.177C51.7753 79.9484 52.2244 80.5364 52.8022 80.9408C53.38 81.3451 54.0554 81.5474 54.8283 81.5474C55.3983 81.5474 55.9099 81.435 56.3628 81.2104C56.8234 80.9857 57.2021 80.6598 57.4989 80.2331C57.5283 80.1911 57.5566 80.1483 57.5841 80.1047C58.0565 79.3548 58.7729 78.6715 59.6865 78.6715H60.8535C61.9128 78.6715 62.7815 79.5391 62.4715 80.5102C62.2835 81.0984 62.0198 81.6463 61.6802 82.1541C61.0166 83.1501 60.0989 83.929 58.9278 84.4907C57.7566 85.0523 56.3705 85.3332 54.7699 85.3332Z" fill="#201C33"/>
<path d="M66.6789 85.3332C65.7075 85.3332 64.9199 84.5267 64.9199 83.5316V69.5467C64.9199 68.5517 65.7075 67.7451 66.6789 67.7451H67.6984C68.6698 67.7451 69.4572 68.5517 69.4572 69.5467V70.4998C69.4572 70.5673 69.5583 70.5873 69.5862 70.526C69.9854 69.6467 70.7011 68.9411 71.4465 68.4093C72.2809 67.8137 73.2793 67.5161 74.4415 67.5161C75.6187 67.5161 76.6208 67.8175 77.4477 68.4206C78.225 68.9803 78.9167 69.7289 79.2261 70.6663C79.2443 70.7219 79.325 70.7246 79.3463 70.6701C79.7072 69.7453 80.3187 68.9992 81.1804 68.4321C82.1043 67.8215 83.1956 67.5161 84.4549 67.5161C86.0566 67.5161 87.3566 68.0389 88.355 69.0847C89.3608 70.123 89.8638 71.5964 89.8638 73.5047V83.5316C89.8638 84.5267 89.0763 85.3332 88.1049 85.3332H86.873C85.9016 85.3332 85.1141 84.5267 85.1141 83.5316V74.4666C85.1141 73.4894 84.8608 72.7567 84.3541 72.2681C83.8477 71.7795 83.2143 71.5351 82.4543 71.5351C81.5902 71.5351 80.9158 71.8176 80.4317 72.3826C79.9473 72.9398 79.7051 73.6765 79.7051 74.5924V83.5316C79.7051 84.5267 78.9178 85.3332 77.9464 85.3332H76.8487C75.8772 85.3332 75.0897 84.5267 75.0897 83.5316V74.3635C75.0897 73.5009 74.8475 72.8139 74.3633 72.3025C73.8865 71.791 73.257 71.5351 72.4746 71.5351C71.9458 71.5351 71.4688 71.6727 71.0442 71.9474C70.627 72.2146 70.2955 72.5925 70.0496 73.0811C69.8038 73.562 69.6807 74.1269 69.6807 74.7757V83.5316C69.6807 84.5267 68.8934 85.3332 67.922 85.3332H66.6789Z" fill="#201C33"/>
<ellipse cx="28.9982" cy="22.3608" rx="1.77569" ry="2.62125" transform="rotate(-30.548 28.9982 22.3608)" fill="#C88A65" stroke="#855239" stroke-width="0.507339"/>
<path d="M27.6106 23.7296C18.1339 28.3013 19.8269 39.8763 21.8579 45.0923C19.4657 57.0099 20.478 57.3942 24.667 63.6604C32.0172 67.9627 35.6629 63.1601 47.4371 55.3276C51.8851 47.8915 43.8868 42.9899 40.9202 40.126C43.759 34.6215 43.5369 29.2543 43.3256 28.3971C43.1143 27.54 39.4565 18.0149 27.6106 23.7296Z" fill="url(#paint0_linear_1_4)" stroke="#855239" stroke-width="1.01468" stroke-linejoin="round"/>
<g filter="url(#filter0_f_1_4)">
<path d="M42.7479 33.5389C42.7672 35.5567 40.5949 36.8387 38.8379 35.8465L34.6294 33.4701C32.8723 32.478 32.8482 29.9558 34.586 28.9302L38.7482 26.4737C40.486 25.4482 42.6823 26.6884 42.7016 28.7061L42.7479 33.5389Z" fill="#C88A65"/>
</g>
<g filter="url(#filter1_f_1_4)">
<path d="M41.0002 34.5702C41.0195 36.5879 38.8472 37.8699 37.0902 36.8778L32.8817 34.5014C31.1246 33.5092 31.1005 30.987 32.8383 29.9614L37.0005 27.505C38.7383 26.4794 40.9346 27.7196 40.9539 29.7374L41.0002 34.5702Z" fill="#C88A65"/>
</g>
<rect x="25.6812" y="32.3789" width="3.2977" height="1.09923" rx="0.549617" transform="rotate(-45.548 25.6812 32.3789)" fill="#713824"/>
<rect x="37.2264" y="24.5742" width="3.2977" height="1.09923" rx="0.549617" transform="rotate(-0.547956 37.2264 24.5742)" fill="#713824"/>
<path fill-rule="evenodd" clip-rule="evenodd" d="M16.6404 29.7733C16.4881 29.3691 16.4762 28.9578 16.6368 28.5913C17.0679 27.6075 18.579 27.3191 20.0119 27.947C20.4584 28.1427 20.8447 28.4043 21.1518 28.7015C21.9237 29.1987 22.3637 29.9319 22.2206 30.6417C22.0082 31.6946 20.5928 32.2973 19.0593 31.9879C17.6478 31.7032 16.6281 30.745 16.6404 29.7733Z" fill="#C88A65"/>
<path d="M16.6404 29.7733L16.894 29.7765L16.8947 29.7287L16.8778 29.6839L16.6404 29.7733ZM16.6368 28.5913L16.8691 28.6931L16.8691 28.6931L16.6368 28.5913ZM20.0119 27.947L19.91 28.1793L20.0119 27.947ZM21.1518 28.7015L20.9754 28.8838L20.9934 28.9012L21.0144 28.9148L21.1518 28.7015ZM22.2206 30.6417L21.9719 30.5915L22.2206 30.6417ZM19.0593 31.9879L19.0091 32.2366L19.0593 31.9879ZM16.8778 29.6839C16.744 29.3287 16.7402 28.9874 16.8691 28.6931L16.4045 28.4895C16.2122 28.9282 16.2323 29.4094 16.403 29.8628L16.8778 29.6839ZM16.8691 28.6931C17.0415 28.2999 17.4406 28.02 17.9962 27.9139C18.5505 27.8081 19.2345 27.8833 19.91 28.1793L20.1137 27.7147C19.3564 27.3828 18.5684 27.2882 17.9011 27.4156C17.2352 27.5427 16.6633 27.8989 16.4045 28.4895L16.8691 28.6931ZM19.91 28.1793C20.3301 28.3634 20.6908 28.6084 20.9754 28.8838L21.3282 28.5192C20.9985 28.2002 20.5867 27.922 20.1137 27.7147L19.91 28.1793ZM21.0144 28.9148C21.741 29.3828 22.086 30.0259 21.9719 30.5915L22.4692 30.6918C22.6415 29.8378 22.1063 29.0147 21.2892 28.4882L21.0144 28.9148ZM21.9719 30.5915C21.887 31.0123 21.5564 31.3706 21.036 31.5923C20.5168 31.8134 19.8325 31.8851 19.1094 31.7393L19.0091 32.2366C19.8196 32.4001 20.6097 32.3252 21.2347 32.059C21.8584 31.7934 22.3417 31.3239 22.4692 30.6918L21.9719 30.5915ZM19.1094 31.7393C18.4444 31.6051 17.8802 31.3137 17.488 30.9518C17.094 30.5883 16.8891 30.1701 16.894 29.7765L16.3868 29.7701C16.3795 30.3482 16.6783 30.895 17.1439 31.3247C17.6113 31.756 18.2626 32.086 19.0091 32.2366L19.1094 31.7393Z" fill="#855239"/>
<path d="M35.4755 30.1756C36.5639 29.0218 37.2947 28.4781 38.8288 27.7056" stroke="#855239" stroke-width="1.01468" stroke-linecap="round"/>
<path d="M37.2604 28.8742C38.6045 30.6809 39.5454 31.7477 39.9047 34.1866" stroke="#855239" stroke-width="1.01468" stroke-linecap="round"/>
<g filter="url(#filter2_f_1_4)">
<ellipse cx="44.6179" cy="56.1474" rx="1.43746" ry="2.5367" transform="rotate(-30.548 44.6179 56.1474)" fill="#C67C4F"/>
</g>
<g filter="url(#filter3_f_1_4)">
<ellipse cx="1.43746" cy="2.5367" rx="1.43746" ry="2.5367" transform="matrix(-0.861204 0.508259 0.508259 0.861204 39.952 56.6426)" fill="#C67C4F"/>
</g>
<g filter="url(#filter4_f_1_4)">
<ellipse cx="1.33255" cy="2.46697" rx="1.33255" ry="2.46697" transform="matrix(0.292693 0.956207 0.956207 -0.292693 30.235 62.2939)" fill="#C67C4F"/>
</g>
<path d="M45.8707 55.3584C46.5828 56.5649 46.6058 57.8701 45.9221 58.2736C45.2384 58.6771 43.7482 57.5014 43.0361 56.2949" stroke="#855239" stroke-width="0.507339" stroke-linecap="round"/>
<path d="M38.7075 60.274C39.4196 61.4805 40.5511 62.1315 41.2348 61.728C41.9185 61.3245 41.6096 59.4516 40.8975 58.2451" stroke="#855239" stroke-width="0.507339" stroke-linecap="round"/>
<path d="M33.1617 64.4241C34.5013 64.0141 35.3989 63.0663 35.1666 62.3072C34.9342 61.548 33.0411 61.4103 31.7015 61.8203" stroke="#855239" stroke-width="0.507339" stroke-linecap="round"/>
<g opacity="0.5">
<circle cx="30.3784" cy="30.4965" r="16.5132" transform="rotate(-53.7256 30.3784 30.4965)" fill="#D9D9D9" fill-opacity="0.4" stroke="#D9D9D9" stroke-width="0.0980459"/>
<g opacity="0.4">
<path d="M22.5474 39.6051L20.397 42.5352C20.365 42.5789 20.3744 42.6403 20.4182 42.672C21.193 43.2338 22.0004 43.7188 22.8312 44.1283C22.8737 44.1492 22.925 44.1365 22.953 44.0983L25.0251 41.2749C25.0605 41.2267 25.0448 41.1583 24.9922 41.1299C24.0701 40.6322 23.2926 40.0952 22.6906 39.5883C22.6469 39.5515 22.5812 39.5591 22.5474 39.6051Z" fill="#D9D9D9" fill-opacity="0.6"/>
<path d="M42.9035 39.5147C38.0593 43.1318 33.2907 43.5657 29.4688 42.7659C29.431 42.758 29.3924 42.7729 29.3695 42.804L27.4206 45.4596C27.3775 45.5184 27.4114 45.6019 27.4833 45.6135C33.1973 46.5365 39.2013 44.4225 43.0389 39.6487C43.1107 39.5594 42.9953 39.4462 42.9035 39.5147Z" fill="#D9D9D9" fill-opacity="0.6"/>
</g>
</g>
<defs>
<filter id="filter0_f_1_4" x="32.2823" y="25.0918" width="11.4803" height="12.1124" filterUnits="userSpaceOnUse" color-interpolation-filters="sRGB">
<feFlood flood-opacity="0" result="BackgroundImageFix"/>
<feBlend mode="normal" in="SourceGraphic" in2="BackgroundImageFix" result="shape"/>
<feGaussianBlur stdDeviation="0.507339" result="effect1_foregroundBlur_1_4"/>
</filter>
<filter id="filter1_f_1_4" x="30.5346" y="26.123" width="11.4803" height="12.1124" filterUnits="userSpaceOnUse" color-interpolation-filters="sRGB">
<feFlood flood-opacity="0" result="BackgroundImageFix"/>
<feBlend mode="normal" in="SourceGraphic" in2="BackgroundImageFix" result="shape"/>
<feGaussianBlur stdDeviation="0.507339" result="effect1_foregroundBlur_1_4"/>
</filter>
<filter id="filter2_f_1_4" x="42.3231" y="53.3354" width="4.58949" height="5.62308" filterUnits="userSpaceOnUse" color-interpolation-filters="sRGB">
<feFlood flood-opacity="0" result="BackgroundImageFix"/>
<feBlend mode="normal" in="SourceGraphic" in2="BackgroundImageFix" result="shape"/>
<feGaussianBlur stdDeviation="0.25367" result="effect1_foregroundBlur_1_4"/>
</filter>
<filter id="filter3_f_1_4" x="37.7086" y="56.7466" width="4.58949" height="5.62308" filterUnits="userSpaceOnUse" color-interpolation-filters="sRGB">
<feFlood flood-opacity="0" result="BackgroundImageFix"/>
<feBlend mode="normal" in="SourceGraphic" in2="BackgroundImageFix" result="shape"/>
<feGaussianBlur stdDeviation="0.25367" result="effect1_foregroundBlur_1_4"/>
</filter>
<filter id="filter4_f_1_4" x="30.0853" y="60.8735" width="5.79733" height="3.94437" filterUnits="userSpaceOnUse" color-interpolation-filters="sRGB">
<feFlood flood-opacity="0" result="BackgroundImageFix"/>
<feBlend mode="normal" in="SourceGraphic" in2="BackgroundImageFix" result="shape"/>
<feGaussianBlur stdDeviation="0.25367" result="effect1_foregroundBlur_1_4"/>
</filter>
<linearGradient id="paint0_linear_1_4" x1="31.3166" y1="24.6257" x2="31.9149" y2="62.0734" gradientUnits="userSpaceOnUse">
<stop stop-color="#D1A278"/>
<stop offset="1" stop-color="#C98B66"/>
</linearGradient>
</defs>
</svg>
