<svg width="169" height="165" viewBox="0 0 169 165" fill="none" xmlns="http://www.w3.org/2000/svg">
<ellipse cx="104.996" cy="108.056" rx="4.29173" ry="6.33541" transform="rotate(128.31 104.996 108.056)" fill="#C88A65" stroke="#855239" stroke-width="1.22621"/>
<path d="M106.931 103.762C124.308 85.1947 110.401 60.5776 101.275 50.59C96.2789 21.6394 93.6619 21.6555 78.7562 11.1819C58.4365 7.89094 54.4048 21.8955 34.6908 49.8161C31.1465 70.4565 53.4499 74.5333 62.6338 78.403C61.0332 93.2864 66.2128 105.192 67.4363 106.94C68.6599 108.688 85.2091 126.971 106.931 103.762Z" fill="url(#paint0_linear_182_2323)" stroke="#855239" stroke-width="2.45242" stroke-linejoin="round"/>
<g filter="url(#filter0_f_182_2323)">
<path d="M64.2556 94.8437C62.4531 90.312 66.2323 85.5285 71.0581 86.2333L82.6166 87.9215C87.4424 88.6263 89.6956 94.2909 86.6723 98.1178L79.431 107.284C76.4077 111.111 70.3754 110.23 68.5729 105.698L64.2556 94.8437Z" fill="#C88A65"/>
</g>
<g filter="url(#filter1_f_182_2323)">
<path d="M67.2962 90.9951C65.4937 86.4634 69.2728 81.6798 74.0986 82.3847L85.6572 84.0729C90.483 84.7777 92.7361 90.4423 89.7128 94.2691L82.4715 103.435C79.4482 107.262 73.416 106.381 71.6135 101.849L67.2962 90.9951Z" fill="#C88A65"/>
</g>
<rect x="103.74" y="82.582" width="7.97036" height="2.65679" rx="1.32839" transform="rotate(113.31 103.74 82.582)" fill="#713824"/>
<rect x="84.518" y="110.24" width="7.97036" height="2.65679" rx="1.32839" transform="rotate(158.31 84.518 110.24)" fill="#713824"/>
<path fill-rule="evenodd" clip-rule="evenodd" d="M126.391 80.5742C127.087 81.3528 127.472 82.2695 127.43 83.2357C127.316 85.8292 124.161 87.7967 120.383 87.6303C119.206 87.5785 118.108 87.3256 117.156 86.9234C114.983 86.4755 113.351 85.2064 113.055 83.4814C112.616 80.9228 115.281 78.3302 119.008 77.6907C122.438 77.1021 125.572 78.3732 126.391 80.5742Z" fill="#C88A65"/>
<path d="M126.391 80.5742L125.817 80.7881L125.857 80.8965L125.934 80.9827L126.391 80.5742ZM127.43 83.2357L128.042 83.2627L127.43 83.2357ZM120.383 87.6303L120.356 88.2428L120.356 88.2428L120.383 87.6303ZM117.156 86.9234L117.395 86.3587L117.339 86.3352L117.28 86.3229L117.156 86.9234ZM113.055 83.4814L113.66 83.3777L113.055 83.4814ZM119.008 77.6907L118.904 77.0864L118.904 77.0864L119.008 77.6907ZM125.934 80.9827C126.545 81.6669 126.851 82.4329 126.817 83.2087L128.042 83.2627C128.093 82.1062 127.629 81.0388 126.848 80.1657L125.934 80.9827ZM126.817 83.2087C126.772 84.2453 126.116 85.2242 124.956 85.9477C123.799 86.6694 122.191 87.0963 120.41 87.0178L120.356 88.2428C122.353 88.3308 124.212 87.857 125.605 86.9882C126.995 86.1211 127.974 84.8195 128.042 83.2627L126.817 83.2087ZM120.41 87.0178C119.303 86.9691 118.276 86.7313 117.395 86.3587L116.918 87.4882C117.939 87.9198 119.109 88.1879 120.356 88.2428L120.41 87.0178ZM117.28 86.3229C115.234 85.9013 113.895 84.7522 113.66 83.3777L112.451 83.5851C112.807 85.6605 114.731 87.0497 117.032 87.5239L117.28 86.3229ZM113.66 83.3777C113.484 82.3551 113.917 81.2592 114.897 80.3059C115.875 79.3549 117.355 78.5965 119.112 78.295L118.904 77.0864C116.935 77.4244 115.219 78.2821 114.042 79.4269C112.867 80.5694 112.187 82.0492 112.451 83.5851L113.66 83.3777ZM119.112 78.295C120.728 78.0177 122.254 78.1827 123.453 78.6566C124.658 79.1326 125.485 79.8965 125.817 80.7881L126.966 80.3603C126.478 79.0508 125.328 78.0787 123.904 77.5161C122.474 76.9514 120.718 76.7752 118.904 77.0864L119.112 78.295Z" fill="#855239"/>
<path d="M83.5822 96.0885C82.1344 99.6381 80.961 101.501 78.1762 104.58" stroke="#855239" stroke-width="2.45242" stroke-linecap="round"/>
<path d="M80.6927 100.577C76.0879 97.6763 73.037 96.0918 70.1008 90.9071" stroke="#855239" stroke-width="2.45242" stroke-linecap="round"/>
<g filter="url(#filter2_f_182_2323)">
<ellipse cx="40.3315" cy="45.5104" rx="3.47426" ry="6.13104" transform="rotate(128.31 40.3315 45.5104)" fill="#C67C4F"/>
</g>
<g filter="url(#filter3_f_182_2323)">
<ellipse cx="3.47426" cy="6.13104" rx="3.47426" ry="6.13104" transform="matrix(0.61991 -0.784673 -0.784673 -0.61991 50.4177 40.3262)" fill="#C67C4F"/>
</g>
<g filter="url(#filter4_f_182_2323)">
<ellipse cx="3.22069" cy="5.96252" rx="3.22069" ry="5.96252" transform="matrix(-0.617883 -0.78627 -0.78627 0.617883 67.396 19.1172)" fill="#C67C4F"/>
</g>
<path d="M38.1946 48.3802C35.5376 46.2811 34.348 43.3589 35.5375 41.8533C36.7269 40.3477 41.1111 41.6988 43.7681 43.7979" stroke="#855239" stroke-width="1.22621" stroke-linecap="round"/>
<path d="M50.0578 31.0564C47.4008 28.9573 44.2827 28.4762 43.0932 29.9819C41.9037 31.4875 44.2327 35.44 46.8897 37.5391" stroke="#855239" stroke-width="1.22621" stroke-linecap="round"/>
<path d="M58.9406 16.8643C56.2782 18.9565 55.081 21.8755 56.2666 23.3842C57.4522 24.8929 61.8399 23.5531 64.5023 21.4609" stroke="#855239" stroke-width="1.22621" stroke-linecap="round"/>
<g opacity="0.5">
<circle cx="94.7922" cy="90.92" r="39.9115" transform="rotate(105.132 94.7922 90.92)" fill="#D9D9D9" fill-opacity="0.4" stroke="#D9D9D9" stroke-width="0.236971"/>
<g opacity="0.4">
<path d="M104.505 63.5591L106.798 55.0793C106.832 54.953 106.757 54.8228 106.631 54.7894C104.394 54.1985 102.151 53.8092 99.9216 53.6102C99.8076 53.6 99.7029 53.6734 99.673 53.784L97.4634 61.9551C97.4257 62.0946 97.5206 62.2351 97.664 62.2532C100.177 62.5713 102.397 63.1041 104.196 63.7219C104.327 63.7668 104.468 63.6924 104.505 63.5591Z" fill="#D9D9D9" fill-opacity="0.6"/>
<path d="M58.6956 81.5086C66.4623 69.1318 76.8336 63.9967 86.1465 62.4677C86.2385 62.4526 86.3127 62.3855 86.337 62.2954L88.4154 54.6099C88.4613 54.4398 88.3121 54.2811 88.1398 54.3176C74.4545 57.2183 62.7627 67.2178 58.2734 81.3246C58.1894 81.5884 58.5484 81.7431 58.6956 81.5086Z" fill="#D9D9D9" fill-opacity="0.6"/>
</g>
</g>
<defs>
<filter id="filter0_f_182_2323" x="61.3454" y="83.7116" width="29.1503" height="28.4341" filterUnits="userSpaceOnUse" color-interpolation-filters="sRGB">
<feFlood flood-opacity="0" result="BackgroundImageFix"/>
<feBlend mode="normal" in="SourceGraphic" in2="BackgroundImageFix" result="shape"/>
<feGaussianBlur stdDeviation="1.22621" result="effect1_foregroundBlur_182_2323"/>
</filter>
<filter id="filter1_f_182_2323" x="64.386" y="79.863" width="29.1503" height="28.4341" filterUnits="userSpaceOnUse" color-interpolation-filters="sRGB">
<feFlood flood-opacity="0" result="BackgroundImageFix"/>
<feBlend mode="normal" in="SourceGraphic" in2="BackgroundImageFix" result="shape"/>
<feGaussianBlur stdDeviation="1.22621" result="effect1_foregroundBlur_182_2323"/>
</filter>
<filter id="filter2_f_182_2323" x="33.833" y="39.6068" width="12.9969" height="11.8079" filterUnits="userSpaceOnUse" color-interpolation-filters="sRGB">
<feFlood flood-opacity="0" result="BackgroundImageFix"/>
<feBlend mode="normal" in="SourceGraphic" in2="BackgroundImageFix" result="shape"/>
<feGaussianBlur stdDeviation="0.613104" result="effect1_foregroundBlur_182_2323"/>
</filter>
<filter id="filter3_f_182_2323" x="41.2621" y="27.8959" width="12.9969" height="11.8069" filterUnits="userSpaceOnUse" color-interpolation-filters="sRGB">
<feFlood flood-opacity="0" result="BackgroundImageFix"/>
<feBlend mode="normal" in="SourceGraphic" in2="BackgroundImageFix" result="shape"/>
<feGaussianBlur stdDeviation="0.613104" result="effect1_foregroundBlur_182_2323"/>
</filter>
<filter id="filter4_f_182_2323" x="54.3973" y="14.5716" width="12.6411" height="11.3948" filterUnits="userSpaceOnUse" color-interpolation-filters="sRGB">
<feFlood flood-opacity="0" result="BackgroundImageFix"/>
<feBlend mode="normal" in="SourceGraphic" in2="BackgroundImageFix" result="shape"/>
<feGaussianBlur stdDeviation="0.613104" result="effect1_foregroundBlur_182_2323"/>
</filter>
<linearGradient id="paint0_linear_182_2323" x1="97.7954" y1="104.973" x2="63.8011" y2="21.0777" gradientUnits="userSpaceOnUse">
<stop stop-color="#D1A278"/>
<stop offset="1" stop-color="#C98B66"/>
</linearGradient>
</defs>
</svg>
