<svg width="46" height="44" viewBox="0 0 46 44" fill="none" xmlns="http://www.w3.org/2000/svg">
<path d="M23 0C20.0453 0 17.1194 0.58198 14.3896 1.71271C11.6598 2.84344 9.17942 4.50078 7.0901 6.5901C2.87053 10.8097 0.5 16.5326 0.5 22.5C0.5 32.445 6.9575 40.8825 15.89 43.875C17.015 44.055 17.375 43.3575 17.375 42.75V38.9475C11.1425 40.2975 9.815 35.9325 9.815 35.9325C8.78 33.3225 7.3175 32.625 7.3175 32.625C5.27 31.23 7.475 31.275 7.475 31.275C9.725 31.4325 10.9175 33.5925 10.9175 33.5925C12.875 37.0125 16.1825 36 17.465 35.46C17.6675 33.9975 18.2525 33.0075 18.8825 32.445C13.8875 31.8825 8.645 29.9475 8.645 21.375C8.645 18.8775 9.5 16.875 10.9625 15.2775C10.7375 14.715 9.95 12.375 11.1875 9.3375C11.1875 9.3375 13.0775 8.73 17.375 11.6325C19.1525 11.1375 21.0875 10.89 23 10.89C24.9125 10.89 26.8475 11.1375 28.625 11.6325C32.9225 8.73 34.8125 9.3375 34.8125 9.3375C36.05 12.375 35.2625 14.715 35.0375 15.2775C36.5 16.875 37.355 18.8775 37.355 21.375C37.355 29.97 32.09 31.86 27.0725 32.4225C27.8825 33.12 28.625 34.4925 28.625 36.585V42.75C28.625 43.3575 28.985 44.0775 30.1325 43.875C39.065 40.86 45.5 32.445 45.5 22.5C45.5 19.5453 44.918 16.6194 43.7873 13.8896C42.6566 11.1598 40.9992 8.67942 38.9099 6.5901C36.8206 4.50078 34.3402 2.84344 31.6104 1.71271C28.8806 0.58198 25.9547 0 23 0Z" fill="black"/>
</svg>
