<svg width="1377" height="925" viewBox="0 0 1377 925" fill="none" xmlns="http://www.w3.org/2000/svg">
<g filter="url(#filter0_f_1_4)">
<path d="M1329.67 474.612C1329.79 474.395 1329.98 474.223 1330.21 474.118C1330.44 474.013 1330.69 473.98 1330.94 474.024C1331.18 474.068 1331.41 474.187 1331.59 474.364C1331.76 474.541 1331.88 474.769 1331.92 475.015L1332.51 478.35C1332.97 480.964 1333.99 483.447 1335.51 485.625C1337.02 487.804 1339 489.625 1341.29 490.963L1344.21 492.668C1344.43 492.794 1344.6 492.983 1344.7 493.209C1344.81 493.436 1344.84 493.69 1344.8 493.936C1344.75 494.182 1344.64 494.409 1344.46 494.585C1344.28 494.761 1344.05 494.878 1343.81 494.921L1340.47 495.506C1337.86 495.965 1335.38 496.989 1333.2 498.506C1331.02 500.022 1329.2 501.996 1327.86 504.288L1326.16 507.211C1326.03 507.427 1325.84 507.599 1325.62 507.705C1325.39 507.81 1325.13 507.842 1324.89 507.798C1324.64 507.754 1324.42 507.636 1324.24 507.458C1324.06 507.281 1323.95 507.054 1323.9 506.807L1323.32 503.475C1322.86 500.861 1321.84 498.378 1320.32 496.199C1318.8 494.021 1316.83 492.2 1314.54 490.862L1311.61 489.156C1311.4 489.031 1311.22 488.842 1311.12 488.615C1311.01 488.388 1310.98 488.134 1311.02 487.888C1311.07 487.642 1311.19 487.416 1311.36 487.24C1311.54 487.063 1311.77 486.946 1312.01 486.903L1315.35 486.318C1317.96 485.859 1320.45 484.836 1322.63 483.319C1324.8 481.802 1326.63 479.829 1327.96 477.536L1329.67 474.612Z" fill="#FDFDFD"/>
</g>
<g filter="url(#filter1_f_1_4)">
<path d="M267.669 883.612C267.794 883.395 267.983 883.223 268.21 883.118C268.436 883.013 268.69 882.98 268.936 883.024C269.182 883.068 269.409 883.187 269.585 883.364C269.761 883.541 269.879 883.769 269.921 884.015L270.506 887.35C270.965 889.964 271.989 892.447 273.506 894.625C275.022 896.804 276.996 898.625 279.288 899.963L282.21 901.668C282.427 901.794 282.599 901.983 282.704 902.209C282.809 902.436 282.842 902.69 282.798 902.936C282.754 903.182 282.635 903.409 282.458 903.585C282.281 903.761 282.053 903.878 281.807 903.921L278.475 904.506C275.86 904.965 273.377 905.989 271.199 907.506C269.021 909.022 267.199 910.996 265.862 913.288L264.156 916.211C264.031 916.427 263.842 916.599 263.615 916.705C263.388 916.81 263.135 916.842 262.889 916.798C262.643 916.754 262.416 916.636 262.24 916.458C262.064 916.281 261.946 916.054 261.904 915.807L261.318 912.475C260.859 909.861 259.836 907.378 258.319 905.199C256.802 903.021 254.829 901.2 252.536 899.862L249.612 898.156C249.395 898.031 249.223 897.842 249.118 897.615C249.013 897.388 248.98 897.134 249.024 896.888C249.068 896.642 249.187 896.416 249.364 896.24C249.541 896.063 249.769 895.946 250.015 895.903L253.35 895.318C255.964 894.859 258.447 893.836 260.625 892.319C262.804 890.802 264.625 888.829 265.963 886.536L267.669 883.612Z" fill="#FDFDFD"/>
</g>
<g filter="url(#filter2_f_1_4)">
<path d="M319.669 97.6118C319.794 97.3955 319.983 97.223 320.21 97.1179C320.436 97.0127 320.69 96.98 320.936 97.024C321.182 97.0681 321.409 97.1869 321.585 97.3642C321.761 97.5415 321.879 97.7688 321.921 98.0151L322.506 101.35C322.965 103.964 323.989 106.447 325.506 108.625C327.022 110.804 328.996 112.625 331.288 113.963L334.21 115.668C334.427 115.794 334.599 115.983 334.704 116.209C334.809 116.436 334.842 116.69 334.798 116.936C334.754 117.182 334.635 117.409 334.458 117.585C334.281 117.761 334.053 117.878 333.807 117.921L330.475 118.506C327.86 118.965 325.377 119.989 323.199 121.506C321.021 123.022 319.199 124.996 317.862 127.288L316.156 130.211C316.031 130.427 315.842 130.599 315.615 130.705C315.388 130.81 315.135 130.842 314.889 130.798C314.643 130.754 314.416 130.636 314.24 130.458C314.064 130.281 313.946 130.054 313.904 129.807L313.318 126.475C312.859 123.861 311.836 121.378 310.319 119.199C308.802 117.021 306.829 115.2 304.536 113.862L301.612 112.156C301.395 112.031 301.223 111.842 301.118 111.615C301.013 111.388 300.98 111.134 301.024 110.888C301.068 110.642 301.187 110.416 301.364 110.24C301.541 110.063 301.769 109.946 302.015 109.903L305.35 109.318C307.964 108.859 310.447 107.836 312.625 106.319C314.804 104.802 316.625 102.829 317.963 100.536L319.669 97.6118Z" fill="#FDFDFD"/>
</g>
<g filter="url(#filter3_f_1_4)">
<path d="M141.669 557.612C141.794 557.395 141.983 557.223 142.21 557.118C142.436 557.013 142.69 556.98 142.936 557.024C143.182 557.068 143.409 557.187 143.585 557.364C143.761 557.541 143.879 557.769 143.921 558.015L144.506 561.35C144.965 563.964 145.989 566.447 147.506 568.625C149.022 570.804 150.996 572.625 153.288 573.963L156.21 575.668C156.427 575.794 156.599 575.983 156.704 576.209C156.809 576.436 156.842 576.69 156.798 576.936C156.754 577.182 156.635 577.409 156.458 577.585C156.281 577.761 156.053 577.878 155.807 577.921L152.475 578.506C149.86 578.965 147.377 579.989 145.199 581.506C143.021 583.022 141.199 584.996 139.862 587.288L138.156 590.211C138.031 590.427 137.842 590.599 137.615 590.705C137.388 590.81 137.135 590.842 136.889 590.798C136.643 590.754 136.416 590.636 136.24 590.458C136.064 590.281 135.946 590.054 135.904 589.807L135.318 586.475C134.859 583.861 133.836 581.378 132.319 579.199C130.802 577.021 128.829 575.2 126.536 573.862L123.612 572.156C123.395 572.031 123.223 571.842 123.118 571.615C123.013 571.388 122.98 571.134 123.024 570.888C123.068 570.642 123.187 570.416 123.364 570.24C123.541 570.063 123.769 569.946 124.015 569.903L127.35 569.318C129.964 568.859 132.447 567.836 134.625 566.319C136.804 564.802 138.625 562.829 139.963 560.536L141.669 557.612Z" fill="#FDFDFD"/>
</g>
<g filter="url(#filter4_f_1_4)">
<path d="M83.0499 172.82C83.1355 172.585 83.2913 172.382 83.4962 172.239C83.701 172.095 83.9451 172.019 84.195 172.019C84.445 172.019 84.6889 172.097 84.8934 172.24C85.098 172.384 85.2533 172.587 85.3384 172.822L86.4985 176.003C87.4084 178.497 88.851 180.762 90.7258 182.641C92.6007 184.52 94.8626 185.967 97.3541 186.883L100.53 188.05C100.765 188.136 100.968 188.291 101.111 188.496C101.254 188.701 101.331 188.945 101.331 189.195C101.33 189.445 101.253 189.689 101.109 189.893C100.966 190.098 100.762 190.253 100.527 190.338L97.349 191.499C94.8554 192.408 92.5903 193.851 90.7113 195.726C88.8323 197.601 87.3847 199.863 86.4693 202.354L85.3021 205.53C85.2165 205.765 85.0607 205.968 84.8558 206.111C84.6509 206.254 84.4069 206.331 84.1569 206.331C83.907 206.33 83.6631 206.253 83.4586 206.109C83.254 205.966 83.0986 205.762 83.0136 205.527L81.8535 202.349C80.9436 199.855 79.501 197.59 77.6262 195.711C75.7513 193.832 73.4894 192.385 70.9979 191.469L67.8197 190.302C67.5848 190.217 67.382 190.061 67.2387 189.856C67.0955 189.651 67.0188 189.407 67.019 189.157C67.0193 188.907 67.0966 188.663 67.2403 188.459C67.384 188.254 67.5872 188.099 67.8223 188.014L71.003 186.853C73.4965 185.944 75.7617 184.501 77.6407 182.626C79.5197 180.751 80.9673 178.489 81.8827 175.998L83.0499 172.82Z" fill="#FDFDFD"/>
</g>
<g filter="url(#filter5_f_1_4)">
<path d="M876.022 825.379C876.087 825.138 876.224 824.922 876.416 824.762C876.607 824.601 876.844 824.503 877.093 824.482C877.342 824.46 877.592 824.516 877.808 824.641C878.024 824.766 878.197 824.955 878.302 825.182L879.736 828.249C880.86 830.653 882.496 832.784 884.527 834.491C886.559 836.199 888.939 837.444 891.501 838.138L894.767 839.023C895.008 839.087 895.224 839.225 895.385 839.416C895.545 839.608 895.643 839.844 895.665 840.093C895.686 840.342 895.631 840.592 895.505 840.808C895.38 841.025 895.191 841.197 894.965 841.303L891.9 842.736C889.495 843.861 887.365 845.496 885.657 847.528C883.949 849.56 882.705 851.94 882.011 854.502L881.126 857.767C881.061 858.009 880.924 858.224 880.732 858.385C880.541 858.546 880.304 858.643 880.055 858.665C879.806 858.687 879.557 858.631 879.34 858.506C879.124 858.38 878.951 858.192 878.846 857.965L877.412 854.9C876.288 852.496 874.653 850.365 872.621 848.658C870.589 846.95 868.209 845.705 865.647 845.011L862.379 844.127C862.138 844.062 861.922 843.924 861.761 843.733C861.601 843.541 861.503 843.305 861.481 843.056C861.46 842.807 861.515 842.557 861.641 842.341C861.766 842.124 861.955 841.952 862.181 841.847L865.249 840.413C867.653 839.288 869.783 837.653 871.491 835.621C873.199 833.589 874.443 831.209 875.137 828.647L876.022 825.379Z" fill="#FDFDFD"/>
</g>
<g filter="url(#filter6_f_1_4)">
<circle cx="101.279" cy="813.279" r="60" transform="rotate(19.0211 101.279 813.279)" fill="url(#paint0_linear_1_4)"/>
<circle cx="101.279" cy="813.279" r="60" transform="rotate(19.0211 101.279 813.279)" fill="url(#paint1_radial_1_4)"/>
</g>
<g filter="url(#filter7_f_1_4)">
<circle cx="1147.02" cy="184.15" r="15.2" transform="rotate(1.92757 1147.02 184.15)" fill="#FFA167"/>
</g>
<g filter="url(#filter8_f_1_4)">
<path d="M1116.93 187.921C1113.63 204.245 1133.71 209.517 1148.24 209.005C1162.76 208.493 1333.67 132.264 1445.58 77.9324C1445.58 77.9324 1149.94 158.534 1143.84 161.311C1137.74 164.089 1117.44 172.742 1116.93 187.921Z" fill="url(#paint2_linear_1_4)" fill-opacity="0.6"/>
</g>
<g filter="url(#filter9_f_1_4)">
<path d="M1189.17 314.49C1189.05 314.273 1188.86 314.099 1188.63 313.992C1188.41 313.885 1188.16 313.85 1187.91 313.892C1187.66 313.935 1187.44 314.052 1187.26 314.227C1187.08 314.403 1186.96 314.63 1186.92 314.876L1186.31 318.206C1185.83 320.817 1184.78 323.291 1183.25 325.458C1181.72 327.624 1179.73 329.43 1177.43 330.75L1174.49 332.433C1174.27 332.556 1174.1 332.744 1173.99 332.97C1173.88 333.196 1173.85 333.449 1173.89 333.696C1173.93 333.942 1174.05 334.17 1174.23 334.347C1174.4 334.525 1174.63 334.644 1174.88 334.688L1178.2 335.3C1180.81 335.779 1183.29 336.822 1185.46 338.356C1187.62 339.889 1189.43 341.877 1190.75 344.18L1192.43 347.115C1192.55 347.332 1192.74 347.506 1192.97 347.613C1193.19 347.72 1193.45 347.755 1193.69 347.713C1193.94 347.671 1194.17 347.554 1194.34 347.378C1194.52 347.202 1194.64 346.975 1194.69 346.729L1195.3 343.402C1195.78 340.791 1196.82 338.316 1198.35 336.15C1199.89 333.983 1201.87 332.177 1204.18 330.857L1207.12 329.174C1207.33 329.051 1207.51 328.863 1207.61 328.637C1207.72 328.411 1207.75 328.158 1207.71 327.911C1207.67 327.665 1207.55 327.438 1207.38 327.26C1207.2 327.082 1206.98 326.963 1206.73 326.919L1203.4 326.308C1200.79 325.828 1198.31 324.786 1196.15 323.252C1193.98 321.718 1192.17 319.731 1190.85 317.428L1189.17 314.49Z" fill="#5D58FF" fill-opacity="0.8"/>
</g>
<g filter="url(#filter10_f_1_4)">
<path d="M1299.17 779.49C1299.05 779.273 1298.86 779.099 1298.63 778.992C1298.41 778.885 1298.16 778.85 1297.91 778.892C1297.66 778.935 1297.44 779.052 1297.26 779.227C1297.08 779.403 1296.96 779.63 1296.92 779.876L1296.31 783.206C1295.83 785.817 1294.78 788.291 1293.25 790.458C1291.72 792.624 1289.73 794.43 1287.43 795.75L1284.49 797.433C1284.27 797.556 1284.1 797.744 1283.99 797.97C1283.88 798.196 1283.85 798.449 1283.89 798.696C1283.93 798.942 1284.05 799.17 1284.23 799.347C1284.4 799.525 1284.63 799.644 1284.88 799.688L1288.2 800.3C1290.81 800.779 1293.29 801.822 1295.46 803.356C1297.62 804.889 1299.43 806.877 1300.75 809.18L1302.43 812.115C1302.55 812.332 1302.74 812.506 1302.97 812.613C1303.19 812.72 1303.45 812.755 1303.69 812.713C1303.94 812.671 1304.17 812.554 1304.34 812.378C1304.52 812.202 1304.64 811.975 1304.69 811.729L1305.3 808.402C1305.78 805.791 1306.82 803.316 1308.35 801.15C1309.89 798.983 1311.87 797.177 1314.18 795.857L1317.12 794.174C1317.33 794.051 1317.51 793.863 1317.61 793.637C1317.72 793.411 1317.75 793.158 1317.71 792.911C1317.67 792.665 1317.55 792.438 1317.38 792.26C1317.2 792.082 1316.98 791.963 1316.73 791.919L1313.4 791.308C1310.79 790.828 1308.31 789.786 1306.15 788.252C1303.98 786.718 1302.17 784.731 1300.85 782.428L1299.17 779.49Z" fill="#5D58FF" fill-opacity="0.8"/>
</g>
<g filter="url(#filter11_f_1_4)">
<path d="M897.073 28.8941C897.168 28.6628 897.189 28.4079 897.134 28.164C897.079 27.9202 896.95 27.6992 896.765 27.5312C896.58 27.3631 896.348 27.2562 896.1 27.2248C895.852 27.1934 895.6 27.2391 895.379 27.3558L892.38 28.9274C890.029 30.1593 887.437 30.8637 884.786 30.9915C882.135 31.1194 879.488 30.6677 877.029 29.6679L873.894 28.3937C873.663 28.2989 873.408 28.2776 873.164 28.3327C872.92 28.3878 872.699 28.5167 872.531 28.7018C872.363 28.8869 872.256 29.1192 872.225 29.3672C872.194 29.6152 872.239 29.8669 872.356 30.088L873.926 33.0852C875.158 35.4364 875.862 38.0279 875.99 40.6791C876.118 43.3304 875.666 45.9777 874.666 48.4365L873.392 51.5709C873.297 51.8022 873.276 52.0571 873.331 52.3009C873.386 52.5448 873.515 52.7657 873.7 52.9338C873.885 53.1018 874.118 53.2088 874.366 53.2402C874.614 53.2716 874.865 53.2259 875.086 53.1092L878.084 51.5394C880.435 50.3075 883.026 49.6031 885.678 49.4752C888.329 49.3474 890.976 49.7991 893.435 50.7989L896.571 52.0747C896.802 52.1695 897.057 52.1908 897.301 52.1357C897.545 52.0806 897.766 51.9517 897.934 51.7666C898.102 51.5816 898.209 51.3492 898.24 51.1012C898.272 50.8532 898.226 50.6015 898.109 50.3804L896.538 47.3816C895.306 45.0304 894.602 42.4389 894.474 39.7876C894.346 37.1364 894.798 34.4891 895.797 32.0303L897.073 28.8941Z" fill="#5D58FF" fill-opacity="0.8"/>
</g>
<g filter="url(#filter12_f_1_4)">
<path d="M502.774 32.913C502.695 32.676 502.544 32.4693 502.343 32.3209C502.142 32.1724 501.9 32.0896 501.65 32.0835C501.4 32.0774 501.154 32.1484 500.946 32.2869C500.738 32.4253 500.577 32.6245 500.486 32.8574L499.246 36.0076C498.273 38.4771 496.773 40.7048 494.851 42.5355C492.929 44.3662 490.631 45.7558 488.117 46.6075L484.912 47.6936C484.675 47.7731 484.469 47.9237 484.32 48.1249C484.172 48.326 484.089 48.568 484.083 48.8179C484.077 49.0678 484.148 49.3136 484.286 49.5217C484.425 49.7299 484.624 49.8903 484.857 49.9813L488.005 51.222C490.474 52.195 492.702 53.6948 494.533 55.6168C496.363 57.5388 497.753 59.8369 498.605 62.3509L499.691 65.5553C499.77 65.7923 499.921 65.999 500.122 66.1474C500.323 66.2959 500.565 66.3787 500.815 66.3848C501.065 66.3909 501.311 66.3199 501.519 66.1814C501.727 66.043 501.887 65.8438 501.978 65.611L503.219 62.4632C504.192 59.9936 505.692 57.7659 507.614 55.9352C509.536 54.1045 511.834 52.7149 514.348 51.8632L517.555 50.7772C517.792 50.6977 517.998 50.5471 518.147 50.3459C518.295 50.1448 518.378 49.9028 518.384 49.6529C518.39 49.403 518.319 49.1572 518.181 48.9491C518.042 48.7409 517.843 48.5805 517.61 48.4895L514.46 47.2488C511.991 46.2757 509.763 44.776 507.932 42.8539C506.102 40.9319 504.712 38.6339 503.86 36.1199L502.774 32.913Z" fill="#5D58FF" fill-opacity="0.8"/>
</g>
<g filter="url(#filter13_f_1_4)">
<path d="M24.1719 417.49C24.0483 417.273 23.8607 417.099 23.6347 416.992C23.4087 416.885 23.1553 416.85 22.9089 416.892C22.6625 416.935 22.435 417.052 22.2574 417.227C22.0798 417.403 21.9607 417.63 21.9163 417.876L21.3052 421.206C20.8259 423.817 19.783 426.291 18.2494 428.458C16.7158 430.624 14.7282 432.43 12.4253 433.75L9.48989 435.433C9.27264 435.556 9.09874 435.744 8.99183 435.97C8.88491 436.196 8.85017 436.449 8.89231 436.696C8.93446 436.942 9.05145 437.17 9.22739 437.347C9.40332 437.525 9.62968 437.644 9.87569 437.688L13.2034 438.3C15.8141 438.779 18.2889 439.822 20.4554 441.356C22.6218 442.889 24.4279 444.877 25.7476 447.18L27.4303 450.115C27.554 450.332 27.7415 450.506 27.9675 450.613C28.1935 450.72 28.4469 450.755 28.6933 450.713C28.9397 450.671 29.1672 450.554 29.3448 450.378C29.5224 450.202 29.6415 449.975 29.686 449.729L30.2974 446.402C30.7768 443.791 31.8196 441.316 33.3532 439.15C34.8869 436.983 36.8744 435.177 39.1774 433.857L42.1151 432.174C42.3324 432.051 42.5063 431.863 42.6132 431.637C42.7201 431.411 42.7549 431.158 42.7127 430.911C42.6706 430.665 42.5536 430.438 42.3776 430.26C42.2017 430.082 41.9754 429.963 41.7293 429.919L38.3992 429.308C35.7885 428.828 33.3137 427.786 31.1473 426.252C28.9808 424.718 27.1748 422.731 25.855 420.428L24.1719 417.49Z" fill="#5D58FF" fill-opacity="0.8"/>
</g>
<g filter="url(#filter14_f_1_4)">
<path d="M1082.88 871.558C1082.91 871.309 1082.85 871.059 1082.73 870.841C1082.6 870.624 1082.42 870.45 1082.19 870.343C1081.96 870.236 1081.71 870.201 1081.46 870.243C1081.22 870.285 1080.99 870.402 1080.81 870.578L1078.4 872.953C1076.51 874.815 1074.23 876.242 1071.73 877.135C1069.23 878.028 1066.57 878.365 1063.93 878.123L1060.56 877.815C1060.31 877.791 1060.06 877.845 1059.84 877.968C1059.62 878.092 1059.45 878.28 1059.34 878.505C1059.24 878.731 1059.2 878.985 1059.24 879.231C1059.29 879.478 1059.4 879.705 1059.58 879.883L1061.95 882.295C1063.81 884.186 1065.24 886.461 1066.13 888.961C1067.03 891.461 1067.36 894.125 1067.12 896.768L1066.81 900.138C1066.79 900.386 1066.84 900.637 1066.97 900.854C1067.09 901.071 1067.28 901.245 1067.5 901.352C1067.73 901.459 1067.98 901.494 1068.23 901.452C1068.48 901.41 1068.7 901.293 1068.88 901.117L1071.29 898.744C1073.18 896.882 1075.46 895.455 1077.96 894.562C1080.46 893.669 1083.12 893.332 1085.77 893.575L1089.14 893.884C1089.39 893.907 1089.64 893.854 1089.85 893.73C1090.07 893.607 1090.24 893.419 1090.35 893.193C1090.46 892.967 1090.49 892.714 1090.45 892.467C1090.41 892.221 1090.29 891.993 1090.12 891.816L1087.74 889.403C1085.88 887.511 1084.45 885.236 1083.56 882.737C1082.67 880.237 1082.33 877.573 1082.57 874.929L1082.88 871.558Z" fill="#5D58FF" fill-opacity="0.8"/>
</g>
<g filter="url(#filter15_f_1_4)">
<path d="M458.882 816.558C458.905 816.309 458.851 816.059 458.728 815.841C458.604 815.624 458.417 815.45 458.191 815.343C457.965 815.236 457.711 815.201 457.465 815.243C457.219 815.285 456.991 815.402 456.813 815.578L454.401 817.953C452.509 819.815 450.234 821.242 447.734 822.135C445.235 823.028 442.57 823.365 439.927 823.123L436.558 822.815C436.309 822.791 436.059 822.845 435.841 822.968C435.624 823.092 435.45 823.28 435.343 823.505C435.236 823.731 435.201 823.985 435.243 824.231C435.285 824.478 435.402 824.705 435.578 824.883L437.951 827.295C439.813 829.186 441.24 831.461 442.133 833.961C443.026 836.461 443.363 839.125 443.121 841.768L442.812 845.138C442.789 845.386 442.843 845.637 442.966 845.854C443.09 846.071 443.277 846.245 443.503 846.352C443.729 846.459 443.982 846.494 444.229 846.452C444.475 846.41 444.703 846.293 444.881 846.117L447.292 843.744C449.184 841.882 451.459 840.455 453.959 839.562C456.458 838.669 459.123 838.332 461.766 838.575L465.137 838.884C465.386 838.907 465.636 838.854 465.854 838.73C466.071 838.607 466.245 838.419 466.352 838.193C466.459 837.967 466.494 837.714 466.452 837.467C466.41 837.221 466.293 836.993 466.117 836.816L463.742 834.403C461.88 832.511 460.453 830.236 459.56 827.737C458.667 825.237 458.33 822.573 458.572 819.929L458.882 816.558Z" fill="#5D58FF" fill-opacity="0.8"/>
</g>
<g filter="url(#filter16_f_1_4)">
<path d="M1148.85 557.031C1148.71 556.827 1148.5 556.673 1148.27 556.589C1148.03 556.505 1147.78 556.496 1147.54 556.562C1147.3 556.629 1147.08 556.768 1146.92 556.961C1146.76 557.153 1146.67 557.39 1146.65 557.64L1146.37 561.014C1146.15 563.66 1145.36 566.226 1144.05 568.534C1142.74 570.843 1140.94 572.838 1138.78 574.38L1136.03 576.347C1135.83 576.492 1135.67 576.696 1135.59 576.931C1135.51 577.167 1135.5 577.422 1135.56 577.663C1135.63 577.904 1135.77 578.119 1135.96 578.278C1136.15 578.437 1136.39 578.533 1136.64 578.553L1140.01 578.83C1142.66 579.047 1145.22 579.838 1147.53 581.148C1149.84 582.459 1151.84 584.256 1153.38 586.416L1155.34 589.17C1155.49 589.374 1155.69 589.528 1155.93 589.612C1156.16 589.696 1156.42 589.705 1156.66 589.638C1156.9 589.572 1157.12 589.433 1157.28 589.24C1157.43 589.047 1157.53 588.81 1157.55 588.561L1157.83 585.189C1158.04 582.544 1158.84 579.977 1160.15 577.669C1161.46 575.36 1163.25 573.365 1165.41 571.823L1168.17 569.856C1168.37 569.711 1168.53 569.507 1168.61 569.271C1168.7 569.036 1168.7 568.78 1168.64 568.539C1168.57 568.298 1168.43 568.084 1168.24 567.924C1168.05 567.765 1167.81 567.669 1167.56 567.649L1164.19 567.373C1161.54 567.156 1158.97 566.365 1156.67 565.055C1154.36 563.745 1152.36 561.947 1150.82 559.787L1148.85 557.031Z" fill="#B182D0" fill-opacity="0.8"/>
</g>
<g filter="url(#filter17_f_1_4)">
<path d="M156.741 8.84948C156.56 8.67706 156.33 8.56456 156.083 8.52727C155.836 8.48998 155.583 8.5297 155.359 8.64103C155.135 8.75237 154.951 8.92992 154.832 9.14956C154.712 9.3692 154.664 9.62027 154.692 9.86866L155.066 13.2337C155.359 15.8718 155.073 18.5421 154.229 21.0585C153.384 23.5748 152.001 25.8768 150.176 27.804L147.849 30.2609C147.677 30.4419 147.564 30.6716 147.527 30.9188C147.49 31.166 147.53 31.4187 147.641 31.6425C147.752 31.8663 147.93 32.0505 148.149 32.1698C148.369 32.2892 148.62 32.3381 148.869 32.3098L152.231 31.9368C154.869 31.6439 157.54 31.9297 160.056 32.7743C162.573 33.6189 164.874 35.0019 166.802 36.8272L169.259 39.1535C169.44 39.3259 169.669 39.4384 169.916 39.4757C170.164 39.513 170.416 39.4732 170.64 39.3619C170.864 39.2506 171.048 39.073 171.168 38.8534C171.287 38.6337 171.336 38.3827 171.307 38.1343L170.934 34.7714C170.642 32.1333 170.927 29.463 171.772 26.9467C172.617 24.4303 174 22.1283 175.825 20.2011L178.153 17.7432C178.326 17.5621 178.438 17.3324 178.476 17.0852C178.513 16.838 178.473 16.5854 178.362 16.3615C178.25 16.1377 178.073 15.9536 177.853 15.8342C177.634 15.7148 177.382 15.6659 177.134 15.6942L173.769 16.0683C171.131 16.3612 168.461 16.0754 165.944 15.2308C163.428 14.3863 161.126 13.0032 159.199 11.178L156.741 8.84948Z" fill="#B182D0" fill-opacity="0.8"/>
</g>
<g filter="url(#filter18_f_1_4)">
<path d="M669.029 876.945C669.014 876.695 668.922 876.456 668.766 876.261C668.61 876.065 668.398 875.922 668.158 875.852C667.918 875.781 667.663 875.786 667.426 875.866C667.189 875.945 666.982 876.096 666.834 876.297L664.819 879.018C663.238 881.15 661.212 882.913 658.881 884.182C656.55 885.452 653.97 886.198 651.321 886.368L647.945 886.586C647.695 886.601 647.456 886.693 647.261 886.849C647.065 887.005 646.922 887.217 646.852 887.457C646.781 887.696 646.786 887.952 646.866 888.189C646.945 888.426 647.096 888.633 647.297 888.781L650.016 890.796C652.148 892.376 653.911 894.402 655.18 896.733C656.449 899.064 657.195 901.644 657.366 904.293L657.583 907.67C657.599 907.919 657.691 908.158 657.846 908.353C658.002 908.549 658.214 908.692 658.454 908.762C658.694 908.833 658.95 908.828 659.187 908.749C659.424 908.669 659.63 908.518 659.778 908.317L661.793 905.599C663.374 903.466 665.4 901.703 667.731 900.434C670.062 899.165 672.642 898.419 675.291 898.248L678.67 898.031C678.919 898.016 679.158 897.924 679.353 897.768C679.549 897.613 679.692 897.4 679.762 897.161C679.833 896.921 679.828 896.665 679.749 896.428C679.669 896.191 679.518 895.985 679.317 895.836L676.596 893.821C674.464 892.241 672.701 890.214 671.432 887.883C670.162 885.552 669.416 882.972 669.246 880.323L669.029 876.945Z" fill="#B182D0" fill-opacity="0.8"/>
</g>
<g filter="url(#filter19_f_1_4)">
<path d="M714.029 86.9445C714.014 86.695 713.922 86.4563 713.766 86.2608C713.61 86.0652 713.398 85.9224 713.158 85.8517C712.918 85.781 712.663 85.7859 712.426 85.8656C712.189 85.9453 711.982 86.096 711.834 86.2973L709.819 89.0179C708.238 91.1505 706.212 92.9129 703.881 94.1824C701.55 95.4518 698.97 96.1977 696.321 96.3682L692.945 96.5858C692.695 96.6012 692.456 96.693 692.261 96.8487C692.065 97.0045 691.922 97.2167 691.852 97.4565C691.781 97.6963 691.786 97.952 691.866 98.189C691.945 98.4259 692.096 98.6326 692.297 98.7808L695.016 100.796C697.148 102.376 698.911 104.402 700.18 106.733C701.449 109.064 702.195 111.644 702.366 114.293L702.583 117.67C702.599 117.919 702.691 118.158 702.846 118.353C703.002 118.549 703.214 118.692 703.454 118.762C703.694 118.833 703.95 118.828 704.187 118.749C704.424 118.669 704.63 118.518 704.778 118.317L706.793 115.599C708.374 113.466 710.4 111.703 712.731 110.434C715.062 109.165 717.642 108.419 720.291 108.248L723.67 108.031C723.919 108.016 724.158 107.924 724.353 107.768C724.549 107.613 724.692 107.4 724.762 107.161C724.833 106.921 724.828 106.665 724.749 106.428C724.669 106.191 724.518 105.985 724.317 105.836L721.596 103.821C719.464 102.241 717.701 100.214 716.432 97.8831C715.162 95.552 714.416 92.9722 714.246 90.3233L714.029 86.9445Z" fill="#B182D0" fill-opacity="0.8"/>
</g>
<defs>
<filter id="filter0_f_1_4" x="1303" y="466.005" width="49.8125" height="49.8125" filterUnits="userSpaceOnUse" color-interpolation-filters="sRGB">
<feFlood flood-opacity="0" result="BackgroundImageFix"/>
<feBlend mode="normal" in="SourceGraphic" in2="BackgroundImageFix" result="shape"/>
<feGaussianBlur stdDeviation="4" result="effect1_foregroundBlur_1_4"/>
</filter>
<filter id="filter1_f_1_4" x="241.005" y="875.005" width="49.8125" height="49.8125" filterUnits="userSpaceOnUse" color-interpolation-filters="sRGB">
<feFlood flood-opacity="0" result="BackgroundImageFix"/>
<feBlend mode="normal" in="SourceGraphic" in2="BackgroundImageFix" result="shape"/>
<feGaussianBlur stdDeviation="4" result="effect1_foregroundBlur_1_4"/>
</filter>
<filter id="filter2_f_1_4" x="293.005" y="89.0049" width="49.8125" height="49.8125" filterUnits="userSpaceOnUse" color-interpolation-filters="sRGB">
<feFlood flood-opacity="0" result="BackgroundImageFix"/>
<feBlend mode="normal" in="SourceGraphic" in2="BackgroundImageFix" result="shape"/>
<feGaussianBlur stdDeviation="4" result="effect1_foregroundBlur_1_4"/>
</filter>
<filter id="filter3_f_1_4" x="115.005" y="549.005" width="49.8125" height="49.8125" filterUnits="userSpaceOnUse" color-interpolation-filters="sRGB">
<feFlood flood-opacity="0" result="BackgroundImageFix"/>
<feBlend mode="normal" in="SourceGraphic" in2="BackgroundImageFix" result="shape"/>
<feGaussianBlur stdDeviation="4" result="effect1_foregroundBlur_1_4"/>
</filter>
<filter id="filter4_f_1_4" x="59.019" y="164.02" width="50.3115" height="50.3105" filterUnits="userSpaceOnUse" color-interpolation-filters="sRGB">
<feFlood flood-opacity="0" result="BackgroundImageFix"/>
<feBlend mode="normal" in="SourceGraphic" in2="BackgroundImageFix" result="shape"/>
<feGaussianBlur stdDeviation="4" result="effect1_foregroundBlur_1_4"/>
</filter>
<filter id="filter5_f_1_4" x="853.477" y="816.477" width="50.1929" height="50.1934" filterUnits="userSpaceOnUse" color-interpolation-filters="sRGB">
<feFlood flood-opacity="0" result="BackgroundImageFix"/>
<feBlend mode="normal" in="SourceGraphic" in2="BackgroundImageFix" result="shape"/>
<feGaussianBlur stdDeviation="4" result="effect1_foregroundBlur_1_4"/>
</filter>
<filter id="filter6_f_1_4" x="37.2622" y="749.263" width="128.033" height="128.032" filterUnits="userSpaceOnUse" color-interpolation-filters="sRGB">
<feFlood flood-opacity="0" result="BackgroundImageFix"/>
<feBlend mode="normal" in="SourceGraphic" in2="BackgroundImageFix" result="shape"/>
<feGaussianBlur stdDeviation="2" result="effect1_foregroundBlur_1_4"/>
</filter>
<filter id="filter7_f_1_4" x="1127.82" y="164.95" width="38.4004" height="38.4004" filterUnits="userSpaceOnUse" color-interpolation-filters="sRGB">
<feFlood flood-opacity="0" result="BackgroundImageFix"/>
<feBlend mode="normal" in="SourceGraphic" in2="BackgroundImageFix" result="shape"/>
<feGaussianBlur stdDeviation="2" result="effect1_foregroundBlur_1_4"/>
</filter>
<filter id="filter8_f_1_4" x="1112.57" y="73.9326" width="337.014" height="139.106" filterUnits="userSpaceOnUse" color-interpolation-filters="sRGB">
<feFlood flood-opacity="0" result="BackgroundImageFix"/>
<feBlend mode="normal" in="SourceGraphic" in2="BackgroundImageFix" result="shape"/>
<feGaussianBlur stdDeviation="2" result="effect1_foregroundBlur_1_4"/>
</filter>
<filter id="filter9_f_1_4" x="1165.88" y="305.875" width="49.855" height="49.8555" filterUnits="userSpaceOnUse" color-interpolation-filters="sRGB">
<feFlood flood-opacity="0" result="BackgroundImageFix"/>
<feBlend mode="normal" in="SourceGraphic" in2="BackgroundImageFix" result="shape"/>
<feGaussianBlur stdDeviation="4" result="effect1_foregroundBlur_1_4"/>
</filter>
<filter id="filter10_f_1_4" x="1275.88" y="770.875" width="49.855" height="49.8555" filterUnits="userSpaceOnUse" color-interpolation-filters="sRGB">
<feFlood flood-opacity="0" result="BackgroundImageFix"/>
<feBlend mode="normal" in="SourceGraphic" in2="BackgroundImageFix" result="shape"/>
<feGaussianBlur stdDeviation="4" result="effect1_foregroundBlur_1_4"/>
</filter>
<filter id="filter11_f_1_4" x="864.215" y="19.2148" width="42.0347" height="42.0352" filterUnits="userSpaceOnUse" color-interpolation-filters="sRGB">
<feFlood flood-opacity="0" result="BackgroundImageFix"/>
<feBlend mode="normal" in="SourceGraphic" in2="BackgroundImageFix" result="shape"/>
<feGaussianBlur stdDeviation="4" result="effect1_foregroundBlur_1_4"/>
</filter>
<filter id="filter12_f_1_4" x="476.083" y="24.083" width="50.3022" height="50.3018" filterUnits="userSpaceOnUse" color-interpolation-filters="sRGB">
<feFlood flood-opacity="0" result="BackgroundImageFix"/>
<feBlend mode="normal" in="SourceGraphic" in2="BackgroundImageFix" result="shape"/>
<feGaussianBlur stdDeviation="4" result="effect1_foregroundBlur_1_4"/>
</filter>
<filter id="filter13_f_1_4" x="0.875" y="408.875" width="49.855" height="49.8555" filterUnits="userSpaceOnUse" color-interpolation-filters="sRGB">
<feFlood flood-opacity="0" result="BackgroundImageFix"/>
<feBlend mode="normal" in="SourceGraphic" in2="BackgroundImageFix" result="shape"/>
<feGaussianBlur stdDeviation="4" result="effect1_foregroundBlur_1_4"/>
</filter>
<filter id="filter14_f_1_4" x="1051.23" y="862.226" width="47.2432" height="47.2441" filterUnits="userSpaceOnUse" color-interpolation-filters="sRGB">
<feFlood flood-opacity="0" result="BackgroundImageFix"/>
<feBlend mode="normal" in="SourceGraphic" in2="BackgroundImageFix" result="shape"/>
<feGaussianBlur stdDeviation="4" result="effect1_foregroundBlur_1_4"/>
</filter>
<filter id="filter15_f_1_4" x="427.226" y="807.226" width="47.2432" height="47.2441" filterUnits="userSpaceOnUse" color-interpolation-filters="sRGB">
<feFlood flood-opacity="0" result="BackgroundImageFix"/>
<feBlend mode="normal" in="SourceGraphic" in2="BackgroundImageFix" result="shape"/>
<feGaussianBlur stdDeviation="4" result="effect1_foregroundBlur_1_4"/>
</filter>
<filter id="filter16_f_1_4" x="1127.52" y="548.519" width="49.1636" height="49.1641" filterUnits="userSpaceOnUse" color-interpolation-filters="sRGB">
<feFlood flood-opacity="0" result="BackgroundImageFix"/>
<feBlend mode="normal" in="SourceGraphic" in2="BackgroundImageFix" result="shape"/>
<feGaussianBlur stdDeviation="4" result="effect1_foregroundBlur_1_4"/>
</filter>
<filter id="filter17_f_1_4" x="139.514" y="0.513672" width="46.9756" height="46.9756" filterUnits="userSpaceOnUse" color-interpolation-filters="sRGB">
<feFlood flood-opacity="0" result="BackgroundImageFix"/>
<feBlend mode="normal" in="SourceGraphic" in2="BackgroundImageFix" result="shape"/>
<feGaussianBlur stdDeviation="4" result="effect1_foregroundBlur_1_4"/>
</filter>
<filter id="filter18_f_1_4" x="638.802" y="867.802" width="49.0098" height="49.0107" filterUnits="userSpaceOnUse" color-interpolation-filters="sRGB">
<feFlood flood-opacity="0" result="BackgroundImageFix"/>
<feBlend mode="normal" in="SourceGraphic" in2="BackgroundImageFix" result="shape"/>
<feGaussianBlur stdDeviation="4" result="effect1_foregroundBlur_1_4"/>
</filter>
<filter id="filter19_f_1_4" x="683.802" y="77.8018" width="49.0098" height="49.0107" filterUnits="userSpaceOnUse" color-interpolation-filters="sRGB">
<feFlood flood-opacity="0" result="BackgroundImageFix"/>
<feBlend mode="normal" in="SourceGraphic" in2="BackgroundImageFix" result="shape"/>
<feGaussianBlur stdDeviation="4" result="effect1_foregroundBlur_1_4"/>
</filter>
<linearGradient id="paint0_linear_1_4" x1="101.279" y1="753.279" x2="101.279" y2="873.279" gradientUnits="userSpaceOnUse">
<stop stop-color="#C06DFF"/>
<stop offset="1" stop-color="#A3F6FF"/>
</linearGradient>
<radialGradient id="paint1_radial_1_4" cx="0" cy="0" r="1" gradientUnits="userSpaceOnUse" gradientTransform="translate(73.6787 795.879) rotate(50.5993) scale(86.9648)">
<stop stop-color="white"/>
<stop offset="0.95949" stop-color="white" stop-opacity="0"/>
</radialGradient>
<linearGradient id="paint2_linear_1_4" x1="1283.17" y1="72.4662" x2="1278.42" y2="213.516" gradientUnits="userSpaceOnUse">
<stop stop-color="#3E006D"/>
<stop offset="1" stop-color="#FFDFFE"/>
</linearGradient>
</defs>
</svg>
